<svg width="288" height="269" viewBox="0 0 288 269" fill="none" xmlns="http://www.w3.org/2000/svg">
<rect width="288" height="269" rx="20" fill="white"/>
<g clip-path="url(#clip0_304_2)">
<path d="M89.3546 119.267V126.877H93.5902C94.829 126.877 95.7899 126.54 96.4744 125.868C97.1694 125.195 97.5172 124.263 97.5172 123.072C97.5172 121.914 97.1585 120.993 96.4416 120.309C95.7247 119.614 94.7581 119.267 93.5417 119.267H89.3546ZM89.3546 130.5V139.235H84.434V115.362H94.0631C96.746 115.362 98.8315 116.04 100.32 117.397C101.818 118.743 102.568 120.601 102.568 122.972C102.568 124.528 102.188 125.917 101.427 127.142C100.678 128.355 99.6349 129.226 98.2992 129.756L103.252 139.235H97.6798L93.2972 130.5H89.3546ZM119.577 137.167C118.024 138.8 115.917 139.616 113.256 139.616C110.595 139.616 108.487 138.794 106.934 137.151C105.381 135.507 104.605 133.241 104.605 130.351C104.605 127.494 105.387 125.244 106.951 123.601C108.525 121.947 110.627 121.119 113.256 121.119C115.895 121.119 117.997 121.947 119.561 123.601C121.125 125.244 121.907 127.494 121.907 130.351C121.907 133.252 121.13 135.524 119.577 137.167ZM113.256 135.926C114.429 135.926 115.357 135.441 116.042 134.471C116.726 133.5 117.068 132.132 117.068 130.368C117.068 128.625 116.726 127.263 116.042 126.281C115.357 125.3 114.429 124.809 113.256 124.809C112.083 124.809 111.149 125.3 110.453 126.281C109.769 127.263 109.427 128.625 109.427 130.368C109.427 132.132 109.769 133.5 110.453 134.471C111.138 135.441 112.072 135.926 113.256 135.926ZM140.497 121.5V139.235H135.903V136.042H135.805C134.892 138.392 133.15 139.566 130.575 139.566C128.663 139.566 127.137 138.976 125.997 137.796C124.856 136.605 124.286 134.983 124.286 132.932V121.5H129.043V131.923C129.043 133.103 129.321 134.002 129.874 134.619C130.439 135.237 131.249 135.546 132.302 135.546C133.355 135.546 134.192 135.193 134.811 134.487C135.43 133.781 135.74 132.838 135.74 131.658V121.5H140.497ZM143.593 139.235V121.5H148.187V124.66H148.285C148.763 123.535 149.458 122.675 150.371 122.079C151.294 121.472 152.418 121.169 153.744 121.169C155.677 121.169 157.17 121.754 158.224 122.923C159.277 124.092 159.804 125.719 159.804 127.803V139.235H155.047V128.813C155.047 127.643 154.775 126.744 154.232 126.116C153.689 125.487 152.891 125.173 151.837 125.173C150.783 125.173 149.936 125.531 149.295 126.248C148.665 126.965 148.35 127.903 148.35 129.061V139.235H143.593ZM169.303 139.517C167.12 139.517 165.387 138.695 164.105 137.051C162.824 135.408 162.183 133.169 162.183 130.335C162.183 127.522 162.824 125.3 164.105 123.667C165.398 122.035 167.141 121.219 169.336 121.219C170.574 121.219 171.66 121.522 172.594 122.129C173.539 122.735 174.229 123.54 174.663 124.544H174.761V115.362H179.518V139.235H174.826V136.191H174.745C174.31 137.195 173.61 138 172.643 138.607C171.676 139.213 170.563 139.517 169.303 139.517ZM170.916 125.09C169.721 125.09 168.776 125.564 168.081 126.513C167.397 127.461 167.055 128.746 167.055 130.368C167.055 132 167.397 133.285 168.081 134.222C168.776 135.16 169.721 135.629 170.916 135.629C172.1 135.629 173.039 135.16 173.734 134.222C174.44 133.274 174.793 131.989 174.793 130.368C174.793 128.757 174.44 127.478 173.734 126.529C173.039 125.57 172.1 125.09 170.916 125.09ZM194.638 119.267V126.877H198.874C200.112 126.877 201.074 126.54 201.758 125.868C202.453 125.195 202.801 124.263 202.801 123.072C202.801 121.914 202.442 120.993 201.726 120.309C201.009 119.614 200.042 119.267 198.825 119.267H194.638ZM194.638 130.5V139.235H189.718V115.362H199.347C202.029 115.362 204.115 116.04 205.603 117.397C207.102 118.743 207.852 120.601 207.852 122.972C207.852 124.528 207.472 125.917 206.711 127.142C205.962 128.355 204.919 129.226 203.583 129.756L208.536 139.235H202.964L198.581 130.5H194.638ZM224.861 137.167C223.308 138.8 221.201 139.616 218.54 139.616C215.879 139.616 213.771 138.794 212.218 137.151C210.665 135.507 209.888 133.241 209.888 130.351C209.888 127.494 210.67 125.244 212.234 123.601C213.809 121.947 215.911 121.119 218.54 121.119C221.179 121.119 223.28 121.947 224.845 123.601C226.409 125.244 227.191 127.494 227.191 130.351C227.191 133.252 226.414 135.524 224.861 137.167ZM218.54 135.926C219.713 135.926 220.641 135.441 221.325 134.471C222.01 133.5 222.352 132.132 222.352 130.368C222.352 128.625 222.01 127.263 221.325 126.281C220.641 125.3 219.713 124.809 218.54 124.809C217.367 124.809 216.432 125.3 215.737 126.281C215.053 127.263 214.711 128.625 214.711 130.368C214.711 132.132 215.053 133.5 215.737 134.471C216.421 135.441 217.356 135.926 218.54 135.926ZM245.52 128.101H241.105C240.964 127.142 240.589 126.369 239.981 125.785C239.383 125.2 238.607 124.908 237.651 124.908C236.467 124.908 235.533 125.393 234.849 126.364C234.175 127.324 233.838 128.653 233.838 130.351C233.838 132.083 234.175 133.428 234.849 134.388C235.533 135.347 236.473 135.827 237.667 135.827C238.612 135.827 239.383 135.557 239.981 135.017C240.578 134.465 240.953 133.704 241.105 132.733H245.537C245.417 134.829 244.64 136.5 243.207 137.746C241.773 138.993 239.91 139.616 237.618 139.616C234.968 139.616 232.871 138.794 231.329 137.151C229.787 135.496 229.015 133.23 229.015 130.351C229.015 127.517 229.787 125.272 231.329 123.618C232.882 121.952 234.968 121.119 237.586 121.119C239.91 121.119 241.784 121.77 243.207 123.072C244.64 124.373 245.411 126.05 245.52 128.101ZM252.771 128.614L258.701 121.5H264.094L257.43 129.11L264.42 139.235H258.946L253.944 132.022L252.705 133.379V139.235H247.948V115.362H252.705V128.614H252.771ZM89.3937 154.252V155.118H83.4069V145.046H89.3937V145.912H84.3417V149.534H89.1393V150.386H84.3417V154.252H89.3937ZM96.4729 155.118V145.046H97.3806V155.118H96.4729ZM107.394 148.55C106.758 148.55 106.233 148.776 105.82 149.227C105.413 149.674 105.191 150.258 105.154 150.979H109.566C109.558 150.258 109.354 149.674 108.955 149.227C108.557 148.776 108.036 148.55 107.394 148.55ZM109.512 153.059H110.412C110.302 153.696 109.977 154.22 109.436 154.629C108.9 155.034 108.242 155.236 107.463 155.236C106.46 155.236 105.667 154.904 105.085 154.238C104.503 153.568 104.212 152.659 104.212 151.509C104.212 150.379 104.503 149.469 105.085 148.78C105.667 148.087 106.441 147.74 107.409 147.74C108.352 147.74 109.104 148.066 109.663 148.717C110.222 149.369 110.501 150.237 110.501 151.321V151.712H105.147V151.767C105.147 152.586 105.358 153.235 105.779 153.715C106.201 154.189 106.769 154.427 107.484 154.427C108.011 154.427 108.455 154.301 108.817 154.05C109.18 153.799 109.411 153.468 109.512 153.059ZM123.093 150.155H122.2C122.099 149.685 121.868 149.301 121.506 149.004C121.148 148.706 120.699 148.557 120.159 148.557C119.457 148.557 118.896 148.822 118.475 149.353C118.057 149.883 117.849 150.595 117.849 151.488C117.849 152.391 118.06 153.105 118.481 153.631C118.903 154.157 119.464 154.42 120.165 154.42C120.697 154.42 121.141 154.28 121.499 154.001C121.861 153.722 122.094 153.345 122.2 152.87H123.1C123 153.568 122.679 154.138 122.138 154.58C121.602 155.018 120.942 155.236 120.159 155.236C119.178 155.236 118.392 154.901 117.801 154.231C117.214 153.557 116.921 152.642 116.921 151.488C116.921 150.348 117.214 149.439 117.801 148.759C118.392 148.08 119.176 147.74 120.152 147.74C120.963 147.74 121.632 147.973 122.159 148.438C122.69 148.904 123.002 149.476 123.093 150.155ZM130.187 146.044H131.094V147.859H132.503V148.627H131.094V153.289C131.094 153.661 131.169 153.933 131.321 154.106C131.472 154.273 131.713 154.357 132.043 154.357C132.299 154.357 132.464 154.348 132.537 154.329V155.118C132.409 155.146 132.184 155.16 131.864 155.16C131.264 155.16 130.833 155.02 130.571 154.741C130.315 154.457 130.187 153.987 130.187 153.331V148.627H129.121V147.859H130.187V146.044ZM139.356 155.118V147.859H140.215V149.15H140.235C140.368 148.708 140.593 148.364 140.909 148.117C141.225 147.866 141.603 147.74 142.043 147.74C142.217 147.74 142.405 147.766 142.607 147.817V148.724C142.46 148.655 142.233 148.62 141.926 148.62C141.422 148.62 141.019 148.801 140.717 149.164C140.414 149.527 140.263 150.004 140.263 150.595V155.118H139.356ZM149.212 155.118V147.859H150.119V155.118H149.212ZM149.665 146.393C149.501 146.393 149.359 146.335 149.239 146.219C149.121 146.098 149.061 145.951 149.061 145.779C149.061 145.611 149.121 145.47 149.239 145.353C149.359 145.232 149.501 145.172 149.665 145.172C149.835 145.172 149.98 145.232 150.099 145.353C150.218 145.47 150.277 145.611 150.277 145.779C150.277 145.951 150.218 146.098 150.099 146.219C149.98 146.335 149.835 146.393 149.665 146.393ZM163.123 150.155H162.23C162.129 149.685 161.898 149.301 161.536 149.004C161.178 148.706 160.729 148.557 160.189 148.557C159.487 148.557 158.926 148.822 158.505 149.353C158.088 149.883 157.879 150.595 157.879 151.488C157.879 152.391 158.09 153.105 158.511 153.631C158.933 154.157 159.494 154.42 160.195 154.42C160.727 154.42 161.171 154.28 161.529 154.001C161.891 153.722 162.125 153.345 162.23 152.87H163.131C163.03 153.568 162.709 154.138 162.168 154.58C161.632 155.018 160.972 155.236 160.189 155.236C159.208 155.236 158.422 154.901 157.831 154.231C157.245 153.557 156.951 152.642 156.951 151.488C156.951 150.348 157.245 149.439 157.831 148.759C158.422 148.08 159.206 147.74 160.182 147.74C160.993 147.74 161.662 147.973 162.189 148.438C162.72 148.904 163.032 149.476 163.123 150.155ZM177.935 152.382H178.877C178.928 152.987 179.209 153.477 179.723 153.854C180.236 154.227 180.88 154.413 181.654 154.413C182.396 154.413 183.006 154.229 183.482 153.861C183.964 153.494 184.204 153.026 184.204 152.458C184.204 151.989 184.037 151.607 183.702 151.314C183.368 151.016 182.832 150.772 182.094 150.581L180.863 150.26C179.943 150.023 179.269 149.697 178.843 149.283C178.421 148.869 178.21 148.331 178.21 147.67C178.21 146.861 178.531 146.195 179.173 145.674C179.815 145.149 180.625 144.886 181.606 144.886C182.568 144.886 183.368 145.146 184.005 145.667C184.647 146.184 184.981 146.842 185.008 147.643H184.067C184.021 147.075 183.771 146.619 183.318 146.275C182.864 145.926 182.284 145.751 181.578 145.751C180.886 145.751 180.314 145.928 179.86 146.282C179.411 146.631 179.186 147.082 179.186 147.636C179.186 148.068 179.349 148.422 179.674 148.696C180 148.966 180.529 149.197 181.262 149.387L182.335 149.667C183.334 149.923 184.055 150.26 184.5 150.679C184.944 151.097 185.166 151.656 185.166 152.354C185.166 153.238 184.841 153.947 184.19 154.483C183.54 155.013 182.667 155.278 181.572 155.278C180.536 155.278 179.684 155.013 179.015 154.483C178.346 153.947 177.986 153.247 177.935 152.382ZM194.782 148.55C194.145 148.55 193.62 148.776 193.208 149.227C192.8 149.674 192.578 150.258 192.542 150.979H196.954C196.945 150.258 196.741 149.674 196.342 149.227C195.944 148.776 195.424 148.55 194.782 148.55ZM196.899 153.059H197.8C197.69 153.696 197.364 154.22 196.824 154.629C196.288 155.034 195.63 155.236 194.851 155.236C193.847 155.236 193.055 154.904 192.473 154.238C191.891 153.568 191.6 152.659 191.6 151.509C191.6 150.379 191.891 149.469 192.473 148.78C193.055 148.087 193.829 147.74 194.796 147.74C195.74 147.74 196.492 148.066 197.05 148.717C197.609 149.369 197.889 150.237 197.889 151.321V151.712H192.534V151.767C192.534 152.586 192.745 153.235 193.167 153.715C193.589 154.189 194.157 154.427 194.872 154.427C195.399 154.427 195.843 154.301 196.205 154.05C196.567 153.799 196.799 153.468 196.899 153.059ZM204.666 155.118V147.859H205.525V149.15H205.546C205.679 148.708 205.903 148.364 206.219 148.117C206.536 147.866 206.914 147.74 207.354 147.74C207.528 147.74 207.715 147.766 207.917 147.817V148.724C207.771 148.655 207.543 148.62 207.237 148.62C206.733 148.62 206.329 148.801 206.027 149.164C205.724 149.527 205.573 150.004 205.573 150.595V155.118H204.666ZM220.069 147.859L217.416 155.118H216.447L213.787 147.859H214.749L216.921 154.148H216.942L219.121 147.859H220.069ZM226.585 155.118V147.859H227.493V155.118H226.585ZM227.038 146.393C226.874 146.393 226.732 146.335 226.612 146.219C226.494 146.098 226.434 145.951 226.434 145.779C226.434 145.611 226.494 145.47 226.612 145.353C226.732 145.232 226.874 145.172 227.038 145.172C227.208 145.172 227.353 145.232 227.472 145.353C227.591 145.47 227.651 145.611 227.651 145.779C227.651 145.951 227.591 146.098 227.472 146.219C227.353 146.335 227.208 146.393 227.038 146.393ZM240.496 150.155H239.603C239.502 149.685 239.271 149.301 238.909 149.004C238.551 148.706 238.102 148.557 237.562 148.557C236.86 148.557 236.299 148.822 235.878 149.353C235.461 149.883 235.252 150.595 235.252 151.488C235.252 152.391 235.463 153.105 235.884 153.631C236.306 154.157 236.867 154.42 237.568 154.42C238.1 154.42 238.544 154.28 238.902 154.001C239.264 153.722 239.498 153.345 239.603 152.87H240.504C240.403 153.568 240.082 154.138 239.541 154.58C239.005 155.018 238.345 155.236 237.562 155.236C236.581 155.236 235.795 154.901 235.204 154.231C234.618 153.557 234.325 152.642 234.325 151.488C234.325 150.348 234.618 149.439 235.204 148.759C235.795 148.08 236.579 147.74 237.555 147.74C238.366 147.74 239.035 147.973 239.562 148.438C240.093 148.904 240.405 149.476 240.496 150.155ZM250.023 148.55C249.386 148.55 248.861 148.776 248.449 149.227C248.041 149.674 247.819 150.258 247.783 150.979H252.195C252.186 150.258 251.982 149.674 251.583 149.227C251.185 148.776 250.665 148.55 250.023 148.55ZM252.14 153.059H253.041C252.931 153.696 252.605 154.22 252.065 154.629C251.529 155.034 250.871 155.236 250.092 155.236C249.088 155.236 248.296 154.904 247.714 154.238C247.131 153.568 246.84 152.659 246.84 151.509C246.84 150.379 247.131 149.469 247.714 148.78C248.296 148.087 249.07 147.74 250.037 147.74C250.981 147.74 251.732 148.066 252.291 148.717C252.85 149.369 253.13 150.237 253.13 151.321V151.712H247.775V151.767C247.775 152.586 247.986 153.235 248.408 153.715C248.829 154.189 249.398 154.427 250.113 154.427C250.64 154.427 251.084 154.301 251.446 154.05C251.808 153.799 252.04 153.468 252.14 153.059ZM259.763 149.799C259.763 149.199 260.001 148.706 260.477 148.32C260.959 147.933 261.577 147.74 262.333 147.74C263.062 147.74 263.664 147.94 264.141 148.341C264.622 148.736 264.886 149.253 264.931 149.89H264.059C264.003 149.457 263.82 149.118 263.509 148.871C263.202 148.624 262.801 148.501 262.306 148.501C261.82 148.501 261.424 148.62 261.117 148.857C260.814 149.09 260.663 149.387 260.663 149.75C260.663 150.048 260.773 150.292 260.993 150.483C261.213 150.669 261.561 150.823 262.038 150.944L263.096 151.202C263.811 151.384 264.317 151.621 264.615 151.914C264.913 152.207 265.062 152.614 265.062 153.135C265.062 153.75 264.805 154.255 264.292 154.65C263.779 155.041 263.119 155.236 262.313 155.236C261.547 155.236 260.911 155.039 260.402 154.643C259.898 154.248 259.616 153.729 259.557 153.087H260.464C260.528 153.519 260.727 153.859 261.062 154.106C261.401 154.352 261.836 154.476 262.368 154.476C262.904 154.476 263.334 154.359 263.66 154.127C263.985 153.894 264.148 153.587 264.148 153.205C264.148 152.889 264.047 152.64 263.845 152.458C263.648 152.272 263.312 152.121 262.835 152.005L261.673 151.712C261.027 151.549 260.546 151.311 260.23 151C259.918 150.683 259.763 150.283 259.763 149.799Z" fill="#7C4032"/>
<path d="M42.5138 129.719C42.5218 129.726 42.5284 129.734 42.533 129.743C42.5376 129.753 42.5403 129.763 42.5407 129.774L42.8743 133.358C42.9229 133.906 43.1722 134.416 43.5732 134.786C43.9742 135.157 44.4976 135.361 45.0399 135.359H49.0157C49.558 135.361 50.0814 135.157 50.4823 134.786C50.8833 134.416 51.1327 133.906 51.1812 133.358L51.5149 129.773C51.5158 129.762 51.5189 129.751 51.5239 129.742C51.5288 129.732 51.5357 129.724 51.5439 129.717C52.6646 128.774 53.4715 127.504 53.8544 126.078C54.2374 124.653 54.1778 123.143 53.6838 121.753C53.1898 120.364 52.2854 119.162 51.094 118.314C49.9026 117.465 48.4823 117.01 47.0267 117.011H47.0009C45.5474 117.016 44.1307 117.475 42.9435 118.326C41.7564 119.177 40.8564 120.379 40.366 121.768C39.8757 123.157 39.8188 124.665 40.2031 126.088C40.5874 127.51 41.3942 128.778 42.5138 129.719ZM41.4816 124.001C41.5785 121.011 44.0572 118.569 47.0073 118.56H47.0267C48.1682 118.56 49.2819 118.917 50.2159 119.583C51.1499 120.25 51.8588 121.192 52.246 122.282C52.6331 123.371 52.6797 124.556 52.3794 125.674C52.0791 126.791 51.4464 127.788 50.5677 128.527C50.405 128.663 50.2705 128.83 50.1718 129.019C50.0732 129.208 50.0124 129.415 49.993 129.628L49.6615 133.213C49.6469 133.377 49.5725 133.529 49.453 133.639C49.3334 133.75 49.1774 133.811 49.0157 133.81H45.0399C44.8781 133.811 44.7218 133.749 44.6022 133.639C44.4826 133.528 44.4084 133.376 44.3941 133.212L44.0647 129.628C44.0455 129.415 43.9849 129.209 43.8864 129.02C43.7879 128.831 43.6536 128.663 43.4911 128.527C42.836 127.98 42.3139 127.287 41.9654 126.502C41.6169 125.717 41.4514 124.861 41.4816 124.001Z" fill="#7C4032"/>
<path d="M42.6034 123.781C42.6282 123.786 42.6535 123.789 42.6788 123.789C42.7668 123.788 42.8521 123.757 42.9202 123.701C42.9882 123.644 43.0349 123.565 43.0523 123.477C43.2675 122.401 43.9036 120.995 45.7538 120.4C45.8039 120.387 45.8509 120.364 45.8918 120.331C45.9327 120.299 45.9667 120.259 45.9918 120.213C46.0168 120.166 46.0324 120.116 46.0375 120.063C46.0426 120.011 46.0372 119.958 46.0216 119.908C46.0059 119.858 45.9804 119.811 45.9465 119.772C45.9127 119.732 45.8712 119.699 45.8246 119.676C45.778 119.653 45.7273 119.64 45.6755 119.638C45.6237 119.635 45.572 119.643 45.5235 119.662C43.8014 120.215 42.6605 121.519 42.3042 123.326C42.2944 123.375 42.2943 123.427 42.304 123.477C42.3137 123.527 42.3329 123.574 42.3607 123.616C42.3885 123.659 42.4243 123.695 42.4659 123.723C42.5075 123.752 42.5543 123.771 42.6034 123.781Z" fill="#7C4032"/>
<path d="M72.048 130.659L58.6621 108H35.3892L32.3325 113.174V111.454H26.9058V122.357L22 130.659H26.2944L28.9454 152.325H44.2666C44.4638 152.318 44.6505 152.233 44.7875 152.088C44.9245 151.944 45.001 151.752 45.001 151.551C45.001 151.351 44.9245 151.158 44.7875 151.014C44.6505 150.87 44.4638 150.785 44.2666 150.777H30.2929L27.8314 130.659H40.4317C40.5342 130.662 40.6365 130.645 40.7324 130.608C40.8282 130.571 40.9158 130.515 40.9897 130.442C41.0636 130.37 41.1224 130.283 41.1625 130.188C41.2027 130.092 41.2234 129.989 41.2234 129.885C41.2234 129.78 41.2027 129.677 41.1625 129.581C41.1224 129.486 41.0636 129.399 40.9897 129.327C40.9158 129.255 40.8282 129.198 40.7324 129.161C40.6365 129.124 40.5342 129.107 40.4317 129.111H24.6908L36.2535 109.548H57.7978L69.3573 129.111H53.6185C53.4213 129.118 53.2345 129.203 53.0975 129.347C52.9606 129.492 52.8841 129.684 52.8841 129.885C52.8841 130.085 52.9606 130.277 53.0975 130.422C53.2345 130.566 53.4213 130.651 53.6185 130.659H57.885V132.916C57.7781 132.983 57.6898 133.076 57.6285 133.186C57.5672 133.297 57.5351 133.422 57.5351 133.549C57.5351 133.676 57.5672 133.801 57.6285 133.912C57.6898 134.023 57.7781 134.116 57.885 134.182V135.842C57.7781 135.908 57.6898 136.001 57.6285 136.112C57.5672 136.223 57.5351 136.348 57.5351 136.475C57.5351 136.602 57.5672 136.727 57.6285 136.838C57.6898 136.948 57.7781 137.041 57.885 137.108V138.768C57.7485 138.852 57.643 138.98 57.5845 139.131C57.5259 139.282 57.5176 139.448 57.5609 139.604C57.6041 139.76 57.6964 139.898 57.8238 139.996C57.9512 140.094 58.1067 140.147 58.2665 140.147C58.4264 140.147 58.5819 140.094 58.7093 139.996C58.8366 139.898 58.929 139.76 58.9722 139.604C59.0154 139.448 59.0071 139.282 58.9486 139.131C58.8901 138.98 58.7846 138.852 58.6481 138.768V137.108C58.7552 137.042 58.8438 136.949 58.9053 136.838C58.9667 136.727 58.999 136.602 58.999 136.475C58.999 136.347 58.9667 136.222 58.9053 136.111C58.8438 136.001 58.7552 135.908 58.6481 135.842V134.182C58.7552 134.116 58.8438 134.023 58.9053 133.913C58.9667 133.802 58.999 133.677 58.999 133.549C58.999 133.422 58.9667 133.297 58.9053 133.186C58.8438 133.075 58.7552 132.982 58.6481 132.916V130.659H66.2188L63.7605 150.777H49.7847C49.6822 150.773 49.5799 150.79 49.484 150.828C49.3882 150.865 49.3006 150.921 49.2267 150.993C49.1528 151.066 49.094 151.152 49.0539 151.248C49.0137 151.344 48.993 151.447 48.993 151.551C48.993 151.655 49.0137 151.758 49.0539 151.854C49.094 151.95 49.1528 152.037 49.2267 152.109C49.3006 152.181 49.3882 152.238 49.484 152.275C49.5799 152.312 49.6822 152.329 49.7847 152.325H65.1059L67.7557 130.659H72.048ZM28.4309 113.002H30.8063V115.756L28.4309 119.774V113.002Z" fill="#7C4032"/>
<path d="M46.2625 142.271V154.833C46.2586 154.937 46.2755 155.041 46.3121 155.138C46.3487 155.236 46.4042 155.324 46.4754 155.399C46.5466 155.475 46.632 155.534 46.7264 155.575C46.8208 155.616 46.9224 155.637 47.0251 155.637C47.1277 155.637 47.2292 155.616 47.3237 155.575C47.4181 155.534 47.5035 155.475 47.5747 155.399C47.6458 155.324 47.7014 155.236 47.738 155.138C47.7746 155.041 47.7915 154.937 47.7876 154.833V142.271C47.7915 142.167 47.7746 142.063 47.738 141.966C47.7014 141.869 47.6458 141.78 47.5747 141.705C47.5035 141.63 47.4181 141.57 47.3237 141.529C47.2292 141.489 47.1277 141.468 47.0251 141.468C46.9224 141.468 46.8208 141.489 46.7264 141.529C46.632 141.57 46.5466 141.63 46.4754 141.705C46.4042 141.78 46.3487 141.869 46.3121 141.966C46.2755 142.063 46.2586 142.167 46.2625 142.271Z" fill="#7C4032"/>
<path d="M44.2205 137.92H49.8313C50.0286 137.913 50.2153 137.828 50.3523 137.684C50.4893 137.539 50.5657 137.347 50.5657 137.146C50.5657 136.946 50.4893 136.754 50.3523 136.609C50.2153 136.465 50.0286 136.38 49.8313 136.372H44.2205C44.0232 136.38 43.8365 136.465 43.6996 136.609C43.5626 136.754 43.4861 136.946 43.4861 137.146C43.4861 137.347 43.5626 137.539 43.6996 137.684C43.8365 137.828 44.0232 137.913 44.2205 137.92Z" fill="#7C4032"/>
<path d="M45.2013 140.483H48.8479C48.9504 140.487 49.0526 140.47 49.1485 140.433C49.2444 140.396 49.3319 140.339 49.4059 140.267C49.4798 140.195 49.5386 140.108 49.5787 140.012C49.6189 139.916 49.6396 139.813 49.6396 139.709C49.6396 139.605 49.6189 139.502 49.5787 139.406C49.5386 139.31 49.4798 139.224 49.4059 139.151C49.3319 139.079 49.2444 139.023 49.1485 138.986C49.0526 138.948 48.9504 138.931 48.8479 138.935H45.2013C44.999 138.935 44.8049 139.017 44.6617 139.162C44.5186 139.307 44.4382 139.504 44.4382 139.71C44.4382 139.915 44.5186 140.112 44.6617 140.257C44.8049 140.403 44.999 140.484 45.2013 140.484V140.483Z" fill="#7C4032"/>
<path d="M55.0879 125.788C55.0496 125.989 55.0918 126.198 55.205 126.368C55.3182 126.538 55.4932 126.655 55.6917 126.694L57.8948 127.131C58.0927 127.168 58.297 127.125 58.4632 127.01C58.6295 126.895 58.7443 126.718 58.7826 126.517C58.8209 126.317 58.7797 126.109 58.6678 125.939C58.556 125.769 58.3826 125.651 58.1855 125.611L55.9823 125.174C55.7835 125.135 55.5776 125.178 55.41 125.293C55.2423 125.408 55.1264 125.586 55.0879 125.788Z" fill="#7C4032"/>
<path d="M57.1369 119.192L55.0575 120.049C54.8894 120.113 54.7492 120.236 54.6617 120.395C54.5741 120.555 54.5449 120.74 54.5791 120.919C54.6134 121.098 54.709 121.259 54.8489 121.374C54.9888 121.488 55.1641 121.549 55.3438 121.545C55.442 121.545 55.5393 121.526 55.6301 121.488L57.7106 120.633C57.8972 120.555 58.046 120.405 58.1241 120.217C58.2023 120.028 58.2036 119.815 58.1278 119.625C58.0519 119.436 57.9051 119.284 57.7194 119.204C57.5337 119.124 57.3243 119.121 57.1369 119.198V119.192Z" fill="#7C4032"/>
<path d="M51.9623 117.358C52.0887 117.359 52.2133 117.327 52.3247 117.266C52.4361 117.206 52.5309 117.118 52.6005 117.011L53.8361 115.11C53.9357 114.939 53.9669 114.736 53.9232 114.543C53.8795 114.35 53.7643 114.181 53.6013 114.071C53.4384 113.962 53.2401 113.92 53.0476 113.954C52.8552 113.989 52.6832 114.097 52.5672 114.257L51.3305 116.158C51.2752 116.242 51.2368 116.337 51.2177 116.437C51.1985 116.537 51.1989 116.64 51.219 116.739C51.2389 116.839 51.2781 116.934 51.3342 117.018C51.3902 117.102 51.4621 117.174 51.5457 117.23C51.6692 117.314 51.814 117.358 51.9623 117.358Z" fill="#7C4032"/>
<path d="M47.7876 115.085V112.806C47.7915 112.702 47.7746 112.598 47.738 112.501C47.7014 112.404 47.6458 112.315 47.5747 112.24C47.5035 112.165 47.4181 112.105 47.3237 112.065C47.2292 112.024 47.1277 112.003 47.0251 112.003C46.9224 112.003 46.8208 112.024 46.7264 112.065C46.632 112.105 46.5466 112.165 46.4754 112.24C46.4042 112.315 46.3487 112.404 46.3121 112.501C46.2755 112.598 46.2586 112.702 46.2625 112.806V115.085C46.2699 115.285 46.3535 115.475 46.4957 115.614C46.6379 115.753 46.8276 115.83 47.0251 115.83C47.2225 115.83 47.4122 115.753 47.5544 115.614C47.6966 115.475 47.7802 115.285 47.7876 115.085Z" fill="#7C4032"/>
<path d="M42.0887 117.359C42.2263 117.359 42.3614 117.321 42.4794 117.249C42.5975 117.177 42.6942 117.074 42.7594 116.951C42.8245 116.828 42.8557 116.689 42.8496 116.549C42.8435 116.41 42.8004 116.274 42.7248 116.158L41.4881 114.258C41.3733 114.095 41.2007 113.983 41.0067 113.947C40.8126 113.91 40.612 113.951 40.4472 114.062C40.2824 114.172 40.1661 114.343 40.1227 114.538C40.0794 114.734 40.1124 114.939 40.2148 115.11L41.4515 117.011C41.5208 117.118 41.6154 117.206 41.7267 117.267C41.8379 117.328 41.9623 117.359 42.0887 117.359Z" fill="#7C4032"/>
<path d="M39.4133 121.057C39.4511 120.963 39.4701 120.862 39.4695 120.76C39.4688 120.659 39.4483 120.558 39.4094 120.464C39.3704 120.371 39.3136 120.286 39.2423 120.214C39.1709 120.143 39.0864 120.087 38.9936 120.049L36.9141 119.192C36.7268 119.116 36.5174 119.118 36.3317 119.198C36.146 119.279 35.9991 119.43 35.9233 119.62C35.8474 119.81 35.8487 120.022 35.9269 120.211C36.0051 120.4 36.1538 120.55 36.3405 120.628L38.4198 121.483C38.5107 121.52 38.608 121.54 38.7062 121.54C38.858 121.54 39.0064 121.494 39.1325 121.408C39.2585 121.322 39.3562 121.2 39.4133 121.057Z" fill="#7C4032"/>
<path d="M38.0698 125.175L35.8666 125.612C35.6804 125.649 35.5144 125.754 35.4008 125.908C35.2873 126.063 35.2344 126.254 35.2523 126.446C35.2704 126.637 35.358 126.815 35.4982 126.945C35.6384 127.074 35.8212 127.146 36.0108 127.147C36.0596 127.147 36.1082 127.142 36.1561 127.132L38.3593 126.696C38.5578 126.657 38.7329 126.539 38.8462 126.369C38.9594 126.199 39.0015 125.99 38.9631 125.789C38.9247 125.587 38.809 125.41 38.6415 125.295C38.4739 125.18 38.2683 125.137 38.0698 125.176V125.175Z" fill="#7C4032"/>
<path d="M49.3133 153.666C49.1607 153.801 49.0672 153.992 49.0533 154.197C49.0394 154.402 49.1062 154.604 49.239 154.759L54.12 160.451H39.9311L44.8176 154.759C44.8832 154.682 44.9335 154.593 44.9653 154.497C44.9971 154.4 45.0099 154.299 45.0029 154.197C44.996 154.096 44.9694 153.997 44.9248 153.906C44.8801 153.815 44.8183 153.734 44.7427 153.667C44.6672 153.6 44.5794 153.549 44.4845 153.517C44.3895 153.485 44.2893 153.472 44.1894 153.479C44.0895 153.486 43.9919 153.513 43.9023 153.558C43.8127 153.603 43.7327 153.666 43.6669 153.743L36.587 162H57.4684L50.3896 153.743C50.3239 153.666 50.2439 153.603 50.1543 153.558C50.0646 153.512 49.967 153.485 49.867 153.478C49.7671 153.471 49.6667 153.484 49.5716 153.516C49.4766 153.549 49.3888 153.6 49.3133 153.666Z" fill="#7C4032"/>
<path d="M59.0247 143.859V141.549C59.0285 141.445 59.0117 141.341 58.9751 141.244C58.9385 141.147 58.883 141.058 58.8117 140.983C58.7406 140.908 58.6552 140.848 58.5608 140.807C58.4663 140.767 58.3648 140.746 58.2621 140.746C58.1595 140.746 58.0579 140.767 57.9635 140.807C57.8691 140.848 57.7837 140.908 57.7125 140.983C57.6413 141.058 57.5857 141.147 57.5491 141.244C57.5126 141.341 57.4957 141.445 57.4996 141.549V143.859C57.4957 143.964 57.5126 144.067 57.5491 144.165C57.5857 144.262 57.6413 144.351 57.7125 144.426C57.7837 144.501 57.8691 144.56 57.9635 144.601C58.0579 144.642 58.1595 144.663 58.2621 144.663C58.3648 144.663 58.4663 144.642 58.5608 144.601C58.6552 144.56 58.7406 144.501 58.8117 144.426C58.883 144.351 58.9385 144.262 58.9751 144.165C59.0117 144.067 59.0285 143.964 59.0247 143.859Z" fill="#7C4032"/>
<path d="M42.6036 124.379C42.5026 124.379 42.4058 124.42 42.3344 124.492C42.263 124.565 42.2228 124.663 42.2225 124.765V124.777C42.2277 124.876 42.2702 124.97 42.3411 125.038C42.4122 125.106 42.5063 125.145 42.6041 125.145C42.7019 125.145 42.796 125.106 42.867 125.038C42.938 124.97 42.9804 124.876 42.9856 124.777V124.765C42.9853 124.663 42.9449 124.564 42.8734 124.492C42.8017 124.419 42.7047 124.379 42.6036 124.379Z" fill="#7C4032"/>
</g>
<defs>
<clipPath id="clip0_304_2">
<rect width="244" height="54" fill="white" transform="translate(22 108)"/>
</clipPath>
</defs>
</svg>
