<svg width="288" height="269" viewBox="0 0 288 269" fill="none" xmlns="http://www.w3.org/2000/svg">
<rect width="288" height="269" rx="20" fill="white"/>
<path d="M90 135.345L86.0098 128.181H84.8893V135.345H80.2159V116.367H88.0596C89.5719 116.367 90.8564 116.628 91.9132 117.151C92.9881 117.673 93.7898 118.394 94.3182 119.313C94.8466 120.215 95.1108 121.224 95.1108 122.341C95.1108 123.603 94.7464 124.729 94.0176 125.721C93.307 126.712 92.2502 127.415 90.8473 127.829L95.2748 135.345H90ZM84.8893 124.91H87.7863C88.6426 124.91 89.2804 124.702 89.6994 124.288C90.1367 123.873 90.3553 123.287 90.3553 122.53C90.3553 121.81 90.1367 121.242 89.6994 120.827C89.2804 120.413 88.6426 120.206 87.7863 120.206H84.8893V124.91ZM107.118 135.534C105.315 135.534 103.657 135.12 102.144 134.29C100.65 133.461 99.4568 132.308 98.5641 130.83C97.6889 129.334 97.2516 127.658 97.2516 125.802C97.2516 123.945 97.6889 122.278 98.5641 120.8C99.4568 119.322 100.65 118.169 102.144 117.34C103.657 116.511 105.315 116.096 107.118 116.096C108.922 116.096 110.571 116.511 112.065 117.34C113.577 118.169 114.762 119.322 115.618 120.8C116.493 122.278 116.93 123.945 116.93 125.802C116.93 127.658 116.493 129.334 115.618 130.83C114.744 132.308 113.559 133.461 112.065 134.29C110.571 135.12 108.922 135.534 107.118 135.534ZM107.118 131.317C108.649 131.317 109.87 130.812 110.78 129.803C111.71 128.793 112.174 127.46 112.174 125.802C112.174 124.126 111.71 122.792 110.78 121.801C109.87 120.791 108.649 120.287 107.118 120.287C105.57 120.287 104.331 120.782 103.401 121.774C102.49 122.765 102.035 124.108 102.035 125.802C102.035 127.478 102.49 128.821 103.401 129.83C104.331 130.821 105.57 131.317 107.118 131.317ZM124.121 116.367V127.721C124.121 128.857 124.404 129.731 124.968 130.343C125.533 130.956 126.362 131.263 127.455 131.263C128.549 131.263 129.387 130.956 129.97 130.343C130.553 129.731 130.844 128.857 130.844 127.721V116.367H135.518V127.694C135.518 129.388 135.153 130.821 134.425 131.993C133.696 133.164 132.712 134.047 131.473 134.642C130.252 135.237 128.886 135.534 127.373 135.534C125.861 135.534 124.504 135.246 123.301 134.669C122.117 134.074 121.179 133.191 120.486 132.02C119.794 130.83 119.448 129.388 119.448 127.694V116.367H124.121ZM155.963 135.345H151.29L143.473 123.639V135.345H138.8V116.367H143.473L151.29 128.127V116.367H155.963V135.345ZM166.538 116.367C168.561 116.367 170.328 116.763 171.84 117.556C173.352 118.349 174.519 119.467 175.338 120.908C176.177 122.332 176.596 123.981 176.596 125.856C176.596 127.712 176.177 129.361 175.338 130.803C174.519 132.245 173.343 133.362 171.813 134.155C170.301 134.948 168.542 135.345 166.538 135.345H159.35V116.367H166.538ZM166.237 131.344C168.005 131.344 169.38 130.866 170.364 129.911C171.348 128.956 171.84 127.604 171.84 125.856C171.84 124.108 171.348 122.747 170.364 121.774C169.38 120.8 168.005 120.314 166.237 120.314H164.024V131.344H166.237ZM194.783 135.345L190.793 128.181H189.672V135.345H184.999V116.367H192.843C194.355 116.367 195.64 116.628 196.696 117.151C197.771 117.673 198.573 118.394 199.101 119.313C199.63 120.215 199.894 121.224 199.894 122.341C199.894 123.603 199.53 124.729 198.801 125.721C198.09 126.712 197.033 127.415 195.63 127.829L200.058 135.345H194.783ZM189.672 124.91H192.569C193.426 124.91 194.064 124.702 194.483 124.288C194.92 123.873 195.139 123.287 195.139 122.53C195.139 121.81 194.92 121.242 194.483 120.827C194.064 120.413 193.426 120.206 192.569 120.206H189.672V124.91ZM211.902 135.534C210.098 135.534 208.44 135.12 206.927 134.29C205.433 133.461 204.24 132.308 203.347 130.83C202.473 129.334 202.035 127.658 202.035 125.802C202.035 123.945 202.473 122.278 203.347 120.8C204.24 119.322 205.433 118.169 206.927 117.34C208.44 116.511 210.098 116.096 211.902 116.096C213.705 116.096 215.354 116.511 216.848 117.34C218.361 118.169 219.545 119.322 220.401 120.8C221.276 122.278 221.713 123.945 221.713 125.802C221.713 127.658 221.276 129.334 220.401 130.83C219.527 132.308 218.342 133.461 216.848 134.29C215.354 135.12 213.705 135.534 211.902 135.534ZM211.902 131.317C213.432 131.317 214.653 130.812 215.564 129.803C216.493 128.793 216.958 127.46 216.958 125.802C216.958 124.126 216.493 122.792 215.564 121.801C214.653 120.791 213.432 120.287 211.902 120.287C210.353 120.287 209.114 120.782 208.185 121.774C207.274 122.765 206.818 124.108 206.818 125.802C206.818 127.478 207.274 128.821 208.185 129.83C209.114 130.821 210.353 131.317 211.902 131.317ZM223.52 125.829C223.52 123.954 223.93 122.287 224.75 120.827C225.57 119.349 226.709 118.205 228.166 117.394C229.642 116.565 231.309 116.15 233.168 116.15C235.445 116.15 237.395 116.745 239.016 117.935C240.638 119.124 241.722 120.746 242.269 122.801H237.131C236.748 122.008 236.201 121.404 235.491 120.99C234.799 120.575 234.006 120.368 233.113 120.368C231.674 120.368 230.508 120.863 229.615 121.855C228.722 122.846 228.276 124.171 228.276 125.829C228.276 127.487 228.722 128.812 229.615 129.803C230.508 130.794 231.674 131.29 233.113 131.29C234.006 131.29 234.799 131.082 235.491 130.668C236.201 130.253 236.748 129.65 237.131 128.857H242.269C241.722 130.911 240.638 132.533 239.016 133.723C237.395 134.894 235.445 135.48 233.168 135.48C231.309 135.48 229.642 135.074 228.166 134.263C226.709 133.434 225.57 132.29 224.75 130.83C223.93 129.37 223.52 127.703 223.52 125.829ZM256.254 135.345L249.805 126.964V135.345H245.131V116.367H249.805V124.693L256.2 116.367H261.693L254.259 125.666L261.966 135.345H256.254ZM89.3988 145.352C89.3988 146.085 89.2285 146.758 88.8886 147.371C88.5487 147.971 88.026 148.458 87.3217 148.831C86.6174 149.203 85.7428 149.389 84.698 149.389H82.7667V153.931H79.651V141.279H84.698C85.7183 141.279 86.5809 141.453 87.2852 141.802C87.9896 142.15 88.518 142.631 88.8704 143.243C89.2228 143.856 89.3988 144.559 89.3988 145.352ZM84.4611 146.938C85.0561 146.938 85.4997 146.8 85.7912 146.524C86.0827 146.247 86.2285 145.857 86.2285 145.352C86.2285 144.847 86.0827 144.457 85.7912 144.181C85.4997 143.904 85.0561 143.766 84.4611 143.766H82.7667V146.938H84.4611ZM106.891 151.552H110.972V153.931H103.775V141.279H106.891V151.552ZM128.273 141.279V148.849C128.273 149.606 128.461 150.188 128.838 150.597C129.214 151.005 129.767 151.21 130.496 151.21C131.225 151.21 131.783 151.005 132.172 150.597C132.56 150.188 132.755 149.606 132.755 148.849V141.279H135.871V148.831C135.871 149.96 135.628 150.915 135.142 151.696C134.656 152.477 134 153.066 133.174 153.462C132.36 153.859 131.449 154.057 130.441 154.057C129.433 154.057 128.528 153.865 127.726 153.48C126.937 153.084 126.311 152.495 125.85 151.714C125.388 150.921 125.157 149.96 125.157 148.831V141.279H128.273ZM165.297 141.279V153.931H162.182V146.343L159.321 153.931H156.807L153.928 146.325V153.931H150.812V141.279H154.493L158.082 150.038L161.635 141.279H165.297ZM188.036 147.443C188.777 147.599 189.372 147.965 189.821 148.542C190.271 149.107 190.495 149.756 190.495 150.489C190.495 151.546 190.119 152.387 189.366 153.012C188.625 153.625 187.586 153.931 186.25 153.931H180.292V141.279H186.05C187.349 141.279 188.364 141.573 189.092 142.162C189.834 142.751 190.204 143.55 190.204 144.559C190.204 145.304 190.003 145.923 189.602 146.415C189.214 146.908 188.691 147.251 188.036 147.443ZM183.408 146.397H185.448C185.958 146.397 186.347 146.289 186.614 146.073C186.894 145.845 187.033 145.514 187.033 145.082C187.033 144.649 186.894 144.319 186.614 144.09C186.347 143.862 185.958 143.748 185.448 143.748H183.408V146.397ZM185.703 151.444C186.226 151.444 186.627 151.33 186.906 151.101C187.197 150.861 187.343 150.519 187.343 150.074C187.343 149.63 187.192 149.281 186.888 149.029C186.596 148.776 186.19 148.65 185.667 148.65H183.408V151.444H185.703ZM208.172 141.279V153.931H205.057V141.279H208.172ZM234.626 153.931H231.51L226.299 146.127V153.931H223.184V141.279H226.299L231.51 149.119V141.279H234.626V153.931ZM258.129 145.28C257.899 144.859 257.565 144.541 257.127 144.325C256.702 144.097 256.198 143.982 255.615 143.982C254.607 143.982 253.799 144.313 253.192 144.974C252.584 145.622 252.281 146.494 252.281 147.587C252.281 148.752 252.597 149.666 253.228 150.326C253.872 150.975 254.752 151.3 255.87 151.3C256.635 151.3 257.279 151.107 257.801 150.723C258.336 150.338 258.724 149.786 258.968 149.065H255.014V146.794H261.792V149.66C261.561 150.429 261.166 151.144 260.607 151.804C260.061 152.465 259.362 153 258.512 153.408C257.662 153.817 256.702 154.021 255.633 154.021C254.37 154.021 253.24 153.751 252.244 153.21C251.26 152.657 250.489 151.894 249.93 150.921C249.384 149.948 249.11 148.837 249.11 147.587C249.11 146.337 249.384 145.226 249.93 144.253C250.489 143.267 251.26 142.504 252.244 141.964C253.228 141.411 254.352 141.135 255.615 141.135C257.145 141.135 258.433 141.501 259.478 142.234C260.534 142.967 261.233 143.982 261.573 145.28H258.129Z" fill="#7C4032"/>
<path d="M26.7398 118.627H28.4533V120.32C28.4538 120.776 28.6374 121.213 28.9637 121.535C29.2901 121.857 29.7326 122.039 30.1941 122.039H31.994C32.4554 122.039 32.898 121.857 33.2243 121.535C33.5506 121.213 33.7342 120.776 33.7347 120.32V118.627H35.4482C35.9097 118.627 36.352 118.445 36.6783 118.123C37.0046 117.801 37.1882 117.364 37.189 116.908V115.13C37.1882 114.674 37.0046 114.238 36.6783 113.915C36.352 113.593 35.9097 113.412 35.4482 113.411H33.7347V111.719C33.7342 111.263 33.5506 110.826 33.2243 110.504C32.898 110.182 32.4554 110 31.994 110H30.1941C29.7326 110 29.2901 110.182 28.9637 110.504C28.6374 110.826 28.4538 111.263 28.4533 111.719V113.411H26.7398C26.2784 113.412 25.8362 113.593 25.5101 113.915C25.1839 114.238 25.0005 114.675 25 115.13V116.908C25.0005 117.364 25.1839 117.801 25.5101 118.123C25.8362 118.445 26.2784 118.627 26.7398 118.627ZM26.3297 115.13C26.3302 115.023 26.3736 114.921 26.4505 114.845C26.5273 114.769 26.6314 114.727 26.7398 114.727H29.7859V111.719C29.7859 111.612 29.829 111.509 29.9059 111.433C29.9828 111.357 30.0871 111.314 30.196 111.313H31.994C32.1028 111.314 32.2071 111.357 32.284 111.433C32.3609 111.509 32.404 111.612 32.404 111.719V114.727H35.4482C35.5021 114.727 35.5554 114.738 35.6051 114.758C35.6549 114.778 35.7001 114.808 35.7382 114.846C35.7763 114.883 35.8065 114.928 35.8271 114.977C35.8477 115.026 35.8583 115.079 35.8583 115.132V116.908C35.8583 117.016 35.8151 117.119 35.7382 117.195C35.6614 117.271 35.5571 117.314 35.4482 117.314H32.404V120.32C32.404 120.373 32.3934 120.426 32.3728 120.475C32.3522 120.524 32.322 120.569 32.2839 120.606C32.2458 120.644 32.2006 120.674 32.1509 120.694C32.1011 120.714 32.0478 120.725 31.994 120.725H30.1941C30.0856 120.724 29.9818 120.681 29.9053 120.606C29.8288 120.53 29.7859 120.427 29.7859 120.32V117.314H26.7398C26.631 117.314 26.5267 117.271 26.4498 117.195C26.3729 117.119 26.3297 117.016 26.3297 116.908V115.13Z" fill="#7C4032"/>
<path d="M70.5503 130.595L64.8964 128.252V130.291C64.866 130.282 64.8344 130.277 64.8025 130.276H61.0076V126.001C61.0074 125.63 60.8577 125.273 60.5915 125.01C60.3253 124.747 59.9643 124.599 59.5878 124.599H56.8177C56.4413 124.6 56.0804 124.748 55.8143 125.01C55.5481 125.273 55.3984 125.63 55.3978 126.001V126.02H52.3622C49.3923 126.023 46.5451 127.19 44.4451 129.264C42.3451 131.339 41.1639 134.151 41.1604 137.084V142.393H41.1407C40.7643 142.394 40.4034 142.542 40.1373 142.805C39.8711 143.067 39.7213 143.424 39.7209 143.796V146.497C39.7213 146.869 39.8711 147.226 40.1373 147.488C40.4034 147.751 40.7643 147.899 41.1407 147.9H41.1566V147.936C41.1561 148.436 40.9547 148.916 40.5965 149.27C40.2383 149.624 39.7526 149.823 39.246 149.823H37.6507C37.1442 149.823 36.6585 149.624 36.3003 149.27C35.9421 148.916 35.7406 148.436 35.7401 147.936H35.7552C36.1316 147.935 36.4924 147.788 36.7586 147.525C37.0247 147.262 37.1744 146.905 37.175 146.534V143.831C37.1744 143.459 37.0247 143.103 36.7586 142.84C36.4924 142.577 36.1316 142.429 35.7552 142.428H35.7401V129.783H35.7552C36.1316 129.783 36.4924 129.635 36.7586 129.372C37.0247 129.109 37.1744 128.753 37.175 128.381V125.645C37.1747 125.273 37.025 124.916 36.7589 124.653C36.4926 124.39 36.1316 124.243 35.7552 124.242H26.433C26.0565 124.243 25.6956 124.39 25.4293 124.653C25.1631 124.916 25.0135 125.273 25.0132 125.645V128.381C25.0137 128.753 25.1635 129.109 25.4296 129.372C25.6958 129.635 26.0566 129.783 26.433 129.783H26.448V142.428H26.433C26.0566 142.429 25.6958 142.577 25.4296 142.84C25.1635 143.103 25.0137 143.459 25.0132 143.831V146.533C25.0137 146.904 25.1635 147.261 25.4296 147.524C25.6958 147.787 26.0566 147.934 26.433 147.935H26.448C26.4513 150.869 27.6326 153.681 29.7328 155.756C31.833 157.83 34.6806 158.997 37.6507 159H39.246C42.2165 158.998 45.0647 157.831 47.1654 155.757C49.2662 153.683 50.4481 150.87 50.4515 147.936V147.9H50.4656C50.8421 147.9 51.2031 147.752 51.4693 147.489C51.7355 147.226 51.8852 146.869 51.8854 146.497V143.796C51.8852 143.424 51.7355 143.067 51.4693 142.804C51.2031 142.541 50.8421 142.393 50.4656 142.393H50.4515V137.084C50.4523 136.584 50.6538 136.104 51.0119 135.75C51.3701 135.397 51.8556 135.198 52.3622 135.197H55.3978V135.211C55.3977 135.271 55.4017 135.331 55.4101 135.39C55.4543 135.728 55.6215 136.038 55.8805 136.263C56.1395 136.489 56.4727 136.613 56.8177 136.613H59.5878C59.9643 136.613 60.3253 136.465 60.5915 136.202C60.8577 135.939 61.0074 135.583 61.0076 135.211V130.937H64.7979C64.8297 130.936 64.8613 130.931 64.8917 130.922V132.938L70.5503 130.595ZM42.492 137.083C42.4949 134.498 43.5357 132.02 45.3861 130.192C47.2364 128.364 49.7451 127.336 52.3622 127.332H55.3978V130.28H52.3622C50.5357 130.282 48.7846 130.999 47.4932 132.275C46.2017 133.551 45.4753 135.28 45.4733 137.084V142.393H42.4901L42.492 137.083ZM37.6507 151.136H39.246C40.1051 151.135 40.9287 150.798 41.5362 150.198C42.1436 149.598 42.4853 148.784 42.4863 147.936V147.9H45.4695V147.936C45.4678 149.566 44.8116 151.128 43.6448 152.281C42.478 153.433 40.8961 154.081 39.246 154.083H37.6507C36.0006 154.081 34.4185 153.433 33.2516 152.281C32.0847 151.128 31.4283 149.566 31.4263 147.936H34.4095C34.4105 148.785 34.7523 149.598 35.36 150.198C35.9677 150.798 36.7915 151.136 37.6507 151.136ZM34.4095 142.428H31.4263V129.783H34.4095V142.428ZM26.3439 128.381V125.645C26.3438 125.621 26.3531 125.598 26.3697 125.581C26.3863 125.563 26.409 125.553 26.433 125.552H35.7552C35.78 125.552 35.8039 125.562 35.8215 125.579C35.8391 125.596 35.849 125.62 35.849 125.645V128.381C35.8478 128.405 35.8374 128.427 35.8199 128.443C35.8024 128.46 35.7792 128.469 35.7552 128.469H26.433C26.4097 128.468 26.3877 128.458 26.3712 128.442C26.3548 128.426 26.345 128.404 26.3439 128.381ZM27.7787 129.783H30.7619V142.428H27.7787V129.783ZM26.433 146.621C26.409 146.619 26.3863 146.609 26.3697 146.592C26.3531 146.575 26.3438 146.552 26.3439 146.528V143.831C26.345 143.808 26.3548 143.786 26.3712 143.77C26.3877 143.753 26.4097 143.744 26.433 143.743H35.7552C35.7792 143.743 35.8024 143.752 35.8199 143.768C35.8374 143.785 35.8478 143.807 35.849 143.831V146.533C35.849 146.557 35.8391 146.581 35.8215 146.598C35.8039 146.616 35.78 146.625 35.7552 146.625H26.433V146.621ZM49.1218 147.936C49.1188 150.521 48.0778 152.999 46.227 154.827C44.3763 156.655 41.8671 157.684 39.2498 157.687H37.6545C35.0372 157.684 32.5279 156.655 30.6772 154.827C28.8265 152.999 27.7854 150.521 27.7825 147.936H30.7619C30.7639 149.74 31.4903 151.469 32.7818 152.745C34.0733 154.021 35.8243 154.738 37.6507 154.74H39.246C41.0725 154.738 42.8235 154.021 44.115 152.745C45.4065 151.469 46.1329 149.74 46.1349 147.936V147.9H49.1181L49.1218 147.936ZM50.4656 143.708C50.4897 143.707 50.5129 143.717 50.5303 143.733C50.5478 143.749 50.5582 143.772 50.5594 143.796V146.497C50.5594 146.522 50.5495 146.546 50.5319 146.563C50.5144 146.58 50.4905 146.59 50.4656 146.59H41.1407C41.1166 146.589 41.0939 146.579 41.0773 146.561C41.0607 146.544 41.0515 146.521 41.0515 146.497V143.796C41.0527 143.773 41.0624 143.751 41.0789 143.735C41.0954 143.718 41.1174 143.709 41.1407 143.708H50.4619H50.4656ZM52.3622 133.883C51.503 133.884 50.6794 134.221 50.072 134.821C49.4645 135.421 49.1228 136.235 49.1218 137.083V142.392H46.1386V137.084C46.1403 135.454 46.7966 133.892 47.9634 132.739C49.1301 131.587 50.7121 130.939 52.3622 130.937H55.3978V133.884L52.3622 133.883ZM59.6817 135.207C59.6817 135.232 59.6718 135.255 59.6542 135.273C59.6366 135.29 59.6127 135.3 59.5878 135.3H56.8177C56.7936 135.299 56.771 135.288 56.7543 135.271C56.7378 135.254 56.7285 135.231 56.7285 135.207V126.001C56.7297 125.978 56.7394 125.957 56.7559 125.94C56.7724 125.924 56.7944 125.915 56.8177 125.913H59.5878C59.6119 125.913 59.6352 125.923 59.6526 125.939C59.6701 125.955 59.6805 125.978 59.6817 126.001V135.211V135.207ZM66.2299 130.227L67.1158 130.598L66.2299 130.969V130.227Z" fill="#7C4032"/>
<path d="M31.0943 127.703C31.138 127.703 31.1813 127.695 31.2216 127.678C31.262 127.662 31.2987 127.637 31.3295 127.607C31.3604 127.576 31.3848 127.54 31.4015 127.5C31.4181 127.46 31.4266 127.417 31.4265 127.374V126.658C31.4265 126.571 31.3915 126.487 31.3292 126.426C31.2669 126.364 31.1824 126.33 31.0943 126.33C31.0062 126.33 30.9217 126.364 30.8594 126.426C30.7971 126.487 30.7621 126.571 30.7621 126.658V127.374C30.762 127.417 30.7705 127.46 30.7871 127.5C30.8038 127.54 30.8282 127.576 30.8591 127.607C30.8899 127.637 30.9266 127.662 30.9669 127.678C31.0073 127.695 31.0506 127.703 31.0943 127.703Z" fill="#7C4032"/>
<path d="M28.4197 127.703C28.4638 127.703 28.5076 127.695 28.5483 127.678C28.5891 127.661 28.6261 127.637 28.6572 127.606C28.6883 127.575 28.7128 127.538 28.7294 127.498C28.746 127.457 28.7543 127.414 28.7538 127.371V126.654C28.7492 126.57 28.7122 126.491 28.6503 126.433C28.5884 126.375 28.5064 126.342 28.4211 126.342C28.3358 126.342 28.2538 126.375 28.1919 126.433C28.13 126.491 28.093 126.57 28.0884 126.654V127.371C28.0885 127.456 28.1221 127.538 28.1823 127.599C28.2128 127.631 28.2495 127.657 28.2903 127.675C28.331 127.693 28.375 127.702 28.4197 127.703Z" fill="#7C4032"/>
<path d="M33.7685 127.703C33.8136 127.703 33.8582 127.693 33.8995 127.675C33.9408 127.657 33.978 127.631 34.0088 127.599C34.0689 127.537 34.1025 127.456 34.1026 127.371V126.654C34.0981 126.57 34.0611 126.491 33.9992 126.433C33.9373 126.375 33.8553 126.342 33.77 126.342C33.6847 126.342 33.6026 126.375 33.5407 126.433C33.4788 126.491 33.4418 126.57 33.4373 126.654V127.371C33.4368 127.414 33.445 127.457 33.4614 127.497C33.4778 127.537 33.5021 127.574 33.5329 127.605C33.5636 127.636 33.6003 127.66 33.6408 127.677C33.6812 127.694 33.7246 127.703 33.7685 127.703Z" fill="#7C4032"/>
<path d="M31.0943 145.833C31.1379 145.833 31.1812 145.825 31.2216 145.808C31.2619 145.792 31.2986 145.767 31.3295 145.737C31.3603 145.707 31.3848 145.67 31.4014 145.63C31.4181 145.591 31.4266 145.548 31.4265 145.505V144.788C31.4265 144.701 31.3915 144.618 31.3292 144.556C31.2669 144.495 31.1824 144.46 31.0943 144.46C31.0062 144.46 30.9217 144.495 30.8594 144.556C30.7971 144.618 30.7621 144.701 30.7621 144.788V145.505C30.762 145.548 30.7705 145.591 30.7871 145.63C30.8038 145.67 30.8282 145.707 30.8591 145.737C30.89 145.767 30.9267 145.792 30.967 145.808C31.0074 145.825 31.0506 145.833 31.0943 145.833Z" fill="#7C4032"/>
<path d="M28.4197 145.833C28.4635 145.833 28.5069 145.825 28.5474 145.808C28.5879 145.792 28.6248 145.768 28.6558 145.737C28.6869 145.707 28.7115 145.671 28.7283 145.631C28.7451 145.591 28.7538 145.548 28.7538 145.505V144.788C28.7492 144.704 28.7122 144.625 28.6503 144.567C28.5884 144.509 28.5064 144.477 28.4211 144.477C28.3358 144.477 28.2538 144.509 28.1919 144.567C28.13 144.625 28.093 144.704 28.0884 144.788V145.505C28.0884 145.592 28.1233 145.675 28.1854 145.736C28.2475 145.798 28.3318 145.833 28.4197 145.833Z" fill="#7C4032"/>
<path d="M33.7685 145.833C33.8123 145.833 33.8557 145.825 33.8962 145.808C33.9367 145.792 33.9736 145.768 34.0046 145.737C34.0357 145.707 34.0603 145.671 34.0772 145.631C34.0939 145.591 34.1026 145.548 34.1026 145.505V144.788C34.098 144.704 34.061 144.625 33.9991 144.567C33.9373 144.509 33.8552 144.477 33.7699 144.477C33.6846 144.477 33.6026 144.509 33.5407 144.567C33.4788 144.625 33.4418 144.704 33.4373 144.788V145.505C33.4373 145.592 33.4721 145.675 33.5343 145.736C33.5963 145.798 33.6806 145.833 33.7685 145.833Z" fill="#7C4032"/>
<path d="M45.8052 144.46C45.7198 144.46 45.6377 144.492 45.5758 144.55C45.5139 144.608 45.4771 144.687 45.473 144.772C45.4725 144.777 45.4725 144.783 45.473 144.788V145.505C45.4725 145.51 45.4725 145.516 45.473 145.521C45.4752 145.608 45.5124 145.691 45.5762 145.751C45.6401 145.811 45.7255 145.843 45.8136 145.841C45.9018 145.839 45.9853 145.802 46.046 145.739C46.1068 145.676 46.1396 145.592 46.1374 145.505V144.788C46.1374 144.745 46.1288 144.703 46.1121 144.663C46.0954 144.623 46.0709 144.587 46.0401 144.556C46.0093 144.526 45.9726 144.502 45.9323 144.485C45.892 144.469 45.8488 144.46 45.8052 144.46Z" fill="#7C4032"/>
<path d="M43.1302 144.46C43.0866 144.46 43.0434 144.469 43.0031 144.485C42.9628 144.502 42.9262 144.526 42.8953 144.556C42.8644 144.587 42.84 144.623 42.8233 144.663C42.8066 144.702 42.798 144.745 42.798 144.788V145.505C42.8025 145.589 42.8396 145.668 42.9015 145.726C42.9634 145.784 43.0454 145.816 43.1307 145.816C43.216 145.816 43.298 145.784 43.3599 145.726C43.4218 145.668 43.4588 145.589 43.4633 145.505V144.788C43.4633 144.745 43.4547 144.702 43.438 144.662C43.4212 144.623 43.3967 144.586 43.3657 144.556C43.3348 144.525 43.298 144.501 43.2576 144.485C43.2172 144.468 43.1739 144.46 43.1302 144.46Z" fill="#7C4032"/>
<path d="M48.4799 144.46C48.4362 144.46 48.393 144.469 48.3528 144.485C48.3125 144.502 48.2758 144.526 48.245 144.556C48.2141 144.587 48.1896 144.623 48.173 144.663C48.1563 144.702 48.1477 144.745 48.1477 144.788V145.505C48.1522 145.589 48.1892 145.668 48.2511 145.726C48.313 145.784 48.3951 145.816 48.4804 145.816C48.5657 145.816 48.6476 145.784 48.7095 145.726C48.7714 145.668 48.8085 145.589 48.813 145.505V144.788C48.813 144.745 48.8044 144.702 48.7876 144.662C48.7709 144.623 48.7463 144.586 48.7153 144.556C48.6844 144.525 48.6477 144.501 48.6073 144.485C48.5668 144.468 48.5236 144.46 48.4799 144.46Z" fill="#7C4032"/>
<path d="M58.6128 130.28C58.5972 130.279 58.5815 130.279 58.5659 130.28H57.8442C57.8286 130.279 57.8129 130.279 57.7973 130.28C57.7185 130.296 57.6482 130.34 57.5997 130.403C57.5511 130.467 57.5275 130.545 57.5332 130.625C57.539 130.704 57.5737 130.778 57.6309 130.834C57.688 130.89 57.7639 130.924 57.8442 130.929H58.5696C58.65 130.924 58.7258 130.89 58.783 130.834C58.8402 130.778 58.8749 130.704 58.8806 130.625C58.8864 130.545 58.8627 130.467 58.8142 130.403C58.7656 130.34 58.6954 130.296 58.6165 130.28H58.6128Z" fill="#7C4032"/>
<path d="M58.6952 132.944C58.6542 132.927 58.6101 132.918 58.5657 132.918H57.844C57.7988 132.915 57.7536 132.922 57.7112 132.938C57.6687 132.953 57.63 132.977 57.5971 133.008C57.5643 133.038 57.5381 133.075 57.5203 133.116C57.5024 133.158 57.4932 133.202 57.4932 133.246C57.4932 133.291 57.5024 133.335 57.5203 133.376C57.5381 133.417 57.5643 133.454 57.5971 133.485C57.63 133.516 57.6687 133.54 57.7112 133.555C57.7536 133.571 57.7988 133.577 57.844 133.575H58.5694C58.6131 133.575 58.6564 133.566 58.6968 133.55C58.7371 133.533 58.7738 133.509 58.8046 133.479C58.8355 133.448 58.8599 133.412 58.8766 133.372C58.8932 133.332 58.9017 133.289 58.9016 133.246C58.9016 133.215 58.8968 133.183 58.8876 133.153C58.8733 133.106 58.8485 133.063 58.8153 133.027C58.782 132.991 58.741 132.962 58.6952 132.944Z" fill="#7C4032"/>
<path d="M58.5658 127.634H57.8441C57.7854 127.634 57.7276 127.649 57.6771 127.679C57.6273 127.707 57.5858 127.748 57.5567 127.796C57.5276 127.845 57.5118 127.901 57.511 127.957C57.511 128.044 57.5461 128.128 57.6086 128.19C57.6711 128.252 57.7558 128.286 57.8441 128.286H58.5696C58.6547 128.282 58.7349 128.245 58.7936 128.184C58.8523 128.123 58.885 128.042 58.885 127.958C58.885 127.873 58.8523 127.792 58.7936 127.731C58.7349 127.67 58.6547 127.634 58.5696 127.629L58.5658 127.634Z" fill="#7C4032"/>
</svg>
