<svg width="114" height="18" viewBox="0 0 114 18" fill="none" xmlns="http://www.w3.org/2000/svg">
<path d="M15.9626 6.20688L11.4995 5.55825L9.50436 1.51352C9.44987 1.40278 9.36022 1.31313 9.24948 1.25864C8.97174 1.12153 8.63424 1.23579 8.49537 1.51352L6.50026 5.55825L2.03717 6.20688C1.91412 6.22446 1.80162 6.28246 1.71549 6.37036C1.61136 6.47738 1.55398 6.62137 1.55596 6.77068C1.55794 6.91999 1.61911 7.06241 1.72604 7.16664L4.95514 10.3149L4.19225 14.7604C4.17436 14.8638 4.1858 14.9702 4.22528 15.0674C4.26476 15.1646 4.3307 15.2489 4.41561 15.3105C4.50053 15.3722 4.60102 15.4089 4.7057 15.4163C4.81039 15.4238 4.91507 15.4018 5.00787 15.3528L8.99987 13.2539L12.9919 15.3528C13.1008 15.4108 13.2274 15.4301 13.3487 15.409C13.6546 15.3563 13.8602 15.0663 13.8075 14.7604L13.0446 10.3149L16.2737 7.16664C16.3616 7.08051 16.4196 6.96801 16.4372 6.84496C16.4846 6.53735 16.2702 6.25258 15.9626 6.20688V6.20688Z" fill="#F3CE5E"/>
<path d="M39.9626 6.20688L35.4995 5.55825L33.5044 1.51352C33.4499 1.40278 33.3602 1.31313 33.2495 1.25864C32.9717 1.12153 32.6342 1.23579 32.4954 1.51352L30.5003 5.55825L26.0372 6.20688C25.9141 6.22446 25.8016 6.28246 25.7155 6.37036C25.6114 6.47738 25.554 6.62137 25.556 6.77068C25.5579 6.91999 25.6191 7.06241 25.726 7.16664L28.9551 10.3149L28.1922 14.7604C28.1744 14.8638 28.1858 14.9702 28.2253 15.0674C28.2648 15.1646 28.3307 15.2489 28.4156 15.3105C28.5005 15.3722 28.601 15.4089 28.7057 15.4163C28.8104 15.4238 28.9151 15.4018 29.0079 15.3528L32.9999 13.2539L36.9919 15.3528C37.1008 15.4108 37.2274 15.4301 37.3487 15.409C37.6546 15.3563 37.8602 15.0663 37.8075 14.7604L37.0446 10.3149L40.2737 7.16664C40.3616 7.08051 40.4196 6.96801 40.4372 6.84496C40.4846 6.53735 40.2702 6.25258 39.9626 6.20688V6.20688Z" fill="#F3CE5E"/>
<path d="M63.9626 6.20688L59.4995 5.55825L57.5044 1.51352C57.4499 1.40278 57.3602 1.31313 57.2495 1.25864C56.9717 1.12153 56.6342 1.23579 56.4954 1.51352L54.5003 5.55825L50.0372 6.20688C49.9141 6.22446 49.8016 6.28246 49.7155 6.37036C49.6114 6.47738 49.554 6.62137 49.556 6.77068C49.5579 6.91999 49.6191 7.06241 49.726 7.16664L52.9551 10.3149L52.1922 14.7604C52.1744 14.8638 52.1858 14.9702 52.2253 15.0674C52.2648 15.1646 52.3307 15.2489 52.4156 15.3105C52.5005 15.3722 52.601 15.4089 52.7057 15.4163C52.8104 15.4238 52.9151 15.4018 53.0079 15.3528L56.9999 13.2539L60.9919 15.3528C61.1008 15.4108 61.2274 15.4301 61.3487 15.409C61.6546 15.3563 61.8602 15.0663 61.8075 14.7604L61.0446 10.3149L64.2737 7.16664C64.3616 7.08051 64.4196 6.96801 64.4372 6.84496C64.4846 6.53735 64.2702 6.25258 63.9626 6.20688V6.20688Z" fill="#F3CE5E"/>
<path d="M87.9626 6.20688L83.4995 5.55825L81.5044 1.51352C81.4499 1.40278 81.3602 1.31313 81.2495 1.25864C80.9717 1.12153 80.6342 1.23579 80.4954 1.51352L78.5003 5.55825L74.0372 6.20688C73.9141 6.22446 73.8016 6.28246 73.7155 6.37036C73.6114 6.47738 73.554 6.62137 73.556 6.77068C73.5579 6.91999 73.6191 7.06241 73.726 7.16664L76.9551 10.3149L76.1922 14.7604C76.1744 14.8638 76.1858 14.9702 76.2253 15.0674C76.2648 15.1646 76.3307 15.2489 76.4156 15.3105C76.5005 15.3722 76.601 15.4089 76.7057 15.4163C76.8104 15.4238 76.9151 15.4018 77.0079 15.3528L80.9999 13.2539L84.9919 15.3528C85.1008 15.4108 85.2274 15.4301 85.3487 15.409C85.6546 15.3563 85.8602 15.0663 85.8075 14.7604L85.0446 10.3149L88.2737 7.16664C88.3616 7.08051 88.4196 6.96801 88.4372 6.84496C88.4846 6.53735 88.2702 6.25258 87.9626 6.20688V6.20688Z" fill="#F3CE5E"/>
<path d="M111.963 6.20688L107.499 5.55825L105.504 1.51352C105.45 1.40278 105.36 1.31313 105.249 1.25864C104.972 1.12153 104.634 1.23579 104.495 1.51352L102.5 5.55825L98.0372 6.20688C97.9141 6.22446 97.8016 6.28246 97.7155 6.37036C97.6114 6.47738 97.554 6.62137 97.556 6.77068C97.5579 6.91999 97.6191 7.06241 97.726 7.16664L100.955 10.3149L100.192 14.7604C100.174 14.8638 100.186 14.9702 100.225 15.0674C100.265 15.1646 100.331 15.2489 100.416 15.3105C100.501 15.3722 100.601 15.4089 100.706 15.4163C100.81 15.4238 100.915 15.4018 101.008 15.3528L105 13.2539L108.992 15.3528C109.101 15.4108 109.227 15.4301 109.349 15.409C109.655 15.3563 109.86 15.0663 109.807 14.7604L109.045 10.3149L112.274 7.16664C112.362 7.08051 112.42 6.96801 112.437 6.84496C112.485 6.53735 112.27 6.25258 111.963 6.20688V6.20688Z" fill="#F3CE5E"/>
</svg>
