<svg width="288" height="269" viewBox="0 0 288 269" fill="none" xmlns="http://www.w3.org/2000/svg">
<path d="M0 32C0 20.799 0 15.1984 2.17987 10.9202C4.09734 7.15695 7.15695 4.09734 10.9202 2.17987C15.1984 0 20.7989 0 32 0H256C267.201 0 272.802 0 277.08 2.17987C280.843 4.09734 283.903 7.15695 285.82 10.9202C288 15.1984 288 20.7989 288 32V237C288 248.201 288 253.802 285.82 258.08C283.903 261.843 280.843 264.903 277.08 266.82C272.802 269 267.201 269 256 269H32C20.7989 269 15.1984 269 10.9202 266.82C7.15695 264.903 4.09734 261.843 2.17987 258.08C0 253.802 0 248.201 0 237V32Z" fill="white"/>
<path d="M59.9924 122.55C59.9659 122.537 59.9385 122.526 59.9104 122.518C58.6139 122.011 57.2349 121.751 55.844 121.752H54.6881C54.6117 121.752 54.5361 121.767 54.4655 121.797C54.3949 121.826 54.3308 121.869 54.2769 121.923C54.2228 121.978 54.18 122.042 54.1508 122.114C54.1217 122.185 54.1067 122.261 54.1068 122.338V137.934C54.1125 138.085 54.1762 138.228 54.2845 138.333C54.3928 138.438 54.5373 138.497 54.6877 138.497C54.8381 138.497 54.9826 138.438 55.0909 138.333C55.1992 138.228 55.2629 138.085 55.2685 137.934V122.922H55.8424C56.9725 122.922 58.0947 123.112 59.1619 123.487V134.513C59.1623 134.998 59.3538 135.463 59.6945 135.807C60.035 136.15 60.4969 136.343 60.9786 136.343H65.9427V138.82H61.7059C61.6277 138.817 61.5498 138.83 61.4768 138.858C61.4038 138.886 61.3371 138.929 61.2808 138.984C61.2245 139.038 61.1797 139.104 61.1491 139.176C61.1185 139.249 61.1028 139.327 61.1028 139.405C61.1028 139.484 61.1185 139.562 61.1491 139.634C61.1797 139.707 61.2245 139.772 61.2808 139.827C61.3371 139.881 61.4038 139.924 61.4768 139.952C61.5498 139.98 61.6277 139.993 61.7059 139.99H65.9427V142.402H59.9178C59.8397 142.399 59.7618 142.412 59.6888 142.44C59.6157 142.468 59.549 142.511 59.4927 142.565C59.4364 142.62 59.3917 142.685 59.3611 142.758C59.3305 142.83 59.3147 142.908 59.3147 142.987C59.3147 143.066 59.3305 143.143 59.3611 143.216C59.3917 143.288 59.4364 143.354 59.4927 143.408C59.549 143.463 59.6157 143.506 59.6888 143.534C59.7618 143.562 59.8397 143.575 59.9178 143.572H66.524C66.6779 143.572 66.8256 143.51 66.9344 143.401C67.0433 143.291 67.1044 143.142 67.1044 142.987V133.094C67.102 130.822 66.423 128.602 65.1552 126.723C63.8874 124.843 62.089 123.389 59.9924 122.55ZM60.9762 135.173C60.8022 135.173 60.6354 135.103 60.5124 134.979C60.3894 134.855 60.3203 134.687 60.3203 134.512V123.981C62.007 124.822 63.4269 126.121 64.4202 127.731C65.4135 129.341 65.9408 131.198 65.9427 133.094V135.173H60.9762Z" fill="#7C4032"/>
<path d="M27.9216 138.891C26.7505 138.891 25.6056 139.241 24.6318 139.896C23.6579 140.552 22.899 141.483 22.4508 142.573C22.0026 143.662 21.8853 144.861 22.1138 146.018C22.3423 147.175 22.9063 148.238 23.7344 149.072C24.5626 149.906 25.6177 150.473 26.7664 150.704C27.9151 150.934 29.1057 150.816 30.1877 150.364C31.2698 149.913 32.1946 149.149 32.8453 148.168C33.496 147.187 33.8433 146.034 33.8433 144.855C33.8416 143.274 33.2171 141.758 32.107 140.64C30.9968 139.522 29.4916 138.893 27.9216 138.891ZM27.9216 149.648C26.9802 149.648 26.0599 149.367 25.2772 148.84C24.4944 148.314 23.8843 147.565 23.524 146.689C23.1638 145.813 23.0695 144.849 23.2532 143.92C23.4368 142.99 23.8902 142.136 24.5559 141.465C25.2215 140.795 26.0697 140.338 26.993 140.153C27.9164 139.968 28.8734 140.063 29.7432 140.426C30.613 140.789 31.3563 141.403 31.8794 142.192C32.4024 142.98 32.6816 143.907 32.6816 144.855C32.6803 146.126 32.1784 147.344 31.286 148.243C30.3936 149.142 29.1837 149.647 27.9216 149.648Z" fill="#7C4032"/>
<path d="M27.9218 143.274C27.6113 143.274 27.3077 143.366 27.0496 143.54C26.7914 143.714 26.5901 143.961 26.4713 144.25C26.3525 144.539 26.3214 144.856 26.382 145.163C26.4426 145.47 26.5921 145.752 26.8116 145.973C27.0312 146.194 27.311 146.344 27.6155 146.405C27.92 146.466 28.2357 146.435 28.5226 146.315C28.8095 146.196 29.0547 145.993 29.2272 145.733C29.3997 145.473 29.4917 145.167 29.4917 144.855C29.4913 144.435 29.3258 144.034 29.0315 143.737C28.7371 143.441 28.338 143.274 27.9218 143.274ZM27.9218 145.266C27.8407 145.266 27.7615 145.242 27.6941 145.196C27.6266 145.151 27.5741 145.086 27.5431 145.011C27.512 144.936 27.5039 144.853 27.5197 144.773C27.5356 144.692 27.5746 144.619 27.632 144.561C27.6892 144.503 27.7623 144.464 27.8418 144.448C27.9213 144.432 28.0038 144.44 28.0787 144.472C28.1535 144.503 28.2176 144.556 28.2626 144.624C28.3077 144.692 28.3317 144.771 28.3317 144.853C28.3317 144.963 28.2885 145.068 28.2116 145.145C28.1347 145.222 28.0305 145.266 27.9218 145.266Z" fill="#7C4032"/>
<path d="M53.1538 138.891C51.9826 138.891 50.8378 139.241 49.8639 139.896C48.8901 140.552 48.1311 141.483 47.6829 142.573C47.2348 143.662 47.1175 144.861 47.3459 146.018C47.5745 147.175 48.1384 148.238 48.9666 149.072C49.7947 149.906 50.8499 150.473 51.9986 150.704C53.1473 150.934 54.3379 150.816 55.42 150.364C56.502 149.913 57.4268 149.149 58.0775 148.168C58.7282 147.187 59.0754 146.034 59.0754 144.855C59.0737 143.274 58.4493 141.758 57.3391 140.64C56.229 139.522 54.7238 138.893 53.1538 138.891ZM53.1538 149.648C52.2122 149.649 51.2914 149.369 50.508 148.843C49.7246 148.317 49.1137 147.568 48.7527 146.693C48.3917 145.817 48.2967 144.853 48.4798 143.923C48.6629 142.992 49.1159 142.138 49.7814 141.467C50.4469 140.796 51.295 140.339 52.2184 140.154C53.1419 139.968 54.0993 140.063 54.9693 140.426C55.8394 140.788 56.5831 141.403 57.1063 142.191C57.6295 142.979 57.9089 143.906 57.9089 144.855C57.9076 146.125 57.4063 147.343 56.515 148.241C55.6237 149.14 54.415 149.646 53.1538 149.648Z" fill="#7C4032"/>
<path d="M53.154 143.274C52.8435 143.274 52.5399 143.366 52.2817 143.54C52.0235 143.714 51.8223 143.961 51.7035 144.25C51.5847 144.539 51.5536 144.856 51.6142 145.163C51.6747 145.47 51.8243 145.752 52.0438 145.973C52.2634 146.194 52.5431 146.344 52.8476 146.405C53.1522 146.466 53.4679 146.435 53.7547 146.315C54.0416 146.196 54.2868 145.993 54.4593 145.733C54.6318 145.473 54.7239 145.167 54.7239 144.855C54.7235 144.435 54.5579 144.034 54.2636 143.737C53.9693 143.441 53.5702 143.274 53.154 143.274ZM53.154 145.266C53.0729 145.266 52.9936 145.242 52.9262 145.196C52.8588 145.151 52.8063 145.086 52.7753 145.011C52.7442 144.936 52.7361 144.853 52.7519 144.773C52.7678 144.692 52.8068 144.619 52.8641 144.561C52.9214 144.503 52.9945 144.464 53.074 144.448C53.1535 144.432 53.2359 144.44 53.3108 144.472C53.3857 144.503 53.4498 144.556 53.4948 144.624C53.5398 144.692 53.5639 144.771 53.5639 144.853C53.5639 144.963 53.5207 145.068 53.4438 145.145C53.3669 145.222 53.2627 145.266 53.154 145.266Z" fill="#7C4032"/>
<path d="M46.3163 142.405H34.6903C34.6121 142.402 34.5342 142.415 34.4612 142.443C34.3882 142.471 34.3215 142.514 34.2652 142.568C34.2089 142.623 34.1641 142.689 34.1335 142.761C34.1029 142.833 34.0872 142.911 34.0872 142.99C34.0872 143.069 34.1029 143.147 34.1335 143.219C34.1641 143.292 34.2089 143.357 34.2652 143.412C34.3215 143.466 34.3882 143.509 34.4612 143.537C34.5342 143.565 34.6121 143.578 34.6903 143.575H46.3163C46.3944 143.578 46.4723 143.565 46.5453 143.537C46.6184 143.509 46.685 143.466 46.7413 143.412C46.7976 143.357 46.8424 143.292 46.873 143.219C46.9036 143.147 46.9194 143.069 46.9194 142.99C46.9194 142.911 46.9036 142.833 46.873 142.761C46.8424 142.689 46.7976 142.623 46.7413 142.568C46.685 142.514 46.6184 142.471 46.5453 142.443C46.4723 142.415 46.3944 142.402 46.3163 142.405Z" fill="#7C4032"/>
<path d="M26.8019 125.265H26.9921L28.8047 138.052C28.8102 138.133 28.8321 138.211 28.869 138.282C28.9058 138.354 28.957 138.417 29.0191 138.467C29.0812 138.518 29.153 138.555 29.2301 138.577C29.3071 138.598 29.3877 138.603 29.4668 138.592C29.5459 138.58 29.6218 138.553 29.6898 138.51C29.7578 138.468 29.8164 138.412 29.862 138.346C29.9076 138.28 29.9392 138.205 29.9548 138.126C29.9703 138.047 29.9695 137.966 29.9525 137.887L28.1661 125.265H50.95L49.0087 138.828C48.9916 138.906 48.9908 138.988 49.0064 139.067C49.022 139.146 49.0535 139.22 49.0991 139.286C49.1447 139.353 49.2033 139.408 49.2713 139.451C49.3393 139.493 49.4152 139.521 49.4943 139.532C49.5734 139.543 49.654 139.538 49.731 139.517C49.8081 139.495 49.8799 139.458 49.942 139.408C50.0042 139.357 50.0553 139.294 50.0921 139.223C50.129 139.151 50.1509 139.073 50.1564 138.993L52.124 125.264H52.315C52.469 125.263 52.6167 125.202 52.7255 125.092C52.8343 124.982 52.8955 124.833 52.8955 124.678V123.863C52.8948 123.172 52.6218 122.509 52.1363 122.02C51.6507 121.53 50.9923 121.255 50.3056 121.254H42.8451C42.6698 120.509 42.2497 119.845 41.6529 119.369C41.0562 118.894 40.3176 118.636 39.5568 118.636C38.796 118.636 38.0574 118.894 37.4607 119.369C36.8639 119.845 36.4438 120.509 36.2684 121.254H28.808C28.1212 121.255 27.4629 121.53 26.9774 122.02C26.4918 122.509 26.2188 123.172 26.2181 123.863V124.68C26.218 124.757 26.233 124.833 26.2621 124.904C26.2912 124.975 26.3339 125.039 26.3879 125.094C26.4418 125.148 26.5058 125.191 26.5763 125.221C26.6467 125.25 26.7223 125.265 26.7986 125.265H26.8019ZM39.5585 119.806C40.0095 119.807 40.4496 119.947 40.8204 120.205C41.1912 120.464 41.4753 120.83 41.6351 121.254H37.4818C37.6416 120.83 37.9257 120.464 38.2965 120.205C38.6673 119.947 39.1074 119.807 39.5585 119.806ZM27.3831 123.863C27.3836 123.482 27.5342 123.116 27.8019 122.847C28.0696 122.577 28.4326 122.426 28.8113 122.425H50.3056C50.6843 122.426 51.0473 122.578 51.315 122.847C51.5828 123.117 51.7333 123.483 51.7337 123.864V124.095H27.3848L27.3831 123.863Z" fill="#7C4032"/>
<path d="M38.6205 137.667C38.7747 137.667 38.9226 137.605 39.0315 137.495C39.1405 137.386 39.2018 137.237 39.2018 137.082C39.2018 136.926 39.1405 136.777 39.0315 136.668C38.9226 136.558 38.7747 136.496 38.6205 136.496H35.3855L36.2873 134.916L36.4677 135.572C36.5015 135.696 36.5746 135.804 36.6757 135.882C36.7769 135.96 36.9005 136.002 37.0276 136.002C37.0802 136.002 37.1327 135.994 37.1834 135.98C37.2568 135.96 37.3256 135.925 37.3857 135.877C37.4458 135.83 37.4961 135.771 37.5336 135.705C37.5712 135.638 37.5952 135.564 37.6045 135.488C37.6137 135.411 37.608 135.334 37.5875 135.26L37.0448 133.286C37.0282 133.206 36.995 133.13 36.9472 133.064C36.8994 132.998 36.8382 132.943 36.7677 132.902C36.687 132.856 36.5965 132.83 36.5037 132.825H36.4717C36.4211 132.826 36.3707 132.832 36.3217 132.845L34.3287 133.401C34.1934 133.439 34.0764 133.525 33.9991 133.643C33.9219 133.761 33.8898 133.903 33.9087 134.044C33.9276 134.184 33.9962 134.312 34.1019 134.405C34.2076 134.498 34.3432 134.55 34.4837 134.55C34.536 134.55 34.5882 134.543 34.6386 134.529L35.2682 134.354L33.8745 136.789C33.8237 136.878 33.7971 136.979 33.7974 137.082C33.7976 137.185 33.8246 137.286 33.8758 137.374C33.927 137.463 34.0005 137.537 34.0889 137.588C34.1773 137.639 34.2775 137.666 34.3795 137.666L38.6205 137.667Z" fill="#7C4032"/>
<path d="M44.9005 137.669C45.0024 137.668 45.1024 137.641 45.1906 137.59C45.2788 137.539 45.3521 137.465 45.4031 137.376C45.454 137.287 45.4809 137.187 45.4811 137.084C45.4813 136.981 45.4546 136.881 45.4039 136.792L43.2895 133.09C43.2516 133.024 43.2009 132.966 43.1405 132.919C43.0801 132.872 43.0111 132.837 42.9375 132.817C42.8639 132.797 42.7871 132.792 42.7114 132.802C42.6359 132.812 42.5629 132.837 42.4968 132.875C42.4307 132.913 42.3727 132.964 42.3262 133.025C42.2796 133.086 42.2455 133.155 42.2256 133.23C42.2057 133.304 42.2006 133.381 42.2104 133.457C42.2202 133.533 42.2448 133.607 42.2828 133.673L43.8954 136.498H42.0861L42.5616 136.012C42.6154 135.958 42.658 135.893 42.6869 135.822C42.7159 135.75 42.7306 135.674 42.7303 135.597C42.7299 135.52 42.7145 135.444 42.6849 135.373C42.6554 135.302 42.6122 135.237 42.5579 135.183C42.5036 135.129 42.4392 135.086 42.3684 135.057C42.2976 135.028 42.2218 135.013 42.1454 135.013C42.0689 135.013 41.9933 135.029 41.9227 135.059C41.8522 135.089 41.7882 135.132 41.7344 135.187L40.3062 136.644C40.2456 136.699 40.1971 136.766 40.1639 136.84C40.1307 136.915 40.1135 136.996 40.1135 137.078C40.1133 137.17 40.1353 137.261 40.1775 137.343C40.1791 137.348 40.181 137.352 40.1832 137.356L40.1915 137.369C40.2171 137.416 40.2494 137.459 40.2874 137.496L41.7581 138.963C41.8678 139.073 42.0162 139.134 42.1706 139.133C42.3251 139.132 42.4729 139.07 42.5816 138.959C42.6904 138.849 42.7511 138.699 42.7504 138.544C42.7497 138.388 42.6876 138.24 42.578 138.13L42.1131 137.668L44.9005 137.669Z" fill="#7C4032"/>
<path d="M39.1758 130.904C39.1372 131.054 39.1594 131.214 39.2374 131.348C39.3155 131.482 39.4432 131.579 39.5923 131.618L41.5599 132.131C41.6373 132.157 41.7193 132.166 41.8004 132.158C41.8816 132.149 41.96 132.124 42.0305 132.082C42.1055 132.039 42.1699 131.979 42.219 131.907C42.2208 131.903 42.2229 131.899 42.2256 131.896C42.2411 131.872 42.2548 131.848 42.2666 131.822L42.274 131.805C42.2849 131.78 42.294 131.753 42.301 131.727C42.301 131.727 42.301 131.727 42.301 131.722L42.8225 129.705C42.8441 129.63 42.8506 129.552 42.8414 129.474C42.8323 129.396 42.8078 129.321 42.7694 129.253C42.7309 129.185 42.6793 129.125 42.6176 129.078C42.5559 129.03 42.4854 128.996 42.4102 128.976C42.3349 128.956 42.2566 128.952 42.1797 128.963C42.1028 128.975 42.0289 129.002 41.9625 129.042C41.8961 129.083 41.8384 129.136 41.7929 129.2C41.7474 129.263 41.715 129.335 41.6977 129.412L41.5337 130.049L40.1358 127.616C40.0849 127.527 40.0117 127.453 39.9234 127.402C39.8352 127.351 39.7351 127.324 39.6333 127.324C39.5313 127.324 39.4311 127.351 39.3428 127.403C39.2545 127.454 39.181 127.528 39.1299 127.617L37.0082 131.313C36.9678 131.38 36.9411 131.454 36.9296 131.531C36.918 131.608 36.9219 131.687 36.9411 131.762C36.9602 131.838 36.9941 131.909 37.0409 131.971C37.0876 132.033 37.1462 132.085 37.2132 132.125C37.2803 132.164 37.3545 132.189 37.4313 132.199C37.5081 132.208 37.5862 132.203 37.6608 132.182C37.7354 132.161 37.8051 132.125 37.8658 132.076C37.9265 132.028 37.9769 131.968 38.0141 131.899L39.6333 129.078L40.5401 130.656L39.8842 130.485C39.735 130.446 39.5766 130.468 39.4438 130.547C39.311 130.626 39.2146 130.754 39.1758 130.904Z" fill="#7C4032"/>
<path d="M92.7109 142.091L87.0701 132.535H82.864V142.091H80.5816V119.215H87.4288C89.972 119.215 91.8958 119.825 93.2 121.047C94.526 122.269 95.189 123.873 95.189 125.858C95.189 127.516 94.7107 128.935 93.7543 130.113C92.8196 131.269 91.4284 132.022 89.5808 132.371L95.4498 142.091H92.7109ZM82.864 130.669H87.4614C89.2438 130.669 90.5807 130.233 91.4719 129.36C92.3849 128.487 92.8413 127.32 92.8413 125.858C92.8413 124.353 92.4066 123.196 91.5371 122.389C90.6676 121.56 89.2982 121.145 87.4288 121.145H82.864V130.669ZM107.511 142.353C105.837 142.353 104.327 141.982 102.979 141.24C101.653 140.476 100.599 139.407 99.8163 138.033C99.0555 136.636 98.6751 135.011 98.6751 133.156C98.6751 131.302 99.0663 129.687 99.8489 128.313C100.631 126.916 101.697 125.847 103.044 125.105C104.392 124.342 105.903 123.96 107.576 123.96C109.25 123.96 110.761 124.342 112.109 125.105C113.478 125.847 114.543 126.916 115.304 128.313C116.087 129.687 116.478 131.302 116.478 133.156C116.478 134.989 116.087 136.604 115.304 138C114.521 139.396 113.445 140.476 112.076 141.24C110.707 141.982 109.185 142.353 107.511 142.353ZM107.511 140.356C108.685 140.356 109.772 140.095 110.772 139.571C111.772 139.025 112.576 138.218 113.185 137.149C113.815 136.058 114.13 134.727 114.13 133.156C114.13 131.585 113.826 130.265 113.217 129.196C112.609 128.105 111.804 127.298 110.804 126.775C109.805 126.229 108.718 125.956 107.544 125.956C106.37 125.956 105.283 126.229 104.283 126.775C103.283 127.298 102.479 128.105 101.87 129.196C101.284 130.265 100.99 131.585 100.99 133.156C100.99 134.727 101.284 136.058 101.87 137.149C102.479 138.218 103.272 139.025 104.251 139.571C105.251 140.095 106.337 140.356 107.511 140.356ZM136.061 124.222V142.091H133.778V138.949C133.257 140.062 132.452 140.913 131.366 141.502C130.279 142.091 129.061 142.385 127.714 142.385C125.584 142.385 123.845 141.731 122.497 140.422C121.149 139.091 120.475 137.171 120.475 134.662V124.222H122.725V134.4C122.725 136.342 123.203 137.825 124.16 138.851C125.138 139.876 126.464 140.389 128.138 140.389C129.855 140.389 131.224 139.844 132.246 138.753C133.268 137.662 133.778 136.058 133.778 133.942V124.222H136.061ZM149.619 123.895C151.749 123.895 153.488 124.56 154.836 125.891C156.184 127.2 156.857 129.109 156.857 131.618V142.091H154.608V131.88C154.608 129.938 154.119 128.455 153.14 127.429C152.184 126.404 150.869 125.891 149.195 125.891C147.478 125.891 146.108 126.436 145.087 127.527C144.065 128.618 143.554 130.222 143.554 132.338V142.091H141.272V124.222H143.554V127.265C144.119 126.175 144.935 125.345 146 124.778C147.065 124.189 148.271 123.895 149.619 123.895ZM160.861 133.124C160.861 131.291 161.231 129.687 161.97 128.313C162.709 126.916 163.72 125.847 165.002 125.105C166.307 124.342 167.774 123.96 169.404 123.96C170.969 123.96 172.382 124.342 173.643 125.105C174.904 125.869 175.827 126.862 176.414 128.084V117.873H178.697V142.091H176.414V138.098C175.871 139.342 174.98 140.367 173.741 141.175C172.502 141.96 171.045 142.353 169.371 142.353C167.741 142.353 166.274 141.971 164.97 141.207C163.687 140.444 162.676 139.364 161.937 137.967C161.22 136.571 160.861 134.956 160.861 133.124ZM176.414 133.156C176.414 131.716 176.121 130.451 175.534 129.36C174.947 128.269 174.143 127.429 173.121 126.84C172.121 126.251 171.013 125.956 169.795 125.956C168.535 125.956 167.404 126.24 166.404 126.807C165.404 127.375 164.611 128.204 164.024 129.295C163.459 130.364 163.176 131.64 163.176 133.124C163.176 134.585 163.459 135.873 164.024 136.985C164.611 138.076 165.404 138.916 166.404 139.505C167.404 140.073 168.535 140.356 169.795 140.356C171.013 140.356 172.121 140.062 173.121 139.473C174.143 138.884 174.947 138.044 175.534 136.953C176.121 135.862 176.414 134.596 176.414 133.156ZM204.985 142.091L199.344 132.535H195.138V142.091H192.855V119.215H199.702C202.246 119.215 204.169 119.825 205.474 121.047C206.8 122.269 207.463 123.873 207.463 125.858C207.463 127.516 206.984 128.935 206.028 130.113C205.093 131.269 203.702 132.022 201.854 132.371L207.724 142.091H204.985ZM195.138 130.669H199.735C201.518 130.669 202.854 130.233 203.746 129.36C204.659 128.487 205.115 127.32 205.115 125.858C205.115 124.353 204.68 123.196 203.811 122.389C202.941 121.56 201.572 121.145 199.702 121.145H195.138V130.669ZM219.784 142.353C218.111 142.353 216.6 141.982 215.252 141.24C213.926 140.476 212.872 139.407 212.089 138.033C211.329 136.636 210.948 135.011 210.948 133.156C210.948 131.302 211.339 129.687 212.122 128.313C212.905 126.916 213.97 125.847 215.317 125.105C216.665 124.342 218.176 123.96 219.85 123.96C221.523 123.96 223.034 124.342 224.382 125.105C225.751 125.847 226.816 126.916 227.577 128.313C228.36 129.687 228.751 131.302 228.751 133.156C228.751 134.989 228.36 136.604 227.577 138C226.795 139.396 225.719 140.476 224.349 141.24C222.98 141.982 221.458 142.353 219.784 142.353ZM219.784 140.356C220.958 140.356 222.045 140.095 223.045 139.571C224.045 139.025 224.849 138.218 225.458 137.149C226.088 136.058 226.403 134.727 226.403 133.156C226.403 131.585 226.099 130.265 225.49 129.196C224.882 128.105 224.077 127.298 223.078 126.775C222.078 126.229 220.991 125.956 219.817 125.956C218.643 125.956 217.556 126.229 216.556 126.775C215.557 127.298 214.752 128.105 214.144 129.196C213.557 130.265 213.263 131.585 213.263 133.156C213.263 134.727 213.557 136.058 214.144 137.149C214.752 138.218 215.546 139.025 216.524 139.571C217.524 140.095 218.611 140.356 219.784 140.356ZM231.869 133.156C231.869 131.302 232.238 129.687 232.977 128.313C233.716 126.916 234.738 125.847 236.042 125.105C237.346 124.342 238.835 123.96 240.509 123.96C242.705 123.96 244.509 124.505 245.922 125.596C247.356 126.687 248.28 128.171 248.693 130.047H246.248C245.943 128.76 245.28 127.756 244.259 127.036C243.259 126.295 242.009 125.924 240.509 125.924C239.314 125.924 238.238 126.196 237.281 126.742C236.325 127.287 235.564 128.105 234.999 129.196C234.455 130.265 234.184 131.585 234.184 133.156C234.184 134.727 234.455 136.058 234.999 137.149C235.564 138.24 236.325 139.058 237.281 139.604C238.238 140.149 239.314 140.422 240.509 140.422C242.009 140.422 243.259 140.062 244.259 139.342C245.28 138.6 245.943 137.575 246.248 136.265H248.693C248.28 138.098 247.356 139.571 245.922 140.684C244.487 141.796 242.683 142.353 240.509 142.353C238.835 142.353 237.346 141.982 236.042 141.24C234.738 140.476 233.716 139.407 232.977 138.033C232.238 136.636 231.869 135.011 231.869 133.156ZM262.527 142.091L255.19 134.073V142.091H252.908V117.873H255.19V132.207L262.364 124.222H265.559L257.114 133.124L265.624 142.091H262.527ZM84.672 147.652V149.439H82.5265V155.727H80.2898V149.439H78.1671V147.652H84.672ZM96.3524 150.435C96.6035 150.069 96.9078 149.779 97.2654 149.565C97.623 149.351 98.0072 149.244 98.418 149.244V151.638H97.7904C97.3034 151.638 96.9421 151.733 96.7062 151.924C96.4704 152.115 96.3524 152.447 96.3524 152.921V155.727H94.1157V149.301H96.3524V150.435ZM114.386 149.301V155.727H112.138V154.811C111.948 155.101 111.685 155.338 111.351 155.521C111.016 155.697 110.632 155.785 110.198 155.785C109.452 155.785 108.863 155.54 108.429 155.051C108.003 154.555 107.79 153.883 107.79 153.035V149.301H110.015V152.749C110.015 153.116 110.11 153.406 110.301 153.62C110.498 153.826 110.757 153.929 111.077 153.929C111.404 153.929 111.662 153.826 111.853 153.62C112.043 153.406 112.138 153.116 112.138 152.749V149.301H114.386ZM127.003 155.807C126.425 155.807 125.907 155.712 125.451 155.521C125.002 155.323 124.644 155.055 124.378 154.719C124.12 154.376 123.975 153.99 123.945 153.562H126.113C126.143 153.769 126.238 153.929 126.398 154.043C126.558 154.158 126.756 154.215 126.992 154.215C127.174 154.215 127.319 154.177 127.425 154.101C127.532 154.024 127.585 153.925 127.585 153.803C127.585 153.643 127.498 153.524 127.323 153.448C127.148 153.371 126.858 153.287 126.455 153.196C125.999 153.104 125.618 153.001 125.314 152.887C125.01 152.772 124.743 152.585 124.515 152.325C124.295 152.066 124.184 151.714 124.184 151.271C124.184 150.89 124.287 150.546 124.492 150.241C124.698 149.927 124.998 149.679 125.394 149.496C125.797 149.313 126.28 149.221 126.843 149.221C127.68 149.221 128.338 149.427 128.817 149.84C129.297 150.252 129.574 150.794 129.651 151.466H127.631C127.593 151.26 127.501 151.103 127.357 150.997C127.22 150.882 127.033 150.825 126.798 150.825C126.615 150.825 126.474 150.859 126.375 150.928C126.284 150.997 126.238 151.092 126.238 151.214C126.238 151.367 126.326 151.485 126.501 151.569C126.676 151.646 126.957 151.726 127.345 151.81C127.809 151.909 128.194 152.02 128.498 152.142C128.81 152.264 129.08 152.463 129.308 152.738C129.544 153.005 129.662 153.371 129.662 153.837C129.662 154.211 129.552 154.547 129.331 154.845C129.118 155.143 128.81 155.38 128.407 155.555C128.011 155.723 127.543 155.807 127.003 155.807ZM143.588 149.244C144.319 149.244 144.897 149.492 145.323 149.989C145.757 150.477 145.974 151.142 145.974 151.982V155.727H143.737V152.279C143.737 151.913 143.642 151.627 143.452 151.42C143.261 151.207 143.006 151.1 142.687 151.1C142.352 151.1 142.09 151.207 141.899 151.42C141.709 151.627 141.614 151.913 141.614 152.279V155.727H139.377V147.251H141.614V150.218C141.812 149.927 142.078 149.695 142.413 149.519C142.755 149.336 143.147 149.244 143.588 149.244ZM173.818 147.652V155.727H171.582V152.486H168.854V155.727H166.617V147.652H168.854V150.687H171.582V147.652H173.818ZM183.35 152.509C183.35 151.844 183.468 151.264 183.703 150.767C183.947 150.271 184.274 149.889 184.685 149.622C185.103 149.355 185.567 149.221 186.077 149.221C186.518 149.221 186.899 149.309 187.218 149.485C187.538 149.66 187.785 149.897 187.96 150.195V149.301H190.197V155.727H187.96V154.834C187.785 155.132 187.534 155.368 187.207 155.544C186.887 155.72 186.511 155.807 186.077 155.807C185.567 155.807 185.103 155.674 184.685 155.407C184.274 155.139 183.947 154.757 183.703 154.261C183.468 153.757 183.35 153.173 183.35 152.509ZM187.96 152.509C187.96 152.096 187.846 151.772 187.618 151.535C187.397 151.298 187.123 151.18 186.796 151.18C186.461 151.18 186.184 151.298 185.963 151.535C185.742 151.764 185.632 152.089 185.632 152.509C185.632 152.921 185.742 153.249 185.963 153.494C186.184 153.73 186.461 153.849 186.796 153.849C187.123 153.849 187.397 153.73 187.618 153.494C187.846 153.257 187.96 152.929 187.96 152.509ZM206.638 149.301V155.727H204.39V154.811C204.199 155.101 203.937 155.338 203.602 155.521C203.267 155.697 202.883 155.785 202.45 155.785C201.704 155.785 201.114 155.54 200.681 155.051C200.255 154.555 200.042 153.883 200.042 153.035V149.301H202.267V152.749C202.267 153.116 202.362 153.406 202.552 153.62C202.75 153.826 203.009 153.929 203.328 153.929C203.655 153.929 203.914 153.826 204.104 153.62C204.294 153.406 204.39 153.116 204.39 152.749V149.301H206.638ZM218.764 147.251V155.727H216.527V147.251H218.764ZM229.783 148.706C229.388 148.706 229.068 148.599 228.825 148.385C228.589 148.163 228.471 147.889 228.471 147.56C228.471 147.224 228.589 146.945 228.825 146.724C229.068 146.503 229.388 146.392 229.783 146.392C230.172 146.392 230.483 146.503 230.719 146.724C230.963 146.945 231.084 147.224 231.084 147.56C231.084 147.889 230.963 148.163 230.719 148.385C230.483 148.599 230.172 148.706 229.783 148.706ZM230.89 149.301V155.727H228.654V149.301H230.89ZM244.969 149.244C245.707 149.244 246.292 149.492 246.726 149.989C247.16 150.477 247.377 151.142 247.377 151.982V155.727H245.14V152.279C245.14 151.913 245.045 151.627 244.854 151.42C244.664 151.207 244.409 151.1 244.09 151.1C243.755 151.1 243.493 151.207 243.302 151.42C243.112 151.627 243.017 151.913 243.017 152.279V155.727H240.78V149.301H243.017V150.218C243.215 149.927 243.481 149.695 243.816 149.519C244.151 149.336 244.535 149.244 244.969 149.244ZM259.582 149.221C260.016 149.221 260.392 149.309 260.712 149.485C261.039 149.66 261.29 149.897 261.465 150.195V149.301H263.702V155.659C263.702 156.262 263.588 156.804 263.359 157.285C263.131 157.774 262.773 158.163 262.287 158.453C261.807 158.744 261.199 158.889 260.461 158.889C259.472 158.889 258.68 158.656 258.087 158.19C257.494 157.724 257.155 157.09 257.071 156.289H259.274C259.319 156.495 259.434 156.655 259.616 156.77C259.799 156.884 260.035 156.941 260.324 156.941C261.085 156.941 261.465 156.514 261.465 155.659V154.834C261.29 155.132 261.039 155.368 260.712 155.544C260.392 155.72 260.016 155.807 259.582 155.807C259.072 155.807 258.608 155.674 258.19 155.407C257.779 155.139 257.452 154.757 257.208 154.261C256.972 153.757 256.854 153.173 256.854 152.509C256.854 151.844 256.972 151.264 257.208 150.767C257.452 150.271 257.779 149.889 258.19 149.622C258.608 149.355 259.072 149.221 259.582 149.221ZM261.465 152.509C261.465 152.096 261.351 151.772 261.123 151.535C260.902 151.298 260.628 151.18 260.301 151.18C259.966 151.18 259.688 151.298 259.468 151.535C259.247 151.764 259.137 152.089 259.137 152.509C259.137 152.921 259.247 153.249 259.468 153.494C259.688 153.73 259.966 153.849 260.301 153.849C260.628 153.849 260.902 153.73 261.123 153.494C261.351 153.257 261.465 152.929 261.465 152.509Z" fill="#7C4032"/>
</svg>
