<svg width="288" height="269" viewBox="0 0 288 269" fill="none" xmlns="http://www.w3.org/2000/svg">
<rect width="288" height="269" rx="20" fill="white"/>
<path d="M86.5656 139.688L82.1484 131.563H81.4858V139.688H75.3017V117.656H85.0511C86.8391 117.656 88.3535 117.969 89.5946 118.594C90.8356 119.198 91.7717 120.042 92.4027 121.125C93.0337 122.188 93.3492 123.385 93.3492 124.719C93.3492 126.219 92.9286 127.542 92.0872 128.688C91.2668 129.813 90.0573 130.615 88.4587 131.094L93.4754 139.688H86.5656ZM81.4858 127.375H84.5463C85.3877 127.375 86.0187 127.177 86.4394 126.781C86.8601 126.385 87.0704 125.813 87.0704 125.063C87.0704 124.354 86.8496 123.802 86.4079 123.406C85.9872 122.99 85.3667 122.781 84.5463 122.781H81.4858V127.375ZM104.397 139.906C102.63 139.906 101.042 139.542 99.6322 138.813C98.244 138.083 97.1502 137.042 96.3509 135.688C95.5516 134.333 95.1519 132.74 95.1519 130.906C95.1519 129.094 95.5516 127.51 96.3509 126.156C97.1712 124.802 98.2755 123.76 99.6638 123.031C101.073 122.302 102.661 121.938 104.428 121.938C106.195 121.938 107.773 122.302 109.161 123.031C110.57 123.76 111.674 124.802 112.474 126.156C113.294 127.51 113.704 129.094 113.704 130.906C113.704 132.719 113.294 134.313 112.474 135.688C111.674 137.042 110.57 138.083 109.161 138.813C107.752 139.542 106.163 139.906 104.397 139.906ZM104.397 134.594C105.259 134.594 105.974 134.281 106.542 133.656C107.131 133.01 107.426 132.094 107.426 130.906C107.426 129.719 107.131 128.812 106.542 128.187C105.974 127.562 105.269 127.25 104.428 127.25C103.587 127.25 102.882 127.562 102.314 128.187C101.746 128.812 101.462 129.719 101.462 130.906C101.462 132.115 101.736 133.031 102.283 133.656C102.829 134.281 103.534 134.594 104.397 134.594ZM134.331 122.156V139.688H128.116V137.188C127.59 137.979 126.864 138.625 125.938 139.125C125.013 139.604 123.951 139.844 122.752 139.844C120.69 139.844 119.06 139.177 117.861 137.844C116.683 136.49 116.094 134.656 116.094 132.344V122.156H122.247V131.563C122.247 132.563 122.51 133.354 123.036 133.938C123.583 134.5 124.298 134.781 125.181 134.781C126.086 134.781 126.801 134.5 127.327 133.938C127.853 133.354 128.116 132.563 128.116 131.563V122.156H134.331ZM149.43 122C151.47 122 153.09 122.677 154.289 124.031C155.488 125.365 156.087 127.177 156.087 129.469V139.688H149.903V130.281C149.903 129.281 149.64 128.5 149.114 127.937C148.588 127.354 147.884 127.062 147 127.062C146.075 127.062 145.349 127.354 144.823 127.937C144.297 128.5 144.034 129.281 144.034 130.281V139.688H137.85V122.156H144.034V124.656C144.581 123.865 145.318 123.229 146.243 122.75C147.169 122.25 148.231 122 149.43 122ZM158.471 130.906C158.471 129.094 158.797 127.51 159.449 126.156C160.122 124.802 161.037 123.76 162.194 123.031C163.351 122.302 164.634 121.938 166.043 121.938C167.179 121.938 168.189 122.177 169.072 122.656C169.977 123.115 170.681 123.75 171.186 124.562V116.562H177.402V139.688H171.186V137.25C170.702 138.063 170.019 138.708 169.135 139.188C168.252 139.667 167.211 139.906 166.012 139.906C164.602 139.906 163.319 139.542 162.162 138.813C161.027 138.083 160.122 137.042 159.449 135.688C158.797 134.313 158.471 132.719 158.471 130.906ZM171.218 130.906C171.218 129.781 170.902 128.896 170.271 128.25C169.661 127.604 168.904 127.281 168 127.281C167.074 127.281 166.306 127.604 165.696 128.25C165.086 128.875 164.781 129.76 164.781 130.906C164.781 132.031 165.086 132.927 165.696 133.594C166.306 134.24 167.074 134.563 168 134.563C168.904 134.563 169.661 134.24 170.271 133.594C170.902 132.948 171.218 132.052 171.218 130.906ZM198.229 139.688L193.812 131.563H193.149V139.688H186.965V117.656H196.715C198.503 117.656 200.017 117.969 201.258 118.594C202.499 119.198 203.435 120.042 204.066 121.125C204.697 122.188 205.013 123.385 205.013 124.719C205.013 126.219 204.592 127.542 203.751 128.688C202.93 129.813 201.721 130.615 200.122 131.094L205.139 139.688H198.229ZM193.149 127.375H196.21C197.051 127.375 197.682 127.177 198.103 126.781C198.524 126.385 198.734 125.813 198.734 125.063C198.734 124.354 198.513 123.802 198.072 123.406C197.651 122.99 197.03 122.781 196.21 122.781H193.149V127.375ZM216.06 139.906C214.293 139.906 212.705 139.542 211.296 138.813C209.908 138.083 208.814 137.042 208.015 135.688C207.215 134.333 206.816 132.74 206.816 130.906C206.816 129.094 207.215 127.51 208.015 126.156C208.835 124.802 209.939 123.76 211.327 123.031C212.737 122.302 214.325 121.938 216.092 121.938C217.859 121.938 219.436 122.302 220.825 123.031C222.234 123.76 223.338 124.802 224.137 126.156C224.958 127.51 225.368 129.094 225.368 130.906C225.368 132.719 224.958 134.313 224.137 135.688C223.338 137.042 222.234 138.083 220.825 138.813C219.415 139.542 217.827 139.906 216.06 139.906ZM216.06 134.594C216.923 134.594 217.638 134.281 218.206 133.656C218.795 133.01 219.089 132.094 219.089 130.906C219.089 129.719 218.795 128.812 218.206 128.187C217.638 127.562 216.933 127.25 216.092 127.25C215.25 127.25 214.546 127.562 213.978 128.187C213.41 128.812 213.126 129.719 213.126 130.906C213.126 132.115 213.399 133.031 213.946 133.656C214.493 134.281 215.198 134.594 216.06 134.594ZM226.874 130.906C226.874 129.094 227.253 127.51 228.01 126.156C228.767 124.802 229.819 123.76 231.165 123.031C232.532 122.302 234.089 121.938 235.835 121.938C238.085 121.938 239.979 122.552 241.514 123.781C243.05 124.99 244.038 126.688 244.48 128.875H237.917C237.539 127.729 236.802 127.156 235.709 127.156C234.93 127.156 234.31 127.479 233.847 128.125C233.405 128.75 233.184 129.677 233.184 130.906C233.184 132.135 233.405 133.073 233.847 133.719C234.31 134.365 234.93 134.688 235.709 134.688C236.823 134.688 237.56 134.115 237.917 132.969H244.48C244.038 135.135 243.05 136.833 241.514 138.063C239.979 139.292 238.085 139.906 235.835 139.906C234.089 139.906 232.532 139.542 231.165 138.813C229.819 138.083 228.767 137.042 228.01 135.688C227.253 134.333 226.874 132.74 226.874 130.906ZM258.124 139.688L253.233 132.5V139.688H247.049V116.562H253.233V129.031L258.124 122.156H265.539L258.566 130.969L265.665 139.688H258.124ZM83.431 146.44L79.9098 153.204V156.354H77.1127V153.204L73.5916 146.44H76.772L78.5326 150.265L80.2931 146.44H83.431ZM87.5227 152.403C87.5227 151.587 87.6694 150.874 87.9628 150.265C88.2657 149.656 88.6728 149.187 89.1839 148.859C89.7045 148.531 90.2819 148.367 90.9161 148.367C91.4651 148.367 91.9384 148.474 92.3359 148.69C92.7335 148.906 93.0411 149.196 93.2588 149.562V148.465H96.0417V156.354H93.2588V155.257C93.0411 155.623 92.7287 155.914 92.3217 156.129C91.9242 156.345 91.4556 156.453 90.9161 156.453C90.2819 156.453 89.7045 156.289 89.1839 155.96C88.6728 155.632 88.2657 155.164 87.9628 154.554C87.6694 153.935 87.5227 153.218 87.5227 152.403ZM93.2588 152.403C93.2588 151.896 93.1168 151.498 92.8328 151.207C92.5583 150.917 92.2176 150.771 91.8106 150.771C91.3941 150.771 91.0486 150.917 90.7741 151.207C90.4996 151.489 90.3623 151.887 90.3623 152.403C90.3623 152.909 90.4996 153.312 90.7741 153.612C91.0486 153.903 91.3941 154.048 91.8106 154.048C92.2176 154.048 92.5583 153.903 92.8328 153.612C93.1168 153.321 93.2588 152.918 93.2588 152.403ZM104.102 149.857C104.414 149.407 104.793 149.051 105.237 148.789C105.682 148.526 106.16 148.395 106.671 148.395V151.334H105.891C105.285 151.334 104.835 151.451 104.542 151.685C104.248 151.92 104.102 152.328 104.102 152.909V156.354H101.319V148.465H104.102V149.857ZM110.906 152.403C110.906 151.587 111.053 150.874 111.346 150.265C111.649 149.656 112.061 149.187 112.582 148.859C113.102 148.531 113.68 148.367 114.314 148.367C114.825 148.367 115.279 148.474 115.677 148.69C116.084 148.896 116.401 149.182 116.628 149.548V145.948H119.425V156.354H116.628V155.257C116.41 155.623 116.103 155.914 115.705 156.129C115.308 156.345 114.839 156.453 114.3 156.453C113.665 156.453 113.088 156.289 112.567 155.96C112.056 155.632 111.649 155.164 111.346 154.554C111.053 153.935 110.906 153.218 110.906 152.403ZM116.642 152.403C116.642 151.896 116.5 151.498 116.216 151.207C115.942 150.917 115.601 150.771 115.194 150.771C114.778 150.771 114.432 150.917 114.158 151.207C113.883 151.489 113.746 151.887 113.746 152.403C113.746 152.909 113.883 153.312 114.158 153.612C114.432 153.903 114.778 154.048 115.194 154.048C115.601 154.048 115.942 153.903 116.216 153.612C116.5 153.321 116.642 152.918 116.642 152.403ZM142.797 146.44V156.354H140.014V150.884L138.126 156.354H135.797L133.895 150.842V156.354H131.112V146.44H134.477L136.99 152.881L139.446 146.44H142.797ZM147.618 152.403C147.618 151.587 147.765 150.874 148.058 150.265C148.361 149.656 148.768 149.187 149.279 148.859C149.8 148.531 150.377 148.367 151.012 148.367C151.561 148.367 152.034 148.474 152.431 148.69C152.829 148.906 153.137 149.196 153.354 149.562V148.465H156.137V156.354H153.354V155.257C153.137 155.623 152.824 155.914 152.417 156.129C152.02 156.345 151.551 156.453 151.012 156.453C150.377 156.453 149.8 156.289 149.279 155.96C148.768 155.632 148.361 155.164 148.058 154.554C147.765 153.935 147.618 153.218 147.618 152.403ZM153.354 152.403C153.354 151.896 153.212 151.498 152.928 151.207C152.654 150.917 152.313 150.771 151.906 150.771C151.49 150.771 151.144 150.917 150.87 151.207C150.595 151.489 150.458 151.887 150.458 152.403C150.458 152.909 150.595 153.312 150.87 153.612C151.144 153.903 151.49 154.048 151.906 154.048C152.313 154.048 152.654 153.903 152.928 153.612C153.212 153.321 153.354 152.918 153.354 152.403ZM162.82 147.734C162.328 147.734 161.931 147.603 161.628 147.34C161.334 147.068 161.188 146.731 161.188 146.328C161.188 145.915 161.334 145.573 161.628 145.301C161.931 145.029 162.328 144.893 162.82 144.893C163.303 144.893 163.691 145.029 163.985 145.301C164.287 145.573 164.439 145.915 164.439 146.328C164.439 146.731 164.287 147.068 163.985 147.34C163.691 147.603 163.303 147.734 162.82 147.734ZM164.198 148.465V156.354H161.415V148.465H164.198ZM174.685 148.395C175.603 148.395 176.332 148.699 176.871 149.309C177.411 149.909 177.681 150.724 177.681 151.756V156.354H174.898V152.121C174.898 151.671 174.779 151.32 174.543 151.067C174.306 150.804 173.989 150.673 173.592 150.673C173.175 150.673 172.849 150.804 172.612 151.067C172.375 151.32 172.257 151.671 172.257 152.121V156.354H169.474V148.465H172.257V149.59C172.503 149.234 172.834 148.948 173.251 148.732C173.667 148.507 174.145 148.395 174.685 148.395ZM187.598 154.006V156.354H186.392C184.357 156.354 183.339 155.356 183.339 153.359V150.757H182.359V148.465H183.339V146.553H186.136V148.465H187.584V150.757H186.136V153.401C186.136 153.617 186.183 153.771 186.278 153.865C186.382 153.959 186.552 154.006 186.789 154.006H187.598ZM200.177 152.318C200.177 152.534 200.163 152.749 200.134 152.965H194.867C194.895 153.396 195.014 153.72 195.222 153.935C195.44 154.142 195.714 154.245 196.045 154.245C196.509 154.245 196.84 154.039 197.039 153.626H200.007C199.884 154.17 199.642 154.657 199.283 155.089C198.932 155.51 198.487 155.843 197.948 156.087C197.408 156.331 196.812 156.453 196.159 156.453C195.373 156.453 194.673 156.289 194.058 155.96C193.452 155.632 192.974 155.164 192.624 154.554C192.283 153.945 192.112 153.228 192.112 152.403C192.112 151.578 192.283 150.865 192.624 150.265C192.964 149.656 193.438 149.187 194.043 148.859C194.659 148.531 195.364 148.367 196.159 148.367C196.945 148.367 197.64 148.526 198.246 148.845C198.852 149.164 199.325 149.623 199.666 150.223C200.007 150.814 200.177 151.512 200.177 152.318ZM197.337 151.629C197.337 151.292 197.224 151.029 196.997 150.842C196.769 150.645 196.486 150.546 196.145 150.546C195.804 150.546 195.525 150.64 195.307 150.828C195.089 151.006 194.947 151.273 194.881 151.629H197.337ZM210.218 148.395C211.136 148.395 211.865 148.699 212.404 149.309C212.944 149.909 213.214 150.724 213.214 151.756V156.354H210.431V152.121C210.431 151.671 210.313 151.32 210.076 151.067C209.839 150.804 209.522 150.673 209.125 150.673C208.708 150.673 208.382 150.804 208.145 151.067C207.908 151.32 207.79 151.671 207.79 152.121V156.354H205.007V148.465H207.79V149.59C208.036 149.234 208.367 148.948 208.784 148.732C209.2 148.507 209.678 148.395 210.218 148.395ZM217.978 152.403C217.978 151.587 218.125 150.874 218.418 150.265C218.721 149.656 219.128 149.187 219.639 148.859C220.16 148.531 220.737 148.367 221.371 148.367C221.92 148.367 222.394 148.474 222.791 148.69C223.189 148.906 223.496 149.196 223.714 149.562V148.465H226.497V156.354H223.714V155.257C223.496 155.623 223.184 155.914 222.777 156.129C222.379 156.345 221.911 156.453 221.371 156.453C220.737 156.453 220.16 156.289 219.639 155.96C219.128 155.632 218.721 155.164 218.418 154.554C218.125 153.935 217.978 153.218 217.978 152.403ZM223.714 152.403C223.714 151.896 223.572 151.498 223.288 151.207C223.014 150.917 222.673 150.771 222.266 150.771C221.849 150.771 221.504 150.917 221.229 151.207C220.955 151.489 220.818 151.887 220.818 152.403C220.818 152.909 220.955 153.312 221.229 153.612C221.504 153.903 221.849 154.048 222.266 154.048C222.673 154.048 223.014 153.903 223.288 153.612C223.572 153.321 223.714 152.918 223.714 152.403ZM236.985 148.395C237.903 148.395 238.632 148.699 239.172 149.309C239.711 149.909 239.981 150.724 239.981 151.756V156.354H237.198V152.121C237.198 151.671 237.08 151.32 236.843 151.067C236.607 150.804 236.29 150.673 235.892 150.673C235.476 150.673 235.149 150.804 234.912 151.067C234.676 151.32 234.557 151.671 234.557 152.121V156.354H231.775V148.465H234.557V149.59C234.803 149.234 235.135 148.948 235.551 148.732C235.968 148.507 236.446 148.395 236.985 148.395ZM244.745 152.403C244.745 151.587 244.915 150.874 245.256 150.265C245.597 149.656 246.07 149.187 246.676 148.859C247.291 148.531 247.992 148.367 248.777 148.367C249.79 148.367 250.642 148.643 251.333 149.196C252.024 149.74 252.469 150.504 252.668 151.489H249.714C249.544 150.973 249.213 150.715 248.72 150.715C248.37 150.715 248.091 150.86 247.883 151.151C247.684 151.432 247.585 151.849 247.585 152.403C247.585 152.956 247.684 153.378 247.883 153.668C248.091 153.959 248.37 154.104 248.72 154.104C249.222 154.104 249.553 153.846 249.714 153.331H252.668C252.469 154.306 252.024 155.07 251.333 155.623C250.642 156.176 249.79 156.453 248.777 156.453C247.992 156.453 247.291 156.289 246.676 155.96C246.07 155.632 245.597 155.164 245.256 154.554C244.915 153.945 244.745 153.228 244.745 152.403ZM265.126 152.318C265.126 152.534 265.112 152.749 265.083 152.965H259.816C259.844 153.396 259.962 153.72 260.171 153.935C260.388 154.142 260.663 154.245 260.994 154.245C261.458 154.245 261.789 154.039 261.988 153.626H264.955C264.832 154.17 264.591 154.657 264.231 155.089C263.881 155.51 263.436 155.843 262.897 156.087C262.357 156.331 261.761 156.453 261.108 156.453C260.322 156.453 259.622 156.289 259.006 155.96C258.401 155.632 257.922 155.164 257.572 154.554C257.232 153.945 257.061 153.228 257.061 152.403C257.061 151.578 257.232 150.865 257.572 150.265C257.913 149.656 258.386 149.187 258.992 148.859C259.607 148.531 260.313 148.367 261.108 148.367C261.893 148.367 262.589 148.526 263.195 148.845C263.801 149.164 264.274 149.623 264.615 150.223C264.955 150.814 265.126 151.512 265.126 152.318ZM262.286 151.629C262.286 151.292 262.173 151.029 261.945 150.842C261.718 150.645 261.434 150.546 261.093 150.546C260.753 150.546 260.473 150.64 260.256 150.828C260.038 151.006 259.896 151.273 259.83 151.629H262.286Z" fill="#7C4032"/>
<path d="M29.3743 134.937C29.3025 135.06 29.2761 135.204 29.2997 135.344C29.3232 135.484 29.3952 135.611 29.503 135.703C33.5279 139.124 34.4894 144.567 34.6411 145.623C34.6617 145.766 34.7329 145.897 34.8417 145.992C34.9506 146.087 35.0899 146.14 35.2341 146.14C35.2625 146.14 35.2907 146.138 35.3188 146.133C35.476 146.111 35.6178 146.026 35.7131 145.899C35.8084 145.771 35.8494 145.611 35.8271 145.453C35.6408 144.155 34.8901 140.275 32.3131 136.931C33.8922 137.707 35.4629 138.732 36.914 140.316C38.4661 142.117 39.4106 144.797 39.42 144.823C39.4451 144.898 39.485 144.968 39.5373 145.028C39.5896 145.088 39.6532 145.137 39.7244 145.172C39.7958 145.208 39.8733 145.228 39.9525 145.233C40.0318 145.238 40.1112 145.227 40.1862 145.201C40.2612 145.174 40.3303 145.133 40.3894 145.08C40.4485 145.027 40.4965 144.962 40.5305 144.89C40.5647 144.818 40.5841 144.74 40.5879 144.661C40.5917 144.581 40.5797 144.502 40.5526 144.427C40.5128 144.311 39.5742 141.643 37.9467 139.677C37.823 137.931 37.3885 134.444 35.8729 131.218C37.2612 132.508 38.4692 133.981 39.464 135.596L39.475 135.615C40.474 137.246 41.2727 138.992 41.8539 140.815V140.821V140.83C42.108 141.623 42.4147 142.925 42.6163 143.879C42.645 144.014 42.719 144.135 42.8258 144.222C42.9326 144.309 43.0659 144.356 43.2034 144.356C43.2455 144.356 43.2875 144.352 43.3288 144.343C43.4845 144.31 43.6206 144.216 43.7073 144.082C43.794 143.948 43.8242 143.785 43.7913 143.628C43.5982 142.72 43.3127 141.502 43.0585 140.659C43.699 138.861 44.5541 137.148 45.6051 135.557L45.6517 135.488C46.6603 133.968 47.866 132.589 49.2369 131.388C47.568 134.705 47.0622 138.33 46.9131 139.997V140.006C46.9131 140.01 46.9131 140.015 46.9131 140.019C46.7683 142.786 47.3283 144.715 47.352 144.796C47.4021 144.943 47.5068 145.065 47.6443 145.136C47.7818 145.207 47.9414 145.223 48.0898 145.179C48.2383 145.135 48.3641 145.035 48.4411 144.9C48.5182 144.766 48.5404 144.606 48.5033 144.456C48.4982 144.439 48.0102 142.738 48.1017 140.312C49.3841 139.003 50.8603 137.9 52.4782 137.044C51.5226 138.339 50.8033 139.88 50.3552 141.612C49.7935 143.79 49.8596 145.493 49.863 145.564C49.8697 145.719 49.9358 145.866 50.0474 145.973C50.1589 146.08 50.3074 146.14 50.4619 146.14H50.489C50.6481 146.133 50.7978 146.063 50.9054 145.945C51.0129 145.827 51.0695 145.671 51.0626 145.512C51.0626 145.449 50.8414 139.157 55.4729 135.733C55.5888 135.647 55.6702 135.522 55.7023 135.382C55.7344 135.241 55.7151 135.093 55.6479 134.965C55.5807 134.838 55.4701 134.739 55.3361 134.686C55.2021 134.633 55.0538 134.63 54.918 134.678C52.346 135.584 50.2137 136.804 48.3211 138.461C48.7049 135.995 49.6436 132.216 51.9241 129.428C52.0142 129.319 52.0629 129.181 52.0616 129.039C52.0605 128.898 52.0095 128.761 51.9176 128.653C51.8258 128.545 51.699 128.473 51.5596 128.45C51.4203 128.427 51.2772 128.454 51.1557 128.527C49.6173 129.43 47.4418 131.058 45.3815 133.801C44.3928 130.349 44.2691 128.303 45.1824 124.675C45.2145 124.547 45.2036 124.411 45.1514 124.29C45.0992 124.168 45.0085 124.067 44.8934 124.003C44.7784 123.938 44.6452 123.913 44.5146 123.932C44.384 123.951 44.2632 124.012 44.1709 124.106C41.0202 127.338 39.8588 130.778 39.5114 133.508C37.5782 130.846 35.5179 129.221 34.0354 128.292C33.9157 128.217 33.7738 128.187 33.6344 128.207C33.4949 128.227 33.3668 128.295 33.2725 128.4C33.1781 128.505 33.1235 128.64 33.1181 128.781C33.1128 128.922 33.1571 129.061 33.2433 129.173C35.4578 132.034 36.293 135.853 36.6073 138.33C34.4971 136.464 32.2487 135.502 30.102 134.681C29.97 134.631 29.8246 134.629 29.6914 134.676C29.5583 134.723 29.446 134.816 29.3743 134.937ZM44.5046 135.058C43.7085 136.282 43.0233 137.574 42.457 138.921C41.9451 137.607 41.3215 136.341 40.5933 135.135C40.65 132.883 41.2532 129.778 43.5439 126.692C43.1111 129.556 43.4796 131.701 44.5046 135.058Z" fill="#7C4032"/>
<path d="M61.1489 144.017C60.3271 143.392 58.8522 144.041 56.9978 145.844C56.983 145.858 56.9692 145.873 56.9562 145.888C55.572 147.537 50.4949 150.81 47.0893 151.578L47.0698 151.582C45.2374 152.059 44.5359 152.021 44.2987 151.972C44.3834 151.777 44.6418 151.418 45.0781 151.017C46.1735 150.008 47.3579 148.726 46.7843 147.752C46.3006 146.933 44.8765 146.506 37.795 148.917C34.475 150.047 31.0109 149.244 27.4994 146.53C25.8294 145.221 24.3491 143.685 23.1009 141.967C23.0296 141.858 22.9254 141.776 22.804 141.732C22.6825 141.688 22.5501 141.685 22.4265 141.722C22.3028 141.76 22.1945 141.837 22.1177 141.941C22.0408 142.045 21.9994 142.171 21.9996 142.301C21.9955 142.386 22.0127 142.471 22.0496 142.547C23.4605 146.402 25.9238 149.78 29.1576 152.295C32.3915 154.811 36.2654 156.361 40.3362 156.77C44.4069 157.179 48.5102 156.43 52.1766 154.608C55.8429 152.786 58.9244 149.965 61.0684 146.467C61.0695 146.465 61.0709 146.462 61.0726 146.46L61.2234 146.205L61.2361 146.183C61.7385 145.251 61.7054 144.44 61.1489 144.017ZM60.1856 145.6L60.0433 145.838C56.2607 151.995 49.7079 155.669 42.5069 155.669C35.3908 155.669 28.8498 151.948 25.1231 146.079C25.8101 146.729 26.5388 147.334 27.3046 147.888C28.9218 149.052 30.5687 149.854 32.2012 150.269C34.1716 150.791 36.2516 150.718 38.1805 150.058C44.092 148.046 45.4483 148.26 45.7203 148.37C45.6779 148.53 45.4526 149.036 44.2657 150.129C43.5337 150.802 42.7526 151.772 43.1856 152.572C43.6185 153.372 44.8214 153.412 47.3612 152.752C51.0286 151.922 56.3073 148.505 57.8526 146.689C59.2987 145.29 60.1238 144.989 60.3889 144.989C60.3873 145.087 60.3491 145.293 60.1856 145.6Z" fill="#7C4032"/>
<path d="M62.9674 127.455C61.5573 123.6 59.0945 120.221 55.8607 117.705C52.627 115.189 48.7529 113.638 44.6818 113.228C40.6108 112.819 36.5072 113.569 32.8406 115.391C29.1739 117.213 26.0924 120.035 23.9486 123.532L23.9444 123.539L23.7936 123.794L23.7809 123.817C23.2785 124.753 23.3107 125.561 23.8656 125.984C24.6873 126.609 26.1622 125.961 28.0167 124.157C28.0316 124.144 28.0455 124.128 28.0582 124.112C29.4467 122.462 34.5238 119.189 37.9268 118.422L37.9463 118.417C39.7787 117.941 40.4802 117.979 40.7174 118.028C40.6327 118.223 40.3743 118.582 39.9388 118.982C38.8426 119.991 37.6583 121.273 38.2327 122.248C38.7164 123.067 40.1396 123.494 47.2211 121.083C50.5411 119.953 54.0052 120.756 57.5176 123.47C59.1877 124.778 60.6678 126.314 61.9152 128.033C61.9702 128.116 62.0445 128.183 62.1314 128.23C62.2185 128.276 62.3155 128.301 62.4142 128.301C62.4494 128.301 62.4846 128.298 62.5192 128.292C62.6585 128.267 62.7846 128.194 62.8753 128.085C62.9659 127.976 63.0154 127.839 63.0148 127.697C63.0191 127.613 63.0028 127.53 62.9674 127.455ZM57.7107 122.111C56.0943 120.948 54.4466 120.146 52.8149 119.729C50.8452 119.208 48.7661 119.282 46.8382 119.942C40.9267 121.954 39.5712 121.74 39.2984 121.63C39.3408 121.47 39.5661 120.964 40.753 119.871C41.4849 119.197 42.2652 118.227 41.8323 117.428C41.3994 116.628 40.1964 116.588 37.6566 117.248C33.9901 118.078 28.7105 121.494 27.1678 123.31C25.7217 124.709 24.8966 125.01 24.6314 125.01C24.6314 124.91 24.6704 124.704 24.8347 124.396L24.9762 124.159C28.7597 118.003 35.3116 114.327 42.5126 114.327C49.6287 114.327 56.1689 118.049 59.8956 123.919C59.2078 123.268 58.4779 122.664 57.7107 122.111Z" fill="#7C4032"/>
</svg>
