<svg width="288" height="269" viewBox="0 0 288 269" fill="none" xmlns="http://www.w3.org/2000/svg">
<rect width="288" height="269" rx="20" fill="white"/>
<path d="M116.788 138.124L113.26 131.473H112.731V138.124H107.792V120.089H115.579C117.006 120.089 118.216 120.345 119.207 120.857C120.198 121.351 120.946 122.042 121.45 122.929C121.954 123.798 122.206 124.779 122.206 125.871C122.206 127.098 121.87 128.181 121.198 129.119C120.543 130.04 119.577 130.697 118.3 131.089L122.306 138.124H116.788ZM112.731 128.045H115.175C115.847 128.045 116.351 127.883 116.687 127.559C117.023 127.235 117.191 126.766 117.191 126.152C117.191 125.572 117.015 125.12 116.662 124.796C116.326 124.455 115.831 124.285 115.175 124.285H112.731V128.045ZM131.028 138.303C129.617 138.303 128.349 138.005 127.223 137.408C126.115 136.811 125.241 135.958 124.603 134.85C123.964 133.741 123.645 132.436 123.645 130.936C123.645 129.452 123.964 128.156 124.603 127.047C125.258 125.939 126.14 125.086 127.249 124.489C128.374 123.892 129.642 123.594 131.053 123.594C132.465 123.594 133.724 123.892 134.833 124.489C135.959 125.086 136.841 125.939 137.479 127.047C138.134 128.156 138.462 129.452 138.462 130.936C138.462 132.419 138.134 133.724 137.479 134.85C136.841 135.958 135.959 136.811 134.833 137.408C133.708 138.005 132.439 138.303 131.028 138.303ZM131.028 133.954C131.717 133.954 132.288 133.698 132.742 133.187C133.212 132.658 133.447 131.908 133.447 130.936C133.447 129.964 133.212 129.222 132.742 128.71C132.288 128.198 131.725 127.943 131.053 127.943C130.381 127.943 129.819 128.198 129.365 128.71C128.912 129.222 128.685 129.964 128.685 130.936C128.685 131.925 128.903 132.675 129.34 133.187C129.777 133.698 130.339 133.954 131.028 133.954ZM154.935 123.773V138.124H149.971V136.078C149.551 136.726 148.971 137.254 148.232 137.664C147.493 138.056 146.645 138.252 145.687 138.252C144.041 138.252 142.739 137.706 141.781 136.615C140.841 135.506 140.37 134.005 140.37 132.112V123.773H145.284V131.473C145.284 132.292 145.494 132.94 145.914 133.417C146.351 133.878 146.922 134.108 147.627 134.108C148.35 134.108 148.921 133.878 149.341 133.417C149.761 132.94 149.971 132.292 149.971 131.473V123.773H154.935ZM166.993 123.645C168.623 123.645 169.916 124.199 170.874 125.308C171.831 126.399 172.31 127.883 172.31 129.759V138.124H167.371V130.424C167.371 129.605 167.161 128.966 166.741 128.505C166.321 128.028 165.759 127.789 165.053 127.789C164.314 127.789 163.734 128.028 163.314 128.505C162.894 128.966 162.684 129.605 162.684 130.424V138.124H157.746V123.773H162.684V125.819C163.121 125.171 163.709 124.651 164.448 124.259C165.187 123.85 166.036 123.645 166.993 123.645ZM174.213 130.936C174.213 129.452 174.474 128.156 174.994 127.047C175.532 125.939 176.263 125.086 177.187 124.489C178.111 123.892 179.135 123.594 180.261 123.594C181.168 123.594 181.974 123.79 182.68 124.182C183.402 124.557 183.965 125.078 184.368 125.743V119.194H189.332V138.124H184.368V136.129C183.982 136.794 183.436 137.323 182.73 137.715C182.025 138.107 181.193 138.303 180.236 138.303C179.11 138.303 178.085 138.005 177.161 137.408C176.254 136.811 175.532 135.958 174.994 134.85C174.474 133.724 174.213 132.419 174.213 130.936ZM184.393 130.936C184.393 130.015 184.141 129.29 183.637 128.761C183.15 128.233 182.545 127.968 181.823 127.968C181.084 127.968 180.471 128.233 179.984 128.761C179.496 129.273 179.253 129.998 179.253 130.936C179.253 131.857 179.496 132.59 179.984 133.136C180.471 133.664 181.084 133.929 181.823 133.929C182.545 133.929 183.15 133.664 183.637 133.136C184.141 132.607 184.393 131.874 184.393 130.936ZM205.965 138.124L202.437 131.473H201.908V138.124H196.97V120.089H204.756C206.184 120.089 207.393 120.345 208.384 120.857C209.375 121.351 210.123 122.042 210.627 122.929C211.131 123.798 211.383 124.779 211.383 125.871C211.383 127.098 211.047 128.181 210.375 129.119C209.72 130.04 208.754 130.697 207.477 131.089L211.484 138.124H205.965ZM201.908 128.045H204.353C205.024 128.045 205.528 127.883 205.864 127.559C206.2 127.235 206.368 126.766 206.368 126.152C206.368 125.572 206.192 125.12 205.839 124.796C205.503 124.455 205.008 124.285 204.353 124.285H201.908V128.045ZM220.205 138.303C218.794 138.303 217.526 138.005 216.4 137.408C215.292 136.811 214.418 135.958 213.78 134.85C213.142 133.741 212.822 132.436 212.822 130.936C212.822 129.452 213.142 128.156 213.78 127.047C214.435 125.939 215.317 125.086 216.426 124.489C217.551 123.892 218.819 123.594 220.231 123.594C221.642 123.594 222.902 123.892 224.01 124.489C225.136 125.086 226.018 125.939 226.656 127.047C227.311 128.156 227.639 129.452 227.639 130.936C227.639 132.419 227.311 133.724 226.656 134.85C226.018 135.958 225.136 136.811 224.01 137.408C222.885 138.005 221.616 138.303 220.205 138.303ZM220.205 133.954C220.894 133.954 221.465 133.698 221.919 133.187C222.389 132.658 222.624 131.908 222.624 130.936C222.624 129.964 222.389 129.222 221.919 128.71C221.465 128.198 220.903 127.943 220.231 127.943C219.559 127.943 218.996 128.198 218.542 128.71C218.089 129.222 217.862 129.964 217.862 130.936C217.862 131.925 218.08 132.675 218.517 133.187C218.954 133.698 219.517 133.954 220.205 133.954ZM228.842 130.936C228.842 129.452 229.144 128.156 229.749 127.047C230.353 125.939 231.193 125.086 232.268 124.489C233.36 123.892 234.603 123.594 235.998 123.594C237.795 123.594 239.307 124.097 240.533 125.103C241.76 126.092 242.549 127.482 242.902 129.273H237.661C237.358 128.335 236.77 127.866 235.897 127.866C235.275 127.866 234.78 128.13 234.41 128.659C234.058 129.171 233.881 129.93 233.881 130.936C233.881 131.942 234.058 132.709 234.41 133.238C234.78 133.767 235.275 134.031 235.897 134.031C236.787 134.031 237.375 133.562 237.661 132.624H242.902C242.549 134.398 241.76 135.788 240.533 136.794C239.307 137.8 237.795 138.303 235.998 138.303C234.603 138.303 233.36 138.005 232.268 137.408C231.193 136.811 230.353 135.958 229.749 134.85C229.144 133.741 228.842 132.436 228.842 130.936ZM253.798 138.124L249.893 132.24V138.124H244.954V119.194H249.893V129.401L253.798 123.773H259.72L254.151 130.987L259.821 138.124H253.798ZM116.348 143.652V151.767H114.126V147.289L112.618 151.767H110.758L109.239 147.255V151.767H107.016V143.652H109.704L111.711 148.924L113.672 143.652H116.348ZM124.769 151.848C124.134 151.848 123.563 151.714 123.056 151.445C122.558 151.177 122.164 150.793 121.877 150.294C121.59 149.795 121.446 149.208 121.446 148.533C121.446 147.865 121.59 147.282 121.877 146.783C122.172 146.284 122.569 145.9 123.068 145.632C123.574 145.363 124.145 145.229 124.78 145.229C125.415 145.229 125.982 145.363 126.481 145.632C126.987 145.9 127.384 146.284 127.671 146.783C127.966 147.282 128.114 147.865 128.114 148.533C128.114 149.2 127.966 149.787 127.671 150.294C127.384 150.793 126.987 151.177 126.481 151.445C125.974 151.714 125.404 151.848 124.769 151.848ZM124.769 149.891C125.079 149.891 125.336 149.776 125.54 149.546C125.751 149.308 125.857 148.97 125.857 148.533C125.857 148.095 125.751 147.761 125.54 147.531C125.336 147.301 125.082 147.186 124.78 147.186C124.478 147.186 124.224 147.301 124.02 147.531C123.816 147.761 123.714 148.095 123.714 148.533C123.714 148.978 123.812 149.316 124.009 149.546C124.205 149.776 124.459 149.891 124.769 149.891ZM136.264 149.638L137.454 145.309H139.824L137.636 151.767H134.869L132.68 145.309H135.05L136.264 149.638ZM145.895 144.711C145.502 144.711 145.184 144.603 144.943 144.389C144.708 144.166 144.591 143.89 144.591 143.56C144.591 143.222 144.708 142.942 144.943 142.719C145.184 142.497 145.502 142.386 145.895 142.386C146.281 142.386 146.59 142.497 146.825 142.719C147.067 142.942 147.188 143.222 147.188 143.56C147.188 143.89 147.067 144.166 146.825 144.389C146.59 144.603 146.281 144.711 145.895 144.711ZM146.995 145.309V151.767H144.772V145.309H146.995ZM156.617 145.252C157.35 145.252 157.932 145.501 158.363 146C158.794 146.491 159.01 147.159 159.01 148.003V151.767H156.787V148.302C156.787 147.934 156.693 147.646 156.504 147.439C156.315 147.224 156.062 147.117 155.744 147.117C155.411 147.117 155.151 147.224 154.962 147.439C154.773 147.646 154.678 147.934 154.678 148.302V151.767H152.456V145.309H154.678V146.23C154.875 145.939 155.139 145.705 155.472 145.528C155.805 145.344 156.186 145.252 156.617 145.252ZM166.772 145.229C167.203 145.229 167.577 145.317 167.894 145.494C168.22 145.67 168.469 145.908 168.643 146.207V145.309H170.865V151.698C170.865 152.305 170.752 152.85 170.525 153.333C170.298 153.824 169.943 154.216 169.459 154.507C168.983 154.799 168.378 154.945 167.645 154.945C166.662 154.945 165.876 154.711 165.286 154.242C164.697 153.774 164.36 153.137 164.277 152.332H166.466C166.511 152.539 166.624 152.7 166.806 152.815C166.987 152.93 167.222 152.988 167.509 152.988C168.265 152.988 168.643 152.558 168.643 151.698V150.87C168.469 151.169 168.22 151.407 167.894 151.583C167.577 151.76 167.203 151.848 166.772 151.848C166.265 151.848 165.804 151.714 165.389 151.445C164.98 151.177 164.655 150.793 164.413 150.294C164.179 149.787 164.062 149.2 164.062 148.533C164.062 147.865 164.179 147.282 164.413 146.783C164.655 146.284 164.98 145.9 165.389 145.632C165.804 145.363 166.265 145.229 166.772 145.229ZM168.643 148.533C168.643 148.118 168.529 147.792 168.303 147.554C168.083 147.316 167.811 147.197 167.486 147.197C167.154 147.197 166.878 147.316 166.659 147.554C166.439 147.784 166.33 148.111 166.33 148.533C166.33 148.947 166.439 149.277 166.659 149.523C166.878 149.761 167.154 149.88 167.486 149.88C167.811 149.88 168.083 149.761 168.303 149.523C168.529 149.285 168.643 148.955 168.643 148.533ZM185.709 151.848C184.78 151.848 184.016 151.626 183.419 151.18C182.822 150.728 182.5 150.083 182.455 149.246H184.825C184.848 149.53 184.931 149.738 185.074 149.868C185.218 149.999 185.403 150.064 185.63 150.064C185.834 150.064 186 150.014 186.129 149.914C186.265 149.807 186.333 149.661 186.333 149.477C186.333 149.239 186.223 149.055 186.004 148.924C185.785 148.794 185.43 148.648 184.938 148.487C184.417 148.31 183.993 148.141 183.668 147.98C183.351 147.811 183.071 147.57 182.829 147.255C182.595 146.933 182.478 146.514 182.478 146C182.478 145.478 182.606 145.033 182.863 144.665C183.12 144.289 183.476 144.005 183.929 143.813C184.383 143.621 184.897 143.525 185.471 143.525C186.401 143.525 187.142 143.748 187.694 144.193C188.253 144.63 188.552 145.248 188.59 146.046H186.174C186.167 145.801 186.091 145.616 185.948 145.494C185.811 145.371 185.634 145.309 185.415 145.309C185.248 145.309 185.112 145.359 185.006 145.459C184.901 145.559 184.848 145.701 184.848 145.885C184.848 146.039 184.904 146.173 185.018 146.288C185.139 146.395 185.286 146.491 185.46 146.576C185.634 146.652 185.891 146.752 186.231 146.875C186.737 147.052 187.153 147.228 187.478 147.405C187.811 147.573 188.094 147.815 188.329 148.13C188.571 148.437 188.692 148.828 188.692 149.304C188.692 149.787 188.571 150.221 188.329 150.605C188.094 150.989 187.75 151.292 187.297 151.514C186.851 151.737 186.322 151.848 185.709 151.848ZM199.998 148.464C199.998 148.64 199.987 148.817 199.964 148.993H195.757C195.78 149.346 195.874 149.611 196.041 149.787C196.214 149.956 196.434 150.041 196.698 150.041C197.069 150.041 197.333 149.872 197.492 149.534H199.862C199.764 149.979 199.571 150.378 199.284 150.731C199.004 151.077 198.649 151.349 198.218 151.549C197.787 151.748 197.311 151.848 196.789 151.848C196.162 151.848 195.602 151.714 195.111 151.445C194.627 151.177 194.245 150.793 193.966 150.294C193.693 149.795 193.557 149.208 193.557 148.533C193.557 147.857 193.693 147.274 193.966 146.783C194.238 146.284 194.616 145.9 195.099 145.632C195.591 145.363 196.154 145.229 196.789 145.229C197.416 145.229 197.972 145.359 198.456 145.62C198.94 145.881 199.318 146.257 199.59 146.748C199.862 147.232 199.998 147.804 199.998 148.464ZM197.73 147.9C197.73 147.623 197.639 147.408 197.458 147.255C197.277 147.094 197.05 147.013 196.778 147.013C196.505 147.013 196.282 147.09 196.109 147.243C195.935 147.389 195.821 147.608 195.768 147.9H197.73ZM207.325 146.449C207.575 146.081 207.877 145.789 208.233 145.574C208.588 145.359 208.97 145.252 209.378 145.252V147.658H208.754C208.27 147.658 207.911 147.754 207.677 147.946C207.443 148.137 207.325 148.471 207.325 148.947V151.767H205.103V145.309H207.325V146.449ZM217.42 149.638L218.611 145.309H220.981L218.792 151.767H216.025L213.837 145.309H216.207L217.42 149.638ZM227.052 144.711C226.659 144.711 226.341 144.603 226.099 144.389C225.865 144.166 225.748 143.89 225.748 143.56C225.748 143.222 225.865 142.942 226.099 142.719C226.341 142.497 226.659 142.386 227.052 142.386C227.437 142.386 227.747 142.497 227.981 142.719C228.223 142.942 228.344 143.222 228.344 143.56C228.344 143.89 228.223 144.166 227.981 144.389C227.747 144.603 227.437 144.711 227.052 144.711ZM228.152 145.309V151.767H225.929V145.309H228.152ZM233.25 148.533C233.25 147.865 233.386 147.282 233.658 146.783C233.93 146.284 234.308 145.9 234.792 145.632C235.283 145.363 235.843 145.229 236.47 145.229C237.279 145.229 237.959 145.455 238.511 145.908C239.063 146.353 239.418 146.979 239.577 147.784H237.219C237.083 147.362 236.818 147.151 236.425 147.151C236.145 147.151 235.922 147.27 235.756 147.508C235.597 147.738 235.518 148.08 235.518 148.533C235.518 148.986 235.597 149.331 235.756 149.569C235.922 149.807 236.145 149.926 236.425 149.926C236.826 149.926 237.09 149.715 237.219 149.292H239.577C239.418 150.091 239.063 150.716 238.511 151.169C237.959 151.622 237.279 151.848 236.47 151.848C235.843 151.848 235.283 151.714 234.792 151.445C234.308 151.177 233.93 150.793 233.658 150.294C233.386 149.795 233.25 149.208 233.25 148.533ZM250.773 148.464C250.773 148.64 250.762 148.817 250.739 148.993H246.533C246.555 149.346 246.65 149.611 246.816 149.787C246.99 149.956 247.209 150.041 247.474 150.041C247.844 150.041 248.109 149.872 248.267 149.534H250.637C250.539 149.979 250.346 150.378 250.059 150.731C249.779 151.077 249.424 151.349 248.993 151.549C248.562 151.748 248.086 151.848 247.564 151.848C246.937 151.848 246.378 151.714 245.886 151.445C245.402 151.177 245.021 150.793 244.741 150.294C244.469 149.795 244.333 149.208 244.333 148.533C244.333 147.857 244.469 147.274 244.741 146.783C245.013 146.284 245.391 145.9 245.875 145.632C246.366 145.363 246.929 145.229 247.564 145.229C248.192 145.229 248.747 145.359 249.231 145.62C249.715 145.881 250.093 146.257 250.365 146.748C250.637 147.232 250.773 147.804 250.773 148.464ZM248.506 147.9C248.506 147.623 248.415 147.408 248.233 147.255C248.052 147.094 247.825 147.013 247.553 147.013C247.281 147.013 247.058 147.09 246.884 147.243C246.71 147.389 246.597 147.608 246.544 147.9H248.506ZM258.589 151.848C258.014 151.848 257.5 151.752 257.046 151.56C256.6 151.361 256.245 151.092 255.981 150.754C255.724 150.409 255.58 150.022 255.55 149.592H257.704C257.734 149.799 257.829 149.96 257.988 150.075C258.146 150.19 258.343 150.248 258.577 150.248C258.759 150.248 258.902 150.21 259.008 150.133C259.114 150.056 259.167 149.956 259.167 149.834C259.167 149.672 259.08 149.553 258.906 149.477C258.732 149.4 258.445 149.316 258.044 149.223C257.591 149.131 257.213 149.028 256.91 148.913C256.608 148.797 256.343 148.609 256.117 148.349C255.897 148.088 255.788 147.735 255.788 147.289C255.788 146.906 255.89 146.56 256.094 146.253C256.298 145.939 256.597 145.689 256.99 145.505C257.39 145.321 257.87 145.229 258.43 145.229C259.261 145.229 259.915 145.436 260.391 145.851C260.868 146.265 261.144 146.81 261.219 147.485H259.212C259.174 147.278 259.084 147.121 258.94 147.013C258.804 146.898 258.619 146.841 258.384 146.841C258.203 146.841 258.063 146.875 257.965 146.944C257.874 147.013 257.829 147.109 257.829 147.232C257.829 147.385 257.916 147.504 258.09 147.589C258.263 147.666 258.543 147.746 258.929 147.831C259.39 147.93 259.772 148.042 260.074 148.164C260.384 148.287 260.652 148.487 260.879 148.763C261.113 149.032 261.231 149.4 261.231 149.868C261.231 150.244 261.121 150.582 260.902 150.881C260.69 151.18 260.384 151.418 259.983 151.595C259.59 151.764 259.125 151.848 258.589 151.848Z" fill="#7C4032"/>
<path d="M35.0694 146.595C34.8554 146.593 34.6463 146.529 34.4675 146.409C34.2887 146.29 34.1479 146.12 34.062 145.92C33.9761 145.721 33.9489 145.5 33.9837 145.285C34.0185 145.071 34.1138 144.871 34.2579 144.71C35.0815 143.797 35.8342 142.82 36.5094 141.789C36.674 141.545 36.9262 141.376 37.2118 141.32C37.4973 141.263 37.7933 141.323 38.0359 141.487C38.2784 141.65 38.4481 141.904 38.5083 142.194C38.5685 142.483 38.5143 142.785 38.3575 143.035C37.6187 144.162 36.7954 145.23 35.895 146.229C35.7904 146.346 35.6629 146.438 35.5206 146.501C35.3783 146.565 35.2246 146.596 35.0694 146.595Z" fill="#7C4032"/>
<path d="M43.7616 141.433C42.0417 141.433 39.7871 140.989 36.8946 140.106C33.3798 139.095 31.3644 137.699 30.1574 135.439C30.0408 135.179 30.0258 134.883 30.1153 134.612C30.2048 134.341 30.3922 134.115 30.6396 133.979C30.8869 133.843 31.1757 133.808 31.4476 133.881C31.7195 133.953 31.9541 134.128 32.104 134.37C33.0123 136.069 34.5774 137.106 37.5059 137.948H37.5231C42.2856 139.402 45.1844 139.573 45.9239 138.447C45.9694 138.365 45.9976 138.274 46.0067 138.18C46.0159 138.086 46.0058 137.991 45.9771 137.901C45.863 137.485 45.4267 137.073 44.7497 136.742C43.7991 136.288 43.2566 136.066 42.5686 135.787C41.9541 135.534 41.2568 135.248 40.1029 134.728C36.2082 133.005 35.9393 129.862 35.9299 129.728L38.1407 129.569V129.552C38.1485 129.631 38.3737 131.51 40.9957 132.67C42.1214 133.177 42.8016 133.455 43.4004 133.702C44.0915 133.985 44.6872 134.23 45.7019 134.715C47.3264 135.511 47.908 136.56 48.1129 137.303C48.2263 137.703 48.2551 138.122 48.1974 138.533C48.1398 138.944 47.9969 139.338 47.7782 139.689C47.0153 140.852 45.7332 141.433 43.7616 141.433Z" fill="#7C4032"/>
<path d="M33.3332 161.602C33.1533 161.602 32.9829 161.602 32.8297 161.586C32.4357 161.577 27.7936 161.467 26.2973 161.374H26.2848C24.0255 161.2 22.6699 160.535 22.143 159.345C21.4285 157.729 22.673 156.058 23.0811 155.51L23.0983 155.487C23.5283 154.94 23.5142 154.74 23.4313 154.398C23.3391 154.089 23.0389 153.709 22.6621 153.23C21.8475 152.195 20.6498 150.674 19.8478 147.76C19.4423 147.702 19.0611 147.529 18.7486 147.26C18.4361 146.991 18.2051 146.638 18.0825 146.24C17.9954 145.932 17.977 145.608 18.0286 145.292C18.0803 144.976 18.2007 144.675 18.3812 144.413C18.5883 144.106 18.8575 143.848 19.1707 143.655C19.3631 138.712 22.2759 132.027 22.6199 131.248C23.348 129.611 23.7837 127.856 23.9066 126.064V125.978L23.9223 125.892C25.9799 114.356 32.6452 110.303 34.1915 109.507C35.8066 107.217 37.8892 106.773 39.2198 107.11C39.4593 107.166 39.6828 107.278 39.8726 107.437C40.0626 107.595 40.2137 107.797 40.3143 108.025C40.5847 108.633 40.4706 109.352 40.2877 109.918C40.6145 110.269 41.0522 110.758 41.4807 111.287C42.8769 113.018 43.3319 114.151 43.002 115.061C42.8988 115.355 43.89 116.453 45.0033 117.646L45.0643 117.716C45.3003 118.016 45.7538 118.855 44.8704 120.157C44.1871 121.158 42.572 122.569 41.1383 122.093C40.874 122.006 40.5128 121.878 40.0766 121.71C39.8561 122.219 39.8593 122.868 40.0766 123.601C40.1298 123.773 40.1986 123.978 40.2767 124.212C40.9041 125.976 41.3414 127.804 41.5807 129.663C41.5979 129.81 41.5864 129.959 41.547 130.102C41.5075 130.244 41.4409 130.377 41.3509 130.494C41.2608 130.61 41.1492 130.707 41.0223 130.779C40.8954 130.852 40.7558 130.898 40.6113 130.915C40.4669 130.933 40.3205 130.921 40.1805 130.881C40.0405 130.841 39.9096 130.773 39.7953 130.682C39.6811 130.59 39.5856 130.476 39.5145 130.347C39.4434 130.218 39.398 130.076 39.3808 129.929C39.161 128.226 38.7578 126.553 38.1785 124.939C38.0941 124.683 38.0222 124.462 37.9627 124.273C37.4186 122.504 37.7892 121.236 38.1972 120.483C38.2889 120.311 38.3934 120.145 38.5099 119.989C38.64 119.816 38.7855 119.656 38.9446 119.511L39.4497 119.06L40.075 119.305C40.8068 119.593 41.3837 119.807 41.7496 119.931C42.081 119.876 42.7768 119.282 43.0598 118.851C41.4041 117.07 40.4253 115.904 40.8709 114.426C40.7145 113.855 39.509 112.286 38.2019 110.979L37.6203 110.395L37.9956 109.657C38.0548 109.534 38.107 109.409 38.1519 109.28C37.5265 109.361 36.6603 109.789 35.8645 111.03L35.6816 111.305L35.3689 111.439C35.3532 111.445 33.5551 112.259 31.5226 114.486C29.6464 116.534 27.2026 120.229 26.1175 126.226C25.9775 128.287 25.4766 130.306 24.6384 132.188C23.4189 134.929 21.355 140.542 21.3769 144.19C21.3872 144.48 21.3059 144.765 21.1449 145.004C20.9839 145.243 20.7517 145.423 20.4825 145.518C20.7329 145.492 20.9849 145.545 21.2047 145.67C21.4245 145.795 21.6014 145.985 21.7115 146.215L21.7662 146.329L21.7959 146.454C22.476 149.393 23.5361 150.739 24.3867 151.819C24.9057 152.478 25.3529 153.047 25.5624 153.795L25.5718 153.83C25.847 154.953 25.6265 155.866 24.8354 156.881C24.0098 157.994 24.1412 158.378 24.1584 158.419C24.1756 158.46 24.4242 158.968 26.4411 159.125C27.939 159.219 32.8516 159.334 32.9 159.335H32.9422C33.2374 159.35 33.5332 159.343 33.8272 159.313C33.0142 158.72 31.7634 158.75 30.8362 158.772C30.4384 158.802 30.0385 158.784 29.6448 158.72C28.4346 158.446 28.1751 157.713 28.1282 157.301C27.9922 156.079 29.2789 155.194 31.4006 154.162L31.4444 154.141C32.1449 153.839 35.6049 152.188 35.2735 149.287C34.7325 146.423 33.5536 145.151 31.6774 143.401C31.4874 143.194 31.3809 142.922 31.3792 142.639C31.3775 142.356 31.4807 142.082 31.6682 141.873C31.8557 141.664 32.1137 141.534 32.391 141.51C32.6682 141.486 32.9443 141.568 33.1643 141.742C35.2563 143.692 36.7885 145.348 37.4515 148.9L37.4624 148.97C37.8939 152.47 35.0984 154.999 32.3294 156.204C32.1042 156.311 31.9025 156.413 31.7243 156.51C32.8828 156.537 34.3354 156.742 35.4548 157.759L35.4877 157.789C36.3789 158.669 36.6587 159.512 36.3194 160.299C35.8566 161.384 34.4151 161.602 33.3332 161.602ZM40.9147 114.289V114.303V114.289Z" fill="#7C4032"/>
<path d="M80.9354 146.595C80.7809 146.595 80.6284 146.562 80.4873 146.499C80.3462 146.436 80.2198 146.343 80.1161 146.227C79.2157 145.229 78.393 144.161 77.6551 143.033C77.4926 142.784 77.4342 142.479 77.4926 142.186C77.5509 141.894 77.7214 141.636 77.9663 141.471C78.2111 141.306 78.5101 141.246 78.7982 141.306C79.0863 141.365 79.3391 141.538 79.5017 141.788C80.177 142.819 80.93 143.796 81.7531 144.71C81.898 144.871 81.9937 145.072 82.0286 145.287C82.0635 145.503 82.0357 145.724 81.9492 145.924C81.8627 146.124 81.7203 146.295 81.5406 146.414C81.3604 146.533 81.15 146.596 80.9354 146.596V146.595Z" fill="#7C4032"/>
<path d="M72.2387 141.433C70.2686 141.433 68.9911 140.854 68.2326 139.683C68.0109 139.33 67.866 138.934 67.8072 138.52C67.7484 138.105 67.7774 137.683 67.892 137.281C68.0966 136.54 68.6736 135.488 70.2934 134.699C71.3177 134.209 71.9149 133.964 72.6057 133.681C73.2046 133.435 73.8833 133.156 75.0029 132.652C77.631 131.489 77.8561 129.611 77.8641 129.531V129.549L80.0748 129.708C80.0656 129.841 79.7964 132.985 75.8941 134.71C74.748 135.227 74.0521 135.514 73.436 135.767C72.7481 136.05 72.2055 136.273 71.2471 136.731C70.5794 137.057 70.1435 137.469 70.0292 137.886C70.0003 137.977 69.9906 138.074 70.0007 138.169C70.0108 138.265 70.0402 138.357 70.0872 138.441C70.8158 139.554 73.7207 139.386 78.4831 137.932H78.5004C81.4288 137.09 82.994 136.053 83.9024 134.354C84.0481 134.102 84.2846 133.918 84.5617 133.84C84.8385 133.762 85.1346 133.796 85.387 133.936C85.6394 134.075 85.8288 134.309 85.9149 134.588C86.0014 134.867 85.9774 135.17 85.8489 135.431C84.6419 137.691 82.6265 139.09 79.1118 140.1C76.2145 140.989 73.9614 141.433 72.2387 141.433Z" fill="#7C4032"/>
<path d="M82.6706 161.602C81.5887 161.602 80.147 161.383 79.6779 160.301C79.3385 159.513 79.6187 158.67 80.5098 157.79L80.5396 157.753C81.6589 156.737 83.1115 156.532 84.2715 156.505C84.0917 156.411 83.8901 156.309 83.665 156.199C80.8962 154.994 78.1005 152.465 78.5318 148.965L78.5427 148.895C79.2058 145.341 80.732 143.685 82.8301 141.737C82.9372 141.637 83.0628 141.559 83.1997 141.509C83.3362 141.458 83.4815 141.435 83.6268 141.442C83.7721 141.448 83.9149 141.484 84.0468 141.547C84.1787 141.609 84.2971 141.697 84.3953 141.807C84.4932 141.916 84.5696 142.044 84.6192 142.183C84.6692 142.322 84.6914 142.469 84.6847 142.617C84.6784 142.765 84.6436 142.91 84.5822 143.044C84.5205 143.179 84.4336 143.299 84.3265 143.399C82.4501 145.149 81.2683 146.421 80.7303 149.285C80.4002 152.186 83.8574 153.837 84.5591 154.14L84.6032 154.16C86.7249 155.193 88.0134 156.077 87.8756 157.299C87.8286 157.711 87.5707 158.444 86.3591 158.717C85.9652 158.782 85.5654 158.8 85.1677 158.77C84.2404 158.748 82.9897 158.717 82.1767 159.311C82.4711 159.342 82.7676 159.349 83.0632 159.333H83.1035C83.1523 159.333 88.0663 159.217 89.5626 159.123C91.5797 158.964 91.8342 158.439 91.8455 158.417C91.8565 158.395 92.0018 157.992 91.1681 156.879C90.3773 155.864 90.1569 154.951 90.4319 153.828L90.4412 153.793C90.6507 153.045 91.0997 152.476 91.6171 151.817C92.4675 150.737 93.5275 149.391 94.2078 146.452L94.2377 146.328L94.2923 146.211C94.4027 145.982 94.5791 145.792 94.7987 145.668C95.018 145.544 95.2699 145.491 95.5198 145.516C95.2489 145.42 95.0163 145.237 94.8554 144.996C94.6946 144.754 94.6144 144.467 94.627 144.175C94.6442 140.54 92.5851 134.927 91.3655 132.184C90.5268 130.303 90.0258 128.285 89.8864 126.224C87.7941 114.666 80.6959 111.464 80.6304 111.438L80.3175 111.305L80.1344 111.02C79.3385 109.787 78.4646 109.359 77.8456 109.27C77.8901 109.4 77.9422 109.527 78.0018 109.65L78.3709 110.385L77.7939 110.969C76.4853 112.277 75.275 113.847 75.125 114.418C75.558 115.9 74.5808 117.063 72.9282 118.841C73.2112 119.273 73.9071 119.866 74.2385 119.922C74.6043 119.797 75.1767 119.581 75.9129 119.295L76.5386 119.05L77.0434 119.502C77.2026 119.647 77.3487 119.807 77.4798 119.979C77.5957 120.136 77.7003 120.302 77.7922 120.475C78.1988 121.226 78.5742 122.494 78.027 124.264C77.969 124.45 77.8939 124.675 77.8082 124.929C77.2312 126.543 76.8288 128.216 76.6071 129.919C76.5726 130.216 76.4236 130.487 76.1926 130.672C75.962 130.857 75.6685 130.941 75.3766 130.905C75.0851 130.87 74.8189 130.719 74.637 130.484C74.4556 130.249 74.3729 129.95 74.4073 129.654C74.6467 127.794 75.0839 125.967 75.7113 124.204C75.7894 123.968 75.8583 123.763 75.9116 123.591C76.1367 122.858 76.1384 122.209 75.9116 121.7C75.4707 121.869 75.1141 121.996 74.8512 122.083C73.4099 122.561 71.7964 121.148 71.116 120.147C70.2328 118.843 70.686 118.006 70.9237 117.706L70.9833 117.636C72.0967 116.443 73.0878 115.345 72.9798 115.038C72.6548 114.136 73.1096 113.008 74.506 111.278C74.9344 110.748 75.372 110.259 75.6987 109.908C75.5173 109.342 75.4018 108.623 75.6722 108.015C75.7726 107.787 75.9238 107.585 76.114 107.427C76.3039 107.268 76.5273 107.156 76.7667 107.1C78.0971 106.763 80.1797 107.207 81.7937 109.504C83.34 110.299 90.0053 114.354 92.0627 125.888L92.0782 125.974V126.063C92.2 127.854 92.6351 129.609 93.3637 131.244C93.7077 132.017 96.6252 138.711 96.8125 143.652C97.1262 143.843 97.3954 144.101 97.6024 144.408C97.783 144.671 97.9035 144.972 97.9548 145.289C98.0064 145.606 97.9871 145.93 97.8993 146.238C97.7771 146.634 97.5474 146.985 97.2371 147.253C96.9267 147.521 96.5479 147.694 96.1452 147.753C95.3397 150.667 94.1407 152.188 93.3305 153.223C92.9538 153.701 92.6536 154.082 92.5616 154.391C92.4784 154.733 92.4663 154.933 92.8946 155.481L92.9118 155.503C93.3196 156.051 94.5644 157.722 93.8496 159.338C93.323 160.528 91.9736 161.193 89.7079 161.368H89.6907C88.1944 161.46 83.5525 161.57 83.1586 161.579C83.0208 161.595 82.8503 161.602 82.6706 161.602ZM75.086 114.276V114.294V114.276Z" fill="#7C4032"/>
<path d="M72.3081 131.968C72.1628 131.968 72.0183 131.939 71.884 131.883C71.7491 131.826 71.6269 131.743 71.524 131.638C71.4212 131.533 71.3393 131.409 71.2838 131.272C71.228 131.135 71.1994 130.988 71.1998 130.84V129.628C71.1998 129.116 70.8697 128.683 70.4804 128.683H45.5157C45.1264 128.683 44.7981 129.116 44.7981 129.628V130.84C44.8037 130.992 44.7792 131.143 44.726 131.285C44.6729 131.426 44.5922 131.556 44.4888 131.665C44.3853 131.774 44.2613 131.861 44.1241 131.92C43.9869 131.98 43.8394 132.01 43.6903 132.01C43.5412 132.01 43.3937 131.98 43.2565 131.92C43.1193 131.861 42.9953 131.774 42.8919 131.665C42.7884 131.556 42.7078 131.426 42.6546 131.285C42.6015 131.143 42.5769 130.992 42.5826 130.84V129.628C42.5826 127.864 43.899 126.429 45.5157 126.429H70.4804C72.0986 126.429 73.4168 127.861 73.4168 129.628V130.84C73.4168 131.139 73.3001 131.426 73.0922 131.638C72.8843 131.849 72.6021 131.968 72.3081 131.968Z" fill="#7C4032"/>
<path d="M70.4807 149.719H45.5161C43.8994 149.719 42.5829 148.287 42.5829 146.522V144.091C42.5936 143.799 42.715 143.523 42.9216 143.321C43.1282 143.119 43.4038 143.005 43.6906 143.005C43.9774 143.005 44.253 143.119 44.4596 143.321C44.6662 143.523 44.7876 143.799 44.7984 144.091V146.522C44.7984 147.032 45.1267 147.465 45.5161 147.465H70.4807C70.87 147.465 71.2001 147.032 71.2001 146.522V144.091C71.2001 143.792 71.3168 143.505 71.5247 143.293C71.7326 143.082 72.0144 142.963 72.3084 142.963C72.6024 142.963 72.8846 143.082 73.0925 143.293C73.3003 143.505 73.4171 143.792 73.4171 144.091V146.522C73.4171 148.284 72.0959 149.719 70.4807 149.719Z" fill="#7C4032"/>
</svg>
