<svg width="288" height="269" viewBox="0 0 288 269" fill="none" xmlns="http://www.w3.org/2000/svg">
<rect width="288" height="269" rx="20" fill="white"/>
<g clip-path="url(#clip0_304_4)">
<path d="M68.59 147.422L68.4113 147.332C68.0848 147.168 67.8156 146.912 67.6382 146.597C67.4608 146.282 67.3832 145.922 67.4155 145.563C67.531 144.267 67.5443 142.964 67.4553 141.666C67.4284 141.31 67.5089 140.954 67.6868 140.643C67.8646 140.332 68.1319 140.079 68.4552 139.917L68.7085 139.79C69.0682 139.611 69.3583 139.321 69.5342 138.964C69.7102 138.607 69.7624 138.204 69.6828 137.815C69.5691 137.261 69.4366 136.706 69.2855 136.152C69.1742 135.738 69.0506 135.327 68.9219 134.922C68.7978 134.539 68.5484 134.209 68.2126 133.981C67.8769 133.753 67.4737 133.64 67.0662 133.662L66.8456 133.673C66.4796 133.693 66.1158 133.606 65.8007 133.422C65.4857 133.237 65.2339 132.965 65.0777 132.639C64.5124 131.452 63.853 130.311 63.1056 129.225C62.9048 128.93 62.7969 128.584 62.7953 128.229C62.7936 127.874 62.8983 127.527 63.0964 127.23L63.2404 127.013C63.4617 126.678 63.5648 126.281 63.5338 125.884C63.5028 125.486 63.3394 125.109 63.0688 124.811C62.3955 124.069 61.6819 123.363 60.9312 122.696C60.6291 122.427 60.2451 122.263 59.8387 122.231C59.4323 122.199 59.0265 122.3 58.6843 122.517L58.4903 122.641C58.1861 122.837 57.8295 122.94 57.4657 122.936C57.1019 122.932 56.7475 122.822 56.4477 122.62C55.3568 121.879 54.2092 121.222 53.0151 120.655C52.6913 120.498 52.4219 120.251 52.2402 119.944C52.0586 119.637 51.9729 119.285 51.9937 118.931L52.006 118.68C52.0279 118.281 51.9154 117.886 51.6859 117.557C51.4563 117.227 51.1227 116.982 50.7365 116.857C49.7688 116.542 48.7845 116.279 47.7881 116.067C47.3894 115.982 46.9733 116.029 46.6048 116.201C46.2363 116.373 45.9362 116.661 45.7516 117.018L45.6402 117.229C45.476 117.547 45.2197 117.811 44.9034 117.986C44.5871 118.161 44.2252 118.24 43.8632 118.214C42.5644 118.114 41.2598 118.113 39.9608 118.209C39.5994 118.234 39.2385 118.154 38.9234 117.978C38.6083 117.802 38.3531 117.539 38.1898 117.221L38.0723 116.994C37.8889 116.638 37.591 116.351 37.2247 116.178C36.8585 116.006 36.4445 115.957 36.0471 116.039C35.58 116.136 35.1122 116.244 34.6438 116.366L34.5417 116.393C34.0399 116.527 33.5456 116.67 33.0587 116.823C32.672 116.947 32.3375 117.192 32.107 117.522C31.8766 117.851 31.7631 118.246 31.7842 118.645L31.7974 118.897C31.8172 119.253 31.7293 119.607 31.5448 119.914C31.3603 120.222 31.0876 120.468 30.7608 120.623C29.6114 121.163 28.5052 121.788 27.4518 122.492C27.1514 122.692 26.7979 122.799 26.4356 122.801C26.0732 122.804 25.7183 122.701 25.4153 122.505L25.2008 122.37C24.8595 122.151 24.454 122.049 24.0477 122.08C23.6413 122.111 23.2567 122.273 22.954 122.542C22.1763 123.227 21.4378 123.954 20.7418 124.72C20.4714 125.018 20.3078 125.394 20.2763 125.792C20.2447 126.189 20.3469 126.586 20.5672 126.922L20.7061 127.131C20.9055 127.43 21.0103 127.78 21.0072 128.138C21.0041 128.495 20.8933 128.844 20.6887 129.139C19.9851 130.149 19.3577 131.208 18.8115 132.307C18.6517 132.625 18.4003 132.89 18.0884 133.069C17.7766 133.247 17.4182 133.332 17.058 133.311L16.7904 133.297C16.3854 133.277 15.9847 133.387 15.6499 133.613C15.3152 133.838 15.065 134.165 14.9377 134.543C14.6038 135.529 14.3253 136.531 14.1033 137.547C14.0168 137.939 14.0647 138.349 14.2396 138.712C14.4145 139.075 14.7066 139.372 15.0705 139.555L15.288 139.663C15.612 139.825 15.88 140.077 16.0581 140.388C16.2362 140.7 16.3166 141.056 16.2889 141.412C16.1947 142.617 16.1889 143.827 16.2716 145.033C16.2947 145.386 16.2116 145.739 16.0326 146.046C15.8535 146.354 15.5864 146.603 15.2645 146.762L15.0143 146.888C14.6555 147.067 14.3659 147.356 14.1896 147.712C14.0132 148.067 13.9596 148.47 14.0369 148.858C14.1534 149.42 14.2875 149.981 14.4393 150.54C14.5639 150.998 14.7001 151.45 14.8478 151.897C14.9934 152.347 15.3128 152.723 15.7374 152.943H20.5784C20.0278 151.761 19.5796 150.535 19.2384 149.279C15.911 137.022 23.3482 124.383 35.8183 121.112L35.9031 121.091C48.3477 117.878 61.1518 125.182 64.4731 137.41C65.8862 142.583 65.4095 148.08 63.126 152.943H68.351C68.519 152.762 68.647 152.548 68.7268 152.316C69.0547 151.37 69.3308 150.408 69.5541 149.434C69.6433 149.041 69.597 148.63 69.4225 148.266C69.2479 147.901 68.955 147.605 68.59 147.422Z" fill="#7C4032"/>
<path d="M30.7797 152.953C29.5556 152.953 28.3487 152.669 27.2576 152.124C26.1664 151.579 25.2217 150.788 24.5005 149.815C23.7794 148.843 23.3021 147.717 23.1076 146.529C22.9131 145.341 23.0068 144.125 23.3812 142.98C23.7556 141.834 24.4001 140.792 25.2622 139.937C26.1242 139.083 27.1793 138.441 28.3416 138.064C29.5039 137.686 30.7405 137.584 31.9506 137.765C33.1607 137.947 34.31 138.407 35.305 139.108C35.4609 139.218 35.566 139.384 35.5971 139.57C35.6282 139.756 35.5829 139.947 35.471 140.1C35.3591 140.253 35.19 140.356 35.0006 140.387C34.8113 140.418 34.6173 140.373 34.4615 140.263C33.238 139.404 31.7427 139.002 30.2446 139.13C28.7465 139.258 27.3441 139.907 26.2899 140.961C25.2357 142.015 24.5987 143.404 24.4939 144.879C24.389 146.353 24.8231 147.816 25.7178 149.004C26.6127 150.192 27.9095 151.027 29.3749 151.359C30.8402 151.69 32.3779 151.497 33.7111 150.813C35.0443 150.129 36.0854 149 36.6471 147.629C37.2087 146.258 37.254 144.735 36.7747 143.334C36.7149 143.155 36.7294 142.961 36.815 142.793C36.9006 142.625 37.0504 142.497 37.2317 142.437C37.413 142.377 37.611 142.39 37.7825 142.473C37.9541 142.556 38.0852 142.702 38.1473 142.88C38.5392 144.029 38.6475 145.253 38.4633 146.452C38.2791 147.65 37.8078 148.788 37.0881 149.772C36.3685 150.756 35.4212 151.557 34.3243 152.11C33.2275 152.664 32.0124 152.953 30.7797 152.953Z" fill="#7C4032"/>
<path d="M52.2631 152.953C50.9506 152.953 49.6563 152.651 48.4832 152.072C47.3102 151.493 46.2908 150.653 45.5062 149.619C44.7215 148.585 44.1933 147.385 43.9635 146.114C43.7337 144.844 43.8087 143.539 44.1826 142.302C44.243 142.128 44.3692 141.985 44.5349 141.9C44.7007 141.816 44.8931 141.798 45.072 141.85C45.2511 141.902 45.4028 142.019 45.4956 142.178C45.5885 142.337 45.6153 142.526 45.5705 142.704C45.0887 144.281 45.1995 145.975 45.8829 147.478C46.5663 148.982 47.7766 150.194 49.2932 150.893C50.8097 151.592 52.5314 151.732 54.1444 151.288C55.7573 150.843 57.1539 149.844 58.0796 148.471C59.0052 147.099 59.3983 145.446 59.187 143.812C58.9757 142.179 58.1741 140.674 56.9285 139.573C55.6828 138.473 54.0761 137.848 52.4014 137.815C50.7266 137.781 49.0953 138.341 47.8051 139.391C47.6559 139.495 47.4721 139.54 47.2907 139.516C47.1093 139.492 46.9437 139.402 46.8272 139.263C46.7108 139.125 46.6521 138.948 46.663 138.768C46.6739 138.588 46.7535 138.42 46.886 138.295C47.9271 137.446 49.1612 136.855 50.4837 136.573C51.8063 136.291 53.1785 136.327 54.4842 136.676C55.7898 137.026 56.9907 137.679 57.9852 138.581C58.9797 139.483 59.7386 140.608 60.1976 141.859C60.6567 143.11 60.8024 144.452 60.6225 145.77C60.4426 147.089 59.9424 148.345 59.1641 149.433C58.3858 150.522 57.3524 151.41 56.1512 152.022C54.95 152.635 53.6164 152.954 52.2631 152.953Z" fill="#7C4032"/>
<path d="M32.1794 145.481C32.0316 145.481 31.8874 145.437 31.766 145.354C31.6446 145.271 31.552 145.154 31.5005 145.018C31.4491 144.881 31.4412 144.733 31.478 144.592C31.5148 144.452 31.5945 144.325 31.7065 144.23L38.7678 138.25L35.8387 137.324C35.7451 137.298 35.6578 137.253 35.582 137.193C35.5062 137.134 35.4434 137.059 35.3975 136.975C35.3516 136.891 35.3233 136.798 35.3145 136.703C35.3057 136.608 35.3166 136.512 35.3464 136.421C35.3762 136.33 35.4243 136.246 35.4879 136.173C35.5516 136.101 35.6293 136.042 35.7167 136C35.804 135.958 35.899 135.933 35.9962 135.928C36.0933 135.923 36.1905 135.937 36.282 135.969L41.6663 137.676L32.6502 145.314C32.5186 145.423 32.3516 145.482 32.1794 145.481Z" fill="#7C4032"/>
<path d="M50.9708 142.743C50.8992 142.743 50.8279 142.732 50.7594 142.712L41.1765 139.84L46.7834 134.693C46.925 134.572 47.1089 134.51 47.2964 134.519C47.4839 134.529 47.6604 134.609 47.7885 134.744C47.9166 134.879 47.9864 135.058 47.9832 135.242C47.9799 135.427 47.9038 135.603 47.771 135.734L43.9922 139.198L51.1761 141.35C51.3415 141.4 51.4833 141.506 51.5759 141.65C51.6685 141.793 51.7058 141.965 51.681 142.133C51.6562 142.301 51.5709 142.455 51.4407 142.567C51.3104 142.679 51.1437 142.741 50.9708 142.743Z" fill="#7C4032"/>
<path d="M31.704 136.643C31.541 136.643 31.3827 136.589 31.2548 136.489C31.127 136.39 31.0371 136.251 30.9997 136.095C30.9622 135.939 30.9794 135.775 31.0484 135.63C31.1175 135.485 31.2345 135.367 31.3803 135.295C33.9264 134.049 40.141 132.024 44.7175 131.621C44.8121 131.612 44.9074 131.623 44.998 131.651C45.0886 131.679 45.1726 131.724 45.2454 131.784C45.3181 131.844 45.3781 131.918 45.4219 132.001C45.4658 132.084 45.4926 132.174 45.5009 132.267C45.5091 132.36 45.4986 132.454 45.47 132.543C45.4414 132.632 45.3953 132.714 45.3342 132.786C45.2731 132.858 45.1983 132.916 45.1141 132.96C45.0298 133.003 44.9377 133.029 44.8431 133.037C40.4413 133.426 34.4677 135.372 32.0216 136.569C31.923 136.617 31.8143 136.643 31.704 136.643Z" fill="#7C4032"/>
<path d="M28.3931 135.095C28.2296 135.095 28.0709 135.04 27.943 134.94C27.8151 134.84 27.7255 134.7 27.6888 134.543C27.6521 134.386 27.6704 134.222 27.7408 134.077C27.8112 133.932 27.9295 133.814 28.0765 133.744C33.6069 131.102 40.036 130.069 44.4552 129.668C44.5498 129.659 44.6452 129.669 44.736 129.697C44.8267 129.725 44.911 129.77 44.9841 129.829C45.0572 129.889 45.1176 129.962 45.1618 130.045C45.2061 130.128 45.2334 130.218 45.2421 130.311C45.2508 130.404 45.2408 130.498 45.2126 130.587C45.1845 130.676 45.1387 130.759 45.078 130.831C45.0173 130.903 44.9427 130.962 44.8586 131.006C44.7745 131.049 44.6826 131.076 44.588 131.085C40.2893 131.475 34.044 132.475 28.7067 135.024C28.6089 135.07 28.5017 135.095 28.3931 135.095Z" fill="#7C4032"/>
<path d="M51.895 128.663C51.5977 128.312 51.221 128.034 50.7951 127.852C49.9566 127.508 49.1354 127.199 46.5883 127.116C45.7029 127.093 44.8171 127.142 43.9401 127.263C43.7617 127.299 43.6039 127.401 43.4984 127.547C43.3928 127.693 43.3473 127.873 43.371 128.051C43.3946 128.228 43.4856 128.391 43.6258 128.505C43.7659 128.62 43.945 128.678 44.127 128.668C45.1979 128.514 46.2837 128.486 47.3614 128.584C46.9913 128.991 46.7437 129.492 46.6461 130.029C46.5486 130.567 46.6051 131.121 46.8093 131.628C47.0135 132.136 47.3573 132.578 47.8023 132.905C48.2473 133.232 48.7761 133.431 49.3295 133.48C49.4204 133.488 49.5113 133.492 49.6011 133.492C50.3486 133.49 51.0684 133.214 51.6195 132.718C52.1707 132.222 52.5133 131.541 52.5803 130.809C52.616 130.425 52.5738 130.037 52.4562 129.669C52.3386 129.3 52.1478 128.959 51.895 128.663ZM51.1382 130.687C51.1115 130.981 50.9984 131.261 50.8126 131.493C50.6269 131.725 50.3766 131.899 50.0922 131.993C49.8077 132.088 49.5015 132.099 49.2106 132.025C48.9199 131.952 48.657 131.797 48.4542 131.579C48.2515 131.362 48.1175 131.091 48.0685 130.8C48.0195 130.508 48.0578 130.209 48.1786 129.939C48.2993 129.669 48.4975 129.439 48.7488 129.278C49.0001 129.116 49.2938 129.03 49.594 129.03C49.6399 129.03 49.6869 129.03 49.7339 129.036C50.1427 129.072 50.5201 129.266 50.7834 129.576C51.0467 129.885 51.1743 130.285 51.1382 130.687Z" fill="#7C4032"/>
<path d="M82.0952 116.273H91.7746C95.6431 116.273 98.6857 118.991 98.6857 123.202C98.6857 126.735 96.6106 128.775 94.1233 129.59L98.963 135.298H92.0489L87.9031 129.863V135.298H82.0952V116.273ZM91.3543 124.832C91.7672 124.794 92.1504 124.605 92.429 124.304C92.7082 124.002 92.8623 123.61 92.8623 123.202C92.8623 122.795 92.7082 122.402 92.429 122.101C92.1504 121.799 91.7672 121.611 91.3543 121.572H87.9031V124.832H91.3543Z" fill="#7C4032"/>
<path d="M101.037 125.784C101.037 120.079 105.164 116 110.574 116C115.984 116 120.115 120.079 120.115 125.784C120.115 131.489 115.966 135.568 110.574 135.568C105.183 135.568 101.037 131.493 101.037 125.784ZM114.307 125.784C114.307 123.202 112.649 121.572 110.556 121.572C108.462 121.572 106.804 123.202 106.804 125.784C106.804 128.365 108.462 129.999 110.556 129.999C112.649 129.999 114.307 128.365 114.307 125.784Z" fill="#7C4032"/>
<path d="M123.016 127.145V116.273H128.823V127.145C128.823 128.911 129.93 129.999 131.45 129.999C132.969 129.999 134.076 128.911 134.076 127.145V116.273H139.88V127.145C139.88 132.308 136.563 135.568 131.446 135.568C126.328 135.568 123.016 132.308 123.016 127.145Z" fill="#7C4032"/>
<path d="M143.477 116.273H149.976L154.264 124.563H154.815V116.273H160.623V135.298H154.125L149.841 127.019H149.285V135.309H143.477V116.273Z" fill="#7C4032"/>
<path d="M164.356 116.273H171.819C177.352 116.273 181.498 120.348 181.498 125.784C181.498 131.22 177.371 135.298 171.819 135.298H164.356V116.273ZM171.957 129.726C174.033 129.726 175.71 128.096 175.71 125.784C175.71 123.472 174.051 121.845 171.957 121.845H170.16V129.726H171.957Z" fill="#7C4032"/>
<path d="M193.25 116.273H202.929C206.798 116.273 209.84 118.991 209.84 123.202C209.84 126.735 207.765 128.775 205.278 129.59L210.117 135.298H203.203L199.058 129.863V135.298H193.25V116.273ZM202.513 124.832C202.925 124.794 203.309 124.605 203.587 124.304C203.866 124.002 204.02 123.61 204.02 123.202C204.02 122.795 203.866 122.402 203.587 122.101C203.309 121.799 202.925 121.611 202.513 121.572H199.058V124.832H202.513Z" fill="#7C4032"/>
<path d="M212.192 125.784C212.192 120.079 216.337 116 221.729 116C227.12 116 231.27 120.079 231.27 125.784C231.27 131.489 227.12 135.568 221.729 135.568C216.337 135.568 212.192 131.493 212.192 125.784ZM225.462 125.784C225.462 123.202 223.804 121.572 221.729 121.572C219.654 121.572 217.996 123.202 217.996 125.784C217.996 128.365 219.654 129.999 221.729 129.999C223.804 129.999 225.462 128.365 225.462 125.784Z" fill="#7C4032"/>
<path d="M233.619 125.784C233.619 120.079 237.768 116 243.159 116C248.138 116 251.593 119.396 252.284 124.017H246.476C246.288 123.3 245.857 122.667 245.254 122.223C244.651 121.778 243.913 121.549 243.159 121.572C241.085 121.572 239.427 123.202 239.427 125.784C239.427 128.365 241.085 129.999 243.159 129.999C244.957 129.999 246.063 128.911 246.476 127.417H252.284C251.593 132.175 248.138 135.571 243.159 135.571C237.768 135.568 233.619 131.493 233.619 125.784Z" fill="#7C4032"/>
<path d="M255.326 116.273H261.13V124.017L265.279 116.273H271.916L266.664 125.647L272.472 135.298H265.831L261.13 127.145V135.298H255.326V116.273Z" fill="#7C4032"/>
<path d="M82.0952 143.903H85.7309C86.0522 143.892 86.3728 143.947 86.6725 144.063C86.9721 144.179 87.2438 144.354 87.4716 144.578C87.6995 144.802 87.8777 145.069 87.996 145.363C88.1136 145.658 88.1693 145.973 88.1582 146.289C88.178 146.68 88.0876 147.069 87.8957 147.412C87.7044 147.755 87.4196 148.039 87.0736 148.232V148.295C87.4593 148.469 87.7812 148.754 87.9978 149.113C88.2139 149.471 88.3148 149.886 88.2857 150.301C88.2968 150.617 88.2411 150.932 88.1235 151.227C88.0053 151.521 87.8264 151.788 87.5992 152.011C87.3714 152.235 87.099 152.41 86.8 152.525C86.5004 152.641 86.1797 152.695 85.8584 152.684H82.1064L82.0952 143.903ZM85.7309 147.919C85.9556 147.93 86.1797 147.895 86.3908 147.818C86.6013 147.741 86.7938 147.622 86.9566 147.469C87.1194 147.317 87.2488 147.133 87.3373 146.93C87.4258 146.727 87.4716 146.508 87.4716 146.287C87.4716 146.066 87.4258 145.847 87.3373 145.644C87.2488 145.441 87.1194 145.257 86.9566 145.105C86.7938 144.952 86.6013 144.834 86.3908 144.757C86.1797 144.679 85.9556 144.645 85.7309 144.655H82.8604V147.919H85.7309ZM85.8584 151.931C86.0782 151.939 86.2973 151.901 86.5022 151.822C86.7065 151.743 86.8928 151.623 87.0482 151.47C87.2042 151.317 87.3262 151.135 87.4073 150.934C87.489 150.733 87.5274 150.518 87.5205 150.301C87.5379 150.083 87.5069 149.863 87.4295 149.657C87.3522 149.451 87.2302 149.264 87.0724 149.109C86.9139 148.954 86.7238 148.835 86.514 148.759C86.3047 148.683 86.0806 148.654 85.8584 148.671H82.8566V151.931H85.8584Z" fill="#7C4032"/>
<path d="M97.5764 143.902H98.3267V152.682H97.5764V143.902Z" fill="#7C4032"/>
<path d="M107.612 148.419C107.612 145.72 109.462 143.902 111.822 143.902C112.708 143.908 113.568 144.2 114.269 144.733C114.971 145.266 115.475 146.01 115.704 146.852H114.875C114.669 146.212 114.261 145.653 113.711 145.256C113.161 144.858 112.497 144.642 111.814 144.639C109.901 144.639 108.37 146.144 108.37 148.404C108.37 150.665 109.901 152.166 111.814 152.166C112.503 152.164 113.174 151.943 113.725 151.536C114.277 151.13 114.68 150.559 114.875 149.909H115.704C115.481 150.76 114.979 151.516 114.276 152.06C113.574 152.603 112.708 152.905 111.814 152.918C109.462 152.933 107.612 151.115 107.612 148.419Z" fill="#7C4032"/>
<path d="M128.307 149.385L124.99 143.902H125.845L128.573 148.419H128.828L131.548 143.902H132.404L129.084 149.385V152.682H128.333L128.307 149.385Z" fill="#7C4032"/>
<path d="M141.69 148.419C141.69 145.72 143.54 143.902 145.899 143.902C146.788 143.906 147.65 144.197 148.354 144.73C149.058 145.263 149.564 146.009 149.794 146.852H148.965C148.758 146.212 148.349 145.653 147.799 145.255C147.248 144.858 146.583 144.642 145.899 144.639C143.986 144.639 142.455 146.144 142.455 148.404C142.455 150.665 143.986 152.166 145.899 152.166C146.59 152.164 147.261 151.944 147.813 151.537C148.365 151.131 148.769 150.56 148.965 149.909H149.794C149.57 150.761 149.067 151.516 148.363 152.06C147.66 152.604 146.794 152.905 145.899 152.918C143.54 152.933 141.69 151.115 141.69 148.419Z" fill="#7C4032"/>
<path d="M159.079 143.902H159.83V151.93H164.425V152.668H159.079V143.902Z" fill="#7C4032"/>
<path d="M173.723 143.902H179.35V144.639H174.488V147.903H179.084V148.64H174.488V151.9H179.339V152.638H173.712L173.723 143.902Z" fill="#7C4032"/>
<path d="M193.524 143.902H197.223C198.754 143.902 199.849 144.967 199.849 146.538C199.849 148.168 198.702 149.234 197.223 149.234H196.33L200.029 152.682H199.009L195.31 149.234H194.289V152.682H193.539L193.524 143.902ZM197.223 148.482C198.307 148.482 199.073 147.744 199.073 146.538C199.09 146.292 199.055 146.045 198.969 145.813C198.883 145.581 198.749 145.369 198.575 145.192C198.4 145.014 198.19 144.874 197.957 144.782C197.724 144.689 197.474 144.646 197.223 144.654H194.289V148.482H197.223Z" fill="#7C4032"/>
<path d="M209.326 143.902H214.954V144.639H210.092V147.903H214.688V148.64H210.092V151.9H214.943V152.638H209.315L209.326 143.902Z" fill="#7C4032"/>
<path d="M224.24 143.902H227.939C228.295 143.901 228.646 143.972 228.973 144.109C229.3 144.246 229.595 144.447 229.84 144.699C230.086 144.951 230.276 145.25 230.401 145.577C230.526 145.904 230.582 146.252 230.565 146.601C230.587 146.948 230.534 147.295 230.41 147.621C230.286 147.946 230.094 148.243 229.847 148.491C229.6 148.739 229.302 148.933 228.973 149.061C228.645 149.189 228.292 149.248 227.939 149.234H225.006V152.682H224.255L224.24 143.902ZM227.939 148.482C228.19 148.491 228.44 148.448 228.674 148.355C228.906 148.263 229.117 148.124 229.291 147.947C229.467 147.769 229.601 147.558 229.688 147.326C229.774 147.094 229.81 146.847 229.793 146.601C229.793 145.406 229.023 144.654 227.939 144.654H225.006V148.482H227.939Z" fill="#7C4032"/>
<path d="M243.221 143.902H244.369L247.746 152.682H246.995L246.076 150.3H241.525L240.606 152.682H239.856L243.221 143.902ZM245.776 149.548L243.922 144.717H243.667L241.818 149.548H245.776Z" fill="#7C4032"/>
<path d="M257.031 143.902H257.781V152.682H257.031V143.902Z" fill="#7C4032"/>
<path d="M267.067 143.902H270.767C272.298 143.902 273.393 144.967 273.393 146.538C273.393 148.168 272.245 149.234 270.767 149.234H269.874L273.573 152.682H272.568L268.868 149.234H267.848V152.682H267.098L267.067 143.902ZM270.767 148.482C271.851 148.482 272.617 147.744 272.617 146.538C272.634 146.292 272.599 146.045 272.513 145.813C272.427 145.581 272.292 145.369 272.118 145.192C271.944 145.014 271.733 144.874 271.5 144.782C271.268 144.689 271.018 144.646 270.767 144.654H267.833V148.482H270.767Z" fill="#7C4032"/>
</g>
<defs>
<clipPath id="clip0_304_4">
<rect width="260" height="37" fill="white" transform="translate(14 116)"/>
</clipPath>
</defs>
</svg>
