<svg width="288" height="269" viewBox="0 0 288 269" fill="none" xmlns="http://www.w3.org/2000/svg">
<rect width="288" height="269" rx="20" fill="white"/>
<g clip-path="url(#clip0_304_3)">
<path d="M115.178 125.345V130.084H117.456C118.228 130.084 118.836 129.868 119.278 129.437C119.729 129.005 119.955 128.435 119.955 127.728C119.955 127.028 119.725 126.459 119.265 126.018C118.805 125.57 118.206 125.345 117.469 125.345H115.178ZM115.178 133.71V139.976H109.658V121.292H118.003C120.484 121.292 122.368 121.845 123.652 122.95C124.945 124.055 125.592 125.617 125.592 127.637C125.592 128.768 125.323 129.812 124.785 130.77C124.255 131.729 123.513 132.436 122.559 132.894L126.125 139.976H119.955L116.987 133.71H115.178ZM134.457 140.339C132.096 140.339 130.248 139.687 128.911 138.384C127.575 137.072 126.907 135.216 126.907 132.816C126.907 130.477 127.584 128.643 128.938 127.313C130.3 125.984 132.14 125.319 134.457 125.319C136.791 125.319 138.636 125.984 139.989 127.313C141.343 128.634 142.02 130.468 142.02 132.816C142.02 135.216 141.352 137.072 140.015 138.384C138.679 139.687 136.826 140.339 134.457 140.339ZM134.457 136.545C135.125 136.545 135.65 136.222 136.032 135.574C136.414 134.927 136.605 134.012 136.605 132.829C136.605 131.672 136.409 130.766 136.019 130.11C135.637 129.445 135.116 129.113 134.457 129.113C133.797 129.113 133.277 129.445 132.895 130.11C132.513 130.766 132.322 131.672 132.322 132.829C132.322 134.02 132.509 134.94 132.882 135.587C133.255 136.226 133.78 136.545 134.457 136.545ZM158.332 125.682V139.976H153.124V137.167H153.02C152.725 138.159 152.235 138.923 151.549 139.459C150.872 139.994 150.009 140.261 148.959 140.261C147.379 140.261 146.091 139.778 145.093 138.811C144.103 137.836 143.608 136.515 143.608 134.849V125.682H148.946V133.658C148.946 134.4 149.132 134.974 149.505 135.38C149.879 135.777 150.382 135.976 151.015 135.976C151.614 135.976 152.091 135.764 152.447 135.341C152.812 134.918 152.994 134.361 152.994 133.671V125.682H158.332ZM160.336 139.976V125.682H165.543V128.491H165.648C166.012 127.482 166.567 126.713 167.314 126.187C168.06 125.66 168.976 125.397 170.061 125.397C171.666 125.397 172.898 125.872 173.758 126.821C174.625 127.762 175.059 129.096 175.059 130.822V139.976H169.722V132C169.722 131.267 169.548 130.697 169.201 130.291C168.863 129.886 168.364 129.683 167.704 129.683C167.079 129.683 166.585 129.899 166.22 130.33C165.856 130.753 165.674 131.306 165.674 131.988V139.976H160.336ZM182.232 140.184C180.462 140.184 179.086 139.536 178.106 138.241C177.125 136.938 176.635 135.121 176.635 132.79C176.635 130.494 177.134 128.703 178.132 127.417C179.138 126.122 180.535 125.475 182.323 125.475C183.347 125.475 184.232 125.734 184.979 126.252C185.734 126.761 186.254 127.43 186.541 128.258H186.645V121.292H191.982V139.976H186.645V137.503H186.541C186.289 138.272 185.769 138.91 184.979 139.42C184.197 139.929 183.282 140.184 182.232 140.184ZM186.059 130.434C185.652 129.855 185.092 129.566 184.38 129.566C183.668 129.566 183.108 129.86 182.7 130.447C182.302 131.025 182.102 131.819 182.102 132.829C182.102 133.856 182.302 134.659 182.7 135.237C183.1 135.807 183.66 136.092 184.38 136.092C185.1 136.092 185.66 135.807 186.059 135.237C186.467 134.668 186.671 133.869 186.671 132.842C186.671 131.815 186.467 131.012 186.059 130.434ZM204.896 125.345V130.084H207.174C207.947 130.084 208.554 129.868 208.997 129.437C209.448 129.005 209.673 128.435 209.673 127.728C209.673 127.028 209.444 126.459 208.983 126.018C208.523 125.57 207.925 125.345 207.187 125.345H204.896ZM204.896 133.71V139.976H199.376V121.292H207.721C210.203 121.292 212.086 121.845 213.37 122.95C214.664 124.055 215.31 125.617 215.31 127.637C215.31 128.768 215.041 129.812 214.503 130.77C213.974 131.729 213.232 132.436 212.277 132.894L215.844 139.976H209.673L206.705 133.71H204.896ZM224.175 140.339C221.815 140.339 219.966 139.687 218.63 138.384C217.293 137.072 216.625 135.216 216.625 132.816C216.625 130.477 217.302 128.643 218.656 127.313C220.018 125.984 221.858 125.319 224.175 125.319C226.51 125.319 228.354 125.984 229.708 127.313C231.062 128.634 231.739 130.468 231.739 132.816C231.739 135.216 231.07 137.072 229.734 138.384C228.397 139.687 226.544 140.339 224.175 140.339ZM224.175 136.545C224.843 136.545 225.369 136.222 225.75 135.574C226.132 134.927 226.323 134.012 226.323 132.829C226.323 131.672 226.128 130.766 225.737 130.11C225.355 129.445 224.835 129.113 224.175 129.113C223.516 129.113 222.995 129.445 222.613 130.11C222.231 130.766 222.04 131.672 222.04 132.829C222.04 134.02 222.227 134.94 222.6 135.587C222.973 136.226 223.498 136.545 224.175 136.545ZM247.503 131.599H242.647C242.595 130.883 242.382 130.317 242.009 129.903C241.637 129.48 241.163 129.268 240.59 129.268C239.887 129.268 239.35 129.571 238.976 130.175C238.612 130.779 238.43 131.659 238.43 132.816C238.43 133.982 238.612 134.871 238.976 135.484C239.341 136.088 239.879 136.39 240.59 136.39C241.189 136.39 241.671 136.196 242.035 135.807C242.4 135.41 242.604 134.858 242.647 134.15H247.503C247.477 136.083 246.843 137.598 245.603 138.695C244.361 139.791 242.669 140.339 240.525 140.339C238.191 140.339 236.355 139.674 235.019 138.345C233.691 137.007 233.027 135.164 233.027 132.816C233.027 130.486 233.691 128.656 235.019 127.326C236.355 125.988 238.182 125.319 240.499 125.319C242.6 125.319 244.283 125.885 245.55 127.015C246.817 128.146 247.468 129.674 247.503 131.599ZM254.598 130.848L258.087 125.682H263.958L259.18 131.78L264.296 139.976H258.164L255.196 134.953L254.493 135.885V139.976H249.156V121.292H254.493V130.848H254.598ZM115.773 152.082H113.613V149.255H111.025V152.082H108.866V144.771H111.025V147.548H113.613V144.771H115.773V152.082ZM122.554 150.775C122.795 150.775 123.003 150.714 123.18 150.593C123.357 150.468 123.445 150.306 123.445 150.106V149.742L122.559 149.802C122.362 149.816 122.209 149.867 122.1 149.954C121.991 150.042 121.937 150.155 121.937 150.294C121.937 150.442 121.993 150.561 122.105 150.648C122.217 150.733 122.367 150.775 122.554 150.775ZM121.774 152.163C121.251 152.163 120.804 152.003 120.435 151.682C120.064 151.358 119.879 150.949 119.879 150.456C119.879 149.922 120.078 149.51 120.475 149.22C120.876 148.926 121.455 148.755 122.212 148.708L123.445 148.632V148.358C123.445 148.176 123.382 148.034 123.257 147.933C123.131 147.831 122.968 147.781 122.767 147.781C122.561 147.781 122.391 147.83 122.258 147.928C122.126 148.026 122.051 148.149 122.034 148.298H120.17C120.196 147.696 120.451 147.222 120.934 146.874C121.416 146.523 122.064 146.347 122.879 146.347C123.657 146.347 124.285 146.524 124.764 146.879C125.243 147.23 125.483 147.69 125.483 148.257V152.082H123.445V151.332H123.404C123.262 151.596 123.039 151.8 122.737 151.946C122.438 152.091 122.117 152.163 121.774 152.163ZM129.767 152.082V146.489H131.804V147.588H131.845C131.988 147.193 132.205 146.892 132.497 146.686C132.789 146.48 133.148 146.377 133.572 146.377C134.2 146.377 134.682 146.563 135.018 146.935C135.358 147.303 135.528 147.825 135.528 148.5V152.082H133.44V148.961C133.44 148.674 133.372 148.451 133.236 148.293C133.104 148.134 132.908 148.054 132.65 148.054C132.406 148.054 132.212 148.139 132.069 148.308C131.926 148.473 131.855 148.689 131.855 148.956V152.082H129.767ZM141.83 152.163C141.137 152.163 140.599 151.91 140.215 151.403C139.831 150.893 139.639 150.182 139.639 149.27C139.639 148.372 139.835 147.671 140.225 147.168C140.619 146.661 141.166 146.408 141.865 146.408C142.266 146.408 142.613 146.509 142.905 146.712C143.2 146.911 143.404 147.173 143.516 147.497H143.557V144.771H145.645V152.082H143.557V151.115H143.516C143.417 151.415 143.214 151.665 142.905 151.864C142.599 152.064 142.24 152.163 141.83 152.163ZM143.327 148.348C143.168 148.122 142.949 148.009 142.67 148.009C142.392 148.009 142.173 148.124 142.013 148.353C141.857 148.58 141.779 148.89 141.779 149.286C141.779 149.688 141.857 150.002 142.013 150.228C142.169 150.451 142.388 150.562 142.67 150.562C142.952 150.562 143.171 150.451 143.327 150.228C143.487 150.005 143.567 149.693 143.567 149.291C143.567 148.889 143.487 148.575 143.327 148.348ZM150.887 154.134H150.143V152.589H150.546C150.841 152.589 151.057 152.56 151.193 152.503C151.332 152.449 151.401 152.359 151.401 152.234C151.401 152.184 151.393 152.133 151.376 152.082L149.532 146.489H151.85L152.705 150.593H152.746L153.597 146.489H155.802L154.127 151.951C153.889 152.727 153.517 153.285 153.011 153.623C152.509 153.964 151.801 154.134 150.887 154.134ZM159.69 152.082V146.489H161.727V147.619H161.768C161.873 147.24 162.072 146.94 162.364 146.717C162.656 146.49 162.994 146.377 163.377 146.377C163.805 146.377 164.155 146.485 164.427 146.702C164.702 146.914 164.873 147.217 164.941 147.609H164.982C165.077 147.237 165.281 146.94 165.593 146.717C165.909 146.49 166.281 146.377 166.709 146.377C167.256 146.377 167.7 146.556 168.044 146.914C168.387 147.269 168.558 147.732 168.558 148.303V152.082H166.469V148.84C166.469 148.309 166.242 148.044 165.787 148.044C165.576 148.044 165.412 148.115 165.293 148.257C165.174 148.396 165.114 148.588 165.114 148.835V152.082H163.133V148.845C163.133 148.311 162.907 148.044 162.455 148.044C162.245 148.044 162.079 148.115 161.956 148.257C161.838 148.399 161.778 148.591 161.778 148.835V152.082H159.69ZM175.288 150.775C175.529 150.775 175.737 150.714 175.914 150.593C176.09 150.468 176.179 150.306 176.179 150.106V149.742L175.293 149.802C175.096 149.816 174.943 149.867 174.834 149.954C174.725 150.042 174.671 150.155 174.671 150.294C174.671 150.442 174.727 150.561 174.839 150.648C174.952 150.733 175.1 150.775 175.288 150.775ZM174.508 152.163C173.985 152.163 173.539 152.003 173.168 151.682C172.798 151.358 172.613 150.949 172.613 150.456C172.613 149.922 172.812 149.51 173.209 149.22C173.61 148.926 174.189 148.755 174.946 148.708L176.179 148.632V148.358C176.179 148.176 176.116 148.034 175.991 147.933C175.865 147.831 175.702 147.781 175.502 147.781C175.294 147.781 175.124 147.83 174.992 147.928C174.859 148.026 174.785 148.149 174.768 148.298H172.903C172.931 147.696 173.186 147.222 173.668 146.874C174.15 146.523 174.799 146.347 175.613 146.347C176.391 146.347 177.019 146.524 177.498 146.879C177.977 147.23 178.216 147.69 178.216 148.257V152.082H176.179V151.332H176.138C175.995 151.596 175.773 151.8 175.471 151.946C175.172 152.091 174.851 152.163 174.508 152.163ZM182.501 152.082V146.489H184.538V147.588H184.579C184.722 147.193 184.939 146.892 185.231 146.686C185.524 146.48 185.882 146.377 186.306 146.377C186.934 146.377 187.416 146.563 187.753 146.935C188.092 147.303 188.262 147.825 188.262 148.5V152.082H186.174V148.961C186.174 148.674 186.105 148.451 185.97 148.293C185.838 148.134 185.642 148.054 185.384 148.054C185.139 148.054 184.946 148.139 184.803 148.308C184.661 148.473 184.589 148.689 184.589 148.956V152.082H182.501ZM197.9 148.227C197.9 147.642 198.135 147.183 198.603 146.849C199.072 146.514 199.715 146.347 200.534 146.347C201.356 146.347 201.998 146.519 202.46 146.864C202.925 147.208 203.158 147.686 203.158 148.298H201.262C201.262 148.115 201.195 147.972 201.059 147.867C200.926 147.759 200.747 147.705 200.519 147.705C200.332 147.705 200.181 147.74 200.066 147.811C199.953 147.879 199.897 147.972 199.897 148.09C199.897 148.265 200.079 148.387 200.442 148.455L201.711 148.703C202.268 148.811 202.675 148.99 202.933 149.24C203.195 149.487 203.326 149.823 203.326 150.248C203.326 150.853 203.074 151.334 202.572 151.692C202.073 152.047 201.408 152.224 200.58 152.224C199.714 152.224 199.038 152.05 198.552 151.702C198.07 151.351 197.81 150.873 197.773 150.268H199.79C199.811 150.454 199.892 150.601 200.035 150.709C200.181 150.814 200.371 150.866 200.605 150.866C200.809 150.866 200.969 150.834 201.084 150.77C201.2 150.703 201.257 150.611 201.257 150.496C201.257 150.409 201.217 150.338 201.135 150.284C201.054 150.226 200.918 150.181 200.727 150.147L199.642 149.934C199.076 149.823 198.643 149.622 198.344 149.331C198.048 149.037 197.9 148.669 197.9 148.227ZM210.157 147.776C209.919 147.776 209.719 147.853 209.556 148.009C209.393 148.164 209.301 148.362 209.281 148.602H211.033C211.016 148.352 210.926 148.152 210.763 148.004C210.603 147.852 210.402 147.776 210.157 147.776ZM211.094 150.268H212.954C212.865 150.873 212.573 151.351 212.077 151.702C211.582 152.05 210.948 152.224 210.177 152.224C209.257 152.224 208.537 151.968 208.017 151.454C207.498 150.937 207.238 150.225 207.238 149.316C207.238 148.401 207.496 147.678 208.012 147.147C208.528 146.614 209.228 146.347 210.111 146.347C210.984 146.347 211.68 146.604 212.199 147.117C212.719 147.627 212.979 148.309 212.979 149.164V149.726H209.25V149.858C209.25 150.132 209.34 150.358 209.52 150.537C209.7 150.713 209.929 150.801 210.208 150.801C210.422 150.801 210.607 150.753 210.763 150.659C210.923 150.564 211.033 150.434 211.094 150.268ZM217.11 152.082V146.489H219.148V147.588H219.189C219.4 146.801 219.838 146.408 220.503 146.408C220.683 146.408 220.846 146.435 220.992 146.489V148.232C220.808 148.154 220.607 148.115 220.386 148.115C219.595 148.115 219.199 148.509 219.199 149.296V152.082H217.11ZM230.62 146.489L228.816 152.082H226.367L224.538 146.489H226.789L227.605 150.405H227.645L228.434 146.489H230.62ZM234.451 152.082V146.489H236.539V152.082H234.451ZM236.234 145.901C236.037 146.087 235.79 146.18 235.495 146.18C235.2 146.18 234.952 146.087 234.751 145.901C234.555 145.712 234.456 145.477 234.456 145.197C234.456 144.916 234.555 144.683 234.751 144.498C234.952 144.308 235.2 144.214 235.495 144.214C235.79 144.214 236.037 144.308 236.234 144.498C236.434 144.683 236.535 144.916 236.535 145.197C236.535 145.477 236.434 145.712 236.234 145.901ZM246.34 148.804H244.441C244.42 148.524 244.337 148.303 244.191 148.141C244.045 147.975 243.86 147.892 243.635 147.892C243.361 147.892 243.15 148.01 243.004 148.247C242.861 148.483 242.79 148.828 242.79 149.28C242.79 149.737 242.861 150.084 243.004 150.324C243.146 150.561 243.357 150.679 243.635 150.679C243.87 150.679 244.059 150.603 244.201 150.451C244.344 150.296 244.424 150.079 244.441 149.802H246.34C246.331 150.559 246.082 151.152 245.597 151.581C245.111 152.01 244.449 152.224 243.61 152.224C242.697 152.224 241.978 151.964 241.455 151.444C240.936 150.92 240.676 150.199 240.676 149.28C240.676 148.368 240.936 147.652 241.455 147.132C241.978 146.609 242.693 146.347 243.6 146.347C244.422 146.347 245.08 146.568 245.576 147.011C246.072 147.453 246.327 148.051 246.34 148.804ZM253.233 147.776C252.995 147.776 252.795 147.853 252.632 148.009C252.469 148.164 252.377 148.362 252.357 148.602H254.109C254.092 148.352 254.002 148.152 253.839 148.004C253.679 147.852 253.477 147.776 253.233 147.776ZM254.17 150.268H256.03C255.941 150.873 255.649 151.351 255.153 151.702C254.657 152.05 254.024 152.224 253.253 152.224C252.333 152.224 251.613 151.968 251.093 151.454C250.574 150.937 250.314 150.225 250.314 149.316C250.314 148.401 250.572 147.678 251.088 147.147C251.605 146.614 252.304 146.347 253.187 146.347C254.06 146.347 254.756 146.604 255.276 147.117C255.795 147.627 256.055 148.309 256.055 149.164V149.726H252.326V149.858C252.326 150.132 252.416 150.358 252.596 150.537C252.776 150.713 253.005 150.801 253.284 150.801C253.498 150.801 253.683 150.753 253.839 150.659C253.999 150.564 254.109 150.434 254.17 150.268ZM260.09 148.227C260.09 147.642 260.324 147.183 260.793 146.849C261.261 146.514 261.905 146.347 262.723 146.347C263.545 146.347 264.187 146.519 264.648 146.864C265.114 147.208 265.347 147.686 265.347 148.298H263.452C263.452 148.115 263.384 147.972 263.248 147.867C263.116 147.759 262.935 147.705 262.708 147.705C262.521 147.705 262.37 147.74 262.255 147.811C262.142 147.879 262.087 147.972 262.087 148.09C262.087 148.265 262.268 148.387 262.632 148.455L263.9 148.703C264.457 148.811 264.865 148.99 265.123 149.24C265.384 149.487 265.515 149.823 265.515 150.248C265.515 150.853 265.263 151.334 264.761 151.692C264.262 152.047 263.598 152.224 262.769 152.224C261.903 152.224 261.227 152.05 260.742 151.702C260.259 151.351 260 150.873 259.963 150.268H261.98C262 150.454 262.082 150.601 262.224 150.709C262.37 150.814 262.56 150.866 262.794 150.866C262.998 150.866 263.158 150.834 263.273 150.77C263.389 150.703 263.446 150.611 263.446 150.496C263.446 150.409 263.406 150.338 263.324 150.284C263.243 150.226 263.107 150.181 262.917 150.147L261.832 149.934C261.265 149.823 260.832 149.622 260.533 149.331C260.237 149.037 260.09 148.669 260.09 148.227Z" fill="#7C4032"/>
<path d="M95.7315 117.043L88.0632 122.064L86.2068 119.32L93.8763 114.297L92.8406 112.769L85.9066 111.401L80.0146 115.257L78.62 122.084L78.6809 122.175L75.6642 124.076C75.4053 123.851 75.1464 123.632 74.8874 123.416C75.1464 122.153 74.3903 120.763 73.0826 120.157C72.047 119.675 70.9024 119.79 70.1049 120.381C67.8085 119.267 65.3423 118.531 62.8043 118.201C62.5634 117.619 62.1548 117.118 61.6287 116.762C61.1026 116.405 60.482 116.207 59.8433 116.193C58.3972 116.15 57.1168 116.987 56.6416 118.201C54.1006 118.531 51.6317 119.269 49.3332 120.385C48.5369 119.796 47.3911 119.684 46.3632 120.164C45.0568 120.771 44.3072 122.157 44.5571 123.418C44.2813 123.641 44.012 123.869 43.7467 124.104L40.677 122.171L41.2104 121.381L39.5584 119.233C41.4813 117.181 43.947 115.696 46.6791 114.945L47.7757 114.643L45.2717 110L44.6244 110.103C36.4913 111.401 30.506 115.199 26.8317 121.403L26.6388 121.728L26.7385 122.092C27.2305 123.89 27.3328 125.069 27.303 125.812L25.9941 124.955L22 130.894L29.4534 135.782L33.4475 129.847L32.0738 128.946C33.1523 128.388 34.3874 128.218 35.8193 128.427L36.3942 128.509L36.9121 127.745L39.2308 129.322C37.1514 132.493 35.7615 136.054 35.1487 139.78C34.3473 140.085 33.0345 140.771 32.8779 142.017C32.6655 143.708 34.7862 144.89 35.4827 145.28C36.7697 145.997 37.7342 146.485 38.4397 146.84L39.0573 147.155L33.054 150.935C31.8758 151.675 31.055 152.78 30.8012 153.965C30.7036 154.379 30.6913 154.808 30.7651 155.226C30.8389 155.645 30.9973 156.045 31.231 156.402L32.0389 157.597C32.284 157.946 32.5978 158.244 32.9615 158.471C33.3253 158.699 33.7318 158.853 34.157 158.924C34.4157 158.971 34.6784 158.995 34.9416 158.995C35.9911 158.978 37.0107 158.648 37.8663 158.05L45.053 153.164C45.6544 153.538 46.2909 153.856 46.9536 154.111C49.7669 155.211 53.8153 155.724 59.6867 155.724C65.558 155.724 69.6065 155.215 72.4198 154.111C73.08 153.856 73.7143 153.54 74.3139 153.167L81.4943 158.05C82.3503 158.648 83.3704 158.978 84.42 158.995C84.6831 158.995 84.9451 158.971 85.2035 158.924C85.6289 158.852 86.0364 158.698 86.4004 158.469C86.7643 158.241 87.0779 157.942 87.323 157.592L88.131 156.397C88.3634 156.039 88.5216 155.64 88.5952 155.221C88.6688 154.803 88.6566 154.374 88.5593 153.96C88.3002 152.775 87.4859 151.667 86.3088 150.931L80.3137 147.151C80.4997 147.054 80.702 146.95 80.9373 146.833C81.6415 146.477 82.6076 145.989 83.8943 145.272C84.5909 144.882 86.7116 143.7 86.4983 142.009C86.3465 140.796 85.0998 140.116 84.2971 139.799C83.6839 136.05 82.2842 132.468 80.1879 129.28L82.4512 127.741L82.5427 127.878L89.4825 129.25L95.3745 125.392L96.7672 118.564L95.7315 117.043ZM28.9395 133.269L24.5402 130.385L26.5081 127.462L27.3884 128.039L27.4104 128.052C27.4159 128.057 27.422 128.061 27.4286 128.065L27.4441 128.075L29.8884 129.678C29.9156 129.697 29.9428 129.716 29.9713 129.732L30.9073 130.347L28.9395 133.269ZM30.396 127.837L29.0081 126.926C29.2281 125.972 29.2385 124.436 28.6093 121.989C31.9496 116.549 37.0816 113.273 44.2749 111.99L45.1087 113.535C42.2422 114.525 39.7474 116.222 37.6785 118.591L37.1956 119.143L38.9603 121.449L35.4996 126.563C33.564 126.397 31.8524 126.825 30.396 127.837ZM72.2942 121.785C72.8471 122.04 73.2005 122.633 73.071 123.097C73.0529 123.138 73.0231 123.202 72.9856 123.287C72.9778 123.301 72.9713 123.316 72.9635 123.333C72.9558 123.35 72.9635 123.333 72.9635 123.333C72.9598 123.342 72.9554 123.351 72.9506 123.36C72.6541 123.997 71.9913 125.398 71.1873 126.889C70.9685 127.295 70.7406 127.708 70.5063 128.116C70.0708 128.887 69.5955 129.637 69.0822 130.361C68.5642 131.069 68.2173 131.424 68.0011 131.602C67.993 131.411 67.9999 131.219 68.0218 131.029C68.0736 130.52 68.2199 129.732 68.572 128.539C68.6886 128.143 68.831 127.7 68.9954 127.209C69.7528 124.975 70.7121 122.756 70.9879 122.129C71.0138 122.069 71.0371 122.017 71.0591 121.968L71.0682 121.956C71.2947 121.647 71.8203 121.57 72.2942 121.79V121.785ZM59.776 117.997C60.4713 118.021 61.0707 118.498 61.1509 119.092C61.1509 119.159 61.1509 119.238 61.1509 119.323C61.1445 120.153 61.1005 123.079 60.8376 125.903C60.4894 129.633 59.9702 130.908 59.719 131.322C59.4717 130.915 58.9617 129.666 58.6147 126.053C58.3558 123.327 58.2988 120.512 58.2871 119.428C58.2871 119.267 58.2871 119.153 58.2871 119.092C58.3803 118.461 59.0342 117.978 59.776 117.997ZM47.14 121.798C47.6113 121.58 48.1317 121.655 48.3621 121.965C48.3678 121.971 48.3729 121.978 48.3777 121.985C48.3984 122.031 48.423 122.084 48.4476 122.142C48.7234 122.77 49.6827 124.989 50.4401 127.223C50.6136 127.732 50.7573 128.19 50.8764 128.599C51.2286 129.798 51.3697 130.581 51.4163 131.083C51.4347 131.259 51.4404 131.437 51.4331 131.614C51.2247 131.444 50.8894 131.105 50.4051 130.446C49.8716 129.702 49.3789 128.93 48.9292 128.134C48.7065 127.745 48.4877 127.351 48.2819 126.964C47.4598 125.443 46.7826 124.015 46.4823 123.378L46.4719 123.355C46.4654 123.341 46.459 123.328 46.4538 123.315L46.3619 123.114C46.2402 122.647 46.5885 122.055 47.14 121.798ZM37.9245 126.242L39.6581 123.677L42.3769 125.393C41.6255 126.164 40.9237 126.98 40.2756 127.837L37.9245 126.242ZM36.8175 156.564C36.0822 157.065 35.216 157.283 34.4975 157.148C34.3121 157.12 34.1341 157.056 33.9737 156.961C33.8133 156.865 33.6736 156.74 33.5628 156.591L32.7548 155.396C32.562 155.077 32.5052 154.697 32.5969 154.337C32.7458 153.634 33.2869 152.936 34.0404 152.456L40.6822 148.27C41.0369 148.645 41.3839 149.145 41.9082 149.952C42.3745 150.691 42.9252 151.375 43.5498 151.99L36.8175 156.564ZM85.3148 152.45C86.0683 152.923 86.6096 153.626 86.7585 154.329C86.8049 154.508 86.8147 154.695 86.7869 154.878C86.7597 155.061 86.6954 155.236 86.598 155.394L85.7901 156.589C85.6788 156.738 85.5391 156.864 85.3786 156.96C85.2174 157.055 85.0395 157.119 84.8541 157.146C84.1365 157.281 83.2689 157.063 82.5323 156.561L75.8119 151.991C76.4384 151.373 76.9905 150.686 77.4574 149.944C77.9752 149.14 78.3274 148.639 78.6782 148.266L85.3148 152.45ZM84.6779 142.233C84.6779 142.254 84.6645 142.767 82.9948 143.704C81.7412 144.402 80.8341 144.861 80.1039 145.233C79.4719 145.552 78.9838 145.803 78.5721 146.056C78.0221 146.382 77.5338 146.8 77.1285 147.29C76.6934 147.829 76.2909 148.392 75.9232 148.977C75.4711 149.708 74.9152 150.371 74.2725 150.947C73.7769 151.374 73.2284 151.739 72.6399 152.031C70.3716 153.178 66.6248 153.923 59.6931 153.923C52.7614 153.923 49.0004 153.178 46.7283 152.027C46.1401 151.735 45.592 151.37 45.097 150.942C44.4563 150.367 43.9022 149.706 43.4515 148.977C43.0827 148.39 42.6785 147.825 42.2409 147.285C41.8364 146.797 41.3494 146.381 40.8013 146.056C40.3908 145.801 39.904 145.555 39.2735 145.236C38.5447 144.867 37.6371 144.408 36.3838 143.708C34.6826 142.757 34.7008 142.242 34.7008 142.237C34.7253 142.039 35.2057 141.71 35.7559 141.487C36.5509 142.077 38.5822 143.474 41.7373 144.873C41.9177 144.953 42.1033 145.034 42.294 145.115C42.9336 145.387 43.634 145.663 44.3927 145.936C46.2527 146.603 48.158 147.141 50.0944 147.546C50.9114 147.718 51.7646 147.872 52.6501 148.004C54.8672 148.334 57.1064 148.499 59.3488 148.498C61.7771 148.498 64.2015 148.307 66.5989 147.927C67.4755 147.79 68.3209 147.63 69.1326 147.456C71.065 147.041 72.968 146.503 74.8292 145.844C75.5917 145.575 76.2986 145.301 76.9447 145.034L77.3214 144.877C80.6319 143.476 82.8041 142.074 83.6456 141.496C84.1858 141.724 84.6529 142.04 84.6779 142.233ZM82.4767 140.087C81.6328 140.66 79.5716 141.958 76.5213 143.243C76.0617 143.436 75.5658 143.636 75.0376 143.836C74.3605 144.091 73.6277 144.346 72.8432 144.601C70.9363 145.205 68.9898 145.682 67.0171 146.026C66.1613 146.177 65.2719 146.307 64.3527 146.409C62.6916 146.597 61.0209 146.692 59.3488 146.693C57.866 146.693 56.3842 146.618 54.9093 146.468C53.9759 146.373 53.076 146.251 52.2125 146.107C50.228 145.778 48.2707 145.305 46.3567 144.694C45.5799 144.439 44.8471 144.184 44.1752 143.929C43.5926 143.704 43.0514 143.478 42.5542 143.259C39.6516 141.985 37.7316 140.686 36.9496 140.115C37.5142 136.637 38.8035 133.313 40.7365 130.349C41.068 129.84 41.4175 129.346 41.7852 128.867C42.4524 127.994 43.1795 127.166 43.9616 126.391C44.3931 125.966 44.8407 125.556 45.3041 125.16C45.7068 125.991 46.2635 127.102 46.8862 128.234C47.0157 128.478 47.1581 128.723 47.2979 128.967C49.3397 132.534 50.4051 133.26 51.0978 133.499C51.2773 133.562 51.4664 133.595 51.6571 133.597C51.8921 133.597 52.1239 133.542 52.3329 133.436C52.7938 133.204 53.0864 132.812 53.2094 132.219C53.3246 131.669 53.2949 130.945 53.1188 130.018C52.9237 129.057 52.6685 128.108 52.3549 127.178C51.683 125.108 50.8013 122.974 50.3404 121.912C52.2754 120.997 54.3379 120.37 56.4603 120.052C56.4862 121.543 56.5717 124.277 56.8488 126.835C57.0365 128.562 57.2837 129.939 57.5854 130.926C57.7628 131.509 58.304 133.279 59.7178 133.279C61.1315 133.279 61.6895 131.464 61.8669 130.868C62.1699 129.848 62.4171 128.447 62.6036 126.68C62.8625 124.157 62.9492 121.456 62.9751 120.055C65.0967 120.372 67.1585 120.998 69.0925 121.912C68.6341 122.972 67.7512 125.104 67.0805 127.172C66.7724 128.088 66.5203 129.021 66.3258 129.967C66.2222 130.464 66.1658 130.97 66.1575 131.478C66.1553 131.713 66.1761 131.948 66.2196 132.179C66.3374 132.79 66.6326 133.198 67.1026 133.43C67.3117 133.535 67.5434 133.59 67.7784 133.589C67.9686 133.588 68.1573 133.555 68.3364 133.492C69.0342 133.254 70.0959 132.523 72.1375 128.959C72.2878 128.695 72.4366 128.432 72.5816 128.168C73.1901 127.058 73.7339 125.974 74.1288 125.157C74.5828 125.542 75.0212 125.944 75.4442 126.364C76.2278 127.138 76.9562 127.964 77.6244 128.837C77.9921 129.316 78.3421 129.809 78.6744 130.317C80.6168 133.28 81.9133 136.608 82.4819 140.089L82.4767 140.087ZM79.134 127.805C78.4829 126.949 77.7781 126.133 77.0237 125.364L79.6985 123.678L81.4334 126.243L79.134 127.805ZM93.725 124.308L89.0977 127.337L83.6526 126.261L80.5699 121.703L81.6635 116.352L86.2897 113.313L90.7228 114.189L83.663 118.816L87.5468 124.567L94.6065 119.945L93.725 124.308Z" fill="#7C4032"/>
</g>
<defs>
<clipPath id="clip0_304_3">
<rect width="244" height="49" fill="white" transform="translate(22 110)"/>
</clipPath>
</defs>
</svg>
