<svg width="288" height="269" viewBox="0 0 288 269" fill="none" xmlns="http://www.w3.org/2000/svg">
<rect width="288" height="269" rx="20" fill="white"/>
<g clip-path="url(#clip0_304_6)">
<path d="M80.5568 135.408C79.9254 135.408 79.4791 135.28 79.2179 135.023C78.9784 134.766 78.8587 134.36 78.8587 133.804V115.218C78.8587 114.662 78.9893 114.255 79.2505 113.999C79.5118 113.721 79.9472 113.581 80.5568 113.581H88.5903C91.6163 113.581 93.848 114.202 95.2849 115.443C96.7218 116.684 97.4402 118.535 97.4402 120.996C97.4402 124.056 96.243 126.164 93.848 127.32L97.081 134.221C97.1679 134.392 97.2117 134.563 97.2117 134.734C97.2117 134.927 97.1352 135.087 96.9831 135.216C96.8524 135.344 96.6676 135.408 96.4279 135.408H91.856C91.5294 135.408 91.2682 135.366 91.0722 135.28C90.8978 135.194 90.7672 135.034 90.6803 134.799L87.9698 128.283H85.4553V133.804C85.4553 134.36 85.3247 134.766 85.0634 135.023C84.8022 135.28 84.3561 135.408 83.7245 135.408H80.5568ZM87.8719 123.692C89.8528 123.692 90.8436 122.794 90.8436 120.996C90.8436 119.177 89.9077 118.268 88.0352 118.268H85.4553V123.692H87.8719ZM106.906 135.89C103.923 135.89 101.604 135.162 99.9499 133.707C98.2949 132.231 97.468 130.23 97.468 127.705C97.468 125.18 98.2949 123.19 99.9499 121.734C101.604 120.258 103.923 119.52 106.906 119.52C109.888 119.52 112.207 120.258 113.862 121.734C115.538 123.19 116.376 125.18 116.376 127.705C116.376 130.23 115.538 132.231 113.862 133.707C112.207 135.162 109.888 135.89 106.906 135.89ZM106.906 131.3C108.821 131.3 109.78 130.101 109.78 127.705C109.78 125.351 108.821 124.174 106.906 124.174C104.989 124.174 104.032 125.351 104.032 127.705C104.032 128.903 104.282 129.802 104.783 130.401C105.283 131 105.991 131.3 106.906 131.3ZM124.377 135.89C122.483 135.89 121.002 135.408 119.936 134.446C118.891 133.461 118.368 131.963 118.368 129.952V121.638C118.368 121.082 118.499 120.675 118.76 120.418C119.021 120.14 119.456 120.001 120.066 120.001H123.234C123.865 120.001 124.312 120.14 124.573 120.418C124.834 120.675 124.965 121.082 124.965 121.638V129.695C124.965 130.915 125.563 131.525 126.761 131.525C127.414 131.525 127.914 131.353 128.263 131.011C128.611 130.669 128.786 130.187 128.786 129.567V121.638C128.786 121.082 128.916 120.675 129.178 120.418C129.439 120.14 129.885 120.001 130.516 120.001H133.684C134.315 120.001 134.762 120.14 135.023 120.418C135.284 120.675 135.415 121.082 135.415 121.638V134.413C135.415 134.82 135.339 135.087 135.186 135.216C135.056 135.344 134.762 135.408 134.305 135.408H130.941C130.68 135.408 130.473 135.376 130.32 135.312C130.19 135.248 130.113 135.12 130.092 134.927L129.929 133.932C129.297 134.531 128.513 135.013 127.577 135.376C126.641 135.719 125.574 135.89 124.377 135.89ZM139.939 135.408C139.308 135.408 138.861 135.28 138.6 135.023C138.339 134.766 138.208 134.36 138.208 133.804V120.996C138.208 120.611 138.273 120.354 138.404 120.226C138.557 120.076 138.861 120.001 139.318 120.001H142.682C142.943 120.001 143.139 120.044 143.27 120.13C143.423 120.194 143.509 120.322 143.531 120.515L143.694 121.478C144.304 120.879 145.099 120.408 146.078 120.065C147.08 119.702 148.19 119.52 149.409 119.52C151.173 119.52 152.599 120.012 153.687 120.996C154.776 121.959 155.32 123.393 155.32 125.297V133.804C155.32 134.36 155.189 134.766 154.928 135.023C154.689 135.28 154.253 135.408 153.622 135.408H150.454C149.823 135.408 149.366 135.28 149.083 135.023C148.821 134.766 148.691 134.36 148.691 133.804V125.715C148.691 125.073 148.55 124.613 148.266 124.334C147.983 124.056 147.537 123.917 146.927 123.917C146.274 123.917 145.752 124.088 145.36 124.431C144.99 124.773 144.805 125.244 144.805 125.843V133.804C144.805 134.36 144.674 134.766 144.413 135.023C144.174 135.28 143.738 135.408 143.106 135.408H139.939ZM167.092 135.89C163.848 135.89 161.41 135.194 159.777 133.804C158.144 132.413 157.327 130.348 157.327 127.609C157.327 125.148 158.024 123.19 159.417 121.734C160.811 120.258 162.781 119.52 165.328 119.52C166.047 119.52 166.744 119.605 167.418 119.776C168.093 119.926 168.627 120.13 169.019 120.386V115.218C169.019 114.662 169.149 114.255 169.41 113.999C169.672 113.721 170.118 113.581 170.749 113.581H173.786C174.418 113.581 174.864 113.721 175.125 113.999C175.387 114.255 175.517 114.662 175.517 115.218V133.611C174.581 134.274 173.362 134.82 171.86 135.248C170.357 135.676 168.768 135.89 167.092 135.89ZM167.288 131.525C168.028 131.525 168.616 131.407 169.051 131.171V126.004C169.051 124.591 168.279 123.885 166.733 123.885C165.774 123.885 165.056 124.227 164.577 124.912C164.12 125.576 163.891 126.485 163.891 127.641C163.891 129.032 164.174 130.027 164.741 130.626C165.307 131.225 166.156 131.525 167.288 131.525ZM190.805 135.408C190.173 135.408 189.727 135.28 189.466 135.023C189.226 134.766 189.107 134.36 189.107 133.804V115.218C189.107 114.662 189.237 114.255 189.499 113.999C189.76 113.721 190.195 113.581 190.805 113.581H198.838C201.864 113.581 204.096 114.202 205.533 115.443C206.97 116.684 207.688 118.535 207.688 120.996C207.688 124.056 206.49 126.164 204.096 127.32L207.329 134.221C207.416 134.392 207.46 134.563 207.46 134.734C207.46 134.927 207.383 135.087 207.231 135.216C207.1 135.344 206.915 135.408 206.676 135.408H202.104C201.777 135.408 201.516 135.366 201.32 135.28C201.146 135.194 201.015 135.034 200.928 134.799L198.218 128.283H195.703V133.804C195.703 134.36 195.573 134.766 195.311 135.023C195.05 135.28 194.603 135.408 193.972 135.408H190.805ZM198.12 123.692C200.101 123.692 201.092 122.794 201.092 120.996C201.092 119.177 200.155 118.268 198.283 118.268H195.703V123.692H198.12ZM217.153 135.89C214.171 135.89 211.852 135.162 210.197 133.707C208.543 132.231 207.715 130.23 207.715 127.705C207.715 125.18 208.543 123.19 210.197 121.734C211.852 120.258 214.171 119.52 217.153 119.52C220.136 119.52 222.455 120.258 224.109 121.734C225.785 123.19 226.623 125.18 226.623 127.705C226.623 130.23 225.785 132.231 224.109 133.707C222.455 135.162 220.136 135.89 217.153 135.89ZM217.153 131.3C219.069 131.3 220.027 130.101 220.027 127.705C220.027 125.351 219.069 124.174 217.153 124.174C215.237 124.174 214.279 125.351 214.279 127.705C214.279 128.903 214.53 129.802 215.03 130.401C215.531 131 216.239 131.3 217.153 131.3ZM236.833 135.89C233.784 135.89 231.433 135.194 229.779 133.804C228.124 132.413 227.297 130.39 227.297 127.737C227.297 126.111 227.678 124.677 228.44 123.436C229.201 122.195 230.301 121.232 231.738 120.547C233.197 119.862 234.916 119.52 236.898 119.52C238.4 119.52 239.663 119.659 240.686 119.937C241.731 120.215 242.656 120.643 243.462 121.221C243.701 121.371 243.821 121.563 243.821 121.799C243.821 121.97 243.734 122.195 243.56 122.473L242.221 124.752C242.068 125.051 241.883 125.201 241.666 125.201C241.535 125.201 241.328 125.116 241.045 124.944C240.458 124.581 239.902 124.313 239.38 124.142C238.879 123.971 238.247 123.885 237.486 123.885C236.397 123.885 235.515 124.227 234.841 124.912C234.187 125.597 233.861 126.539 233.861 127.737C233.861 128.957 234.198 129.898 234.873 130.562C235.548 131.204 236.473 131.525 237.649 131.525C238.345 131.525 238.977 131.428 239.543 131.236C240.109 131.043 240.686 130.776 241.274 130.433C241.578 130.262 241.796 130.176 241.927 130.176C242.123 130.176 242.297 130.326 242.45 130.626L243.919 133.097C244.028 133.311 244.082 133.483 244.082 133.611C244.082 133.804 243.952 133.985 243.691 134.157C242.776 134.734 241.774 135.162 240.686 135.441C239.619 135.74 238.335 135.89 236.833 135.89ZM263.955 134.189C264.108 134.36 264.184 134.553 264.184 134.766C264.184 134.959 264.119 135.12 263.988 135.248C263.857 135.355 263.683 135.408 263.466 135.408H258.404C258.099 135.408 257.87 135.387 257.718 135.344C257.587 135.28 257.446 135.162 257.294 134.991L252.852 129.053V133.804C252.852 134.36 252.722 134.766 252.46 135.023C252.199 135.28 251.752 135.408 251.121 135.408H247.954C247.322 135.408 246.876 135.28 246.615 135.023C246.375 134.766 246.256 134.36 246.256 133.804V115.218C246.256 114.662 246.386 114.255 246.647 113.999C246.909 113.721 247.344 113.581 247.954 113.581H251.121C251.752 113.581 252.199 113.721 252.46 113.999C252.722 114.255 252.852 114.662 252.852 115.218V125.971L257.163 120.451C257.294 120.279 257.435 120.162 257.587 120.097C257.74 120.033 257.968 120.001 258.273 120.001H263.335C263.552 120.001 263.716 120.065 263.825 120.194C263.955 120.301 264.021 120.451 264.021 120.643C264.021 120.857 263.944 121.05 263.792 121.221L258.208 127.512L263.955 134.189ZM84.0591 153.217C82.0849 153.217 80.5543 152.727 79.4674 151.745C78.3805 150.753 77.8371 149.309 77.8371 147.412C77.8371 145.504 78.3639 144.06 79.4175 143.079C80.4822 142.098 81.9962 141.607 83.9592 141.607C84.8132 141.607 85.5841 141.694 86.2717 141.869C86.9593 142.032 87.5361 142.267 88.0019 142.572C88.1239 142.648 88.1849 142.746 88.1849 142.866C88.1849 142.943 88.1461 143.057 88.0684 143.21L87.3531 144.403C87.2865 144.545 87.1978 144.616 87.0869 144.616C87.0203 144.616 86.9094 144.578 86.7542 144.501C86.0887 144.142 85.3068 143.962 84.4084 143.962C83.377 143.962 82.5784 144.256 82.0128 144.845C81.4582 145.423 81.181 146.278 81.181 147.412C81.181 148.546 81.4804 149.407 82.0793 149.996C82.6782 150.584 83.4934 150.879 84.5249 150.879C85.4343 150.879 86.2384 150.699 86.9372 150.339C87.0924 150.263 87.2033 150.225 87.2699 150.225C87.3697 150.225 87.4584 150.29 87.5361 150.421L88.2847 151.68C88.3512 151.789 88.3845 151.887 88.3845 151.974C88.3845 152.072 88.318 152.171 88.1849 152.269C87.2532 152.901 85.878 153.217 84.0591 153.217ZM92.8215 152.972C92.4999 152.972 92.2725 152.906 92.1394 152.776C92.0174 152.645 91.9564 152.438 91.9564 152.154V142.686C91.9564 142.403 92.023 142.196 92.156 142.065C92.2891 141.923 92.511 141.852 92.8215 141.852H94.4352C94.7569 141.852 94.9842 141.923 95.1173 142.065C95.2504 142.196 95.317 142.403 95.317 142.686V152.154C95.317 152.438 95.2504 152.645 95.1173 152.776C94.9842 152.906 94.7569 152.972 94.4352 152.972H92.8215ZM103.753 153.217C102.822 153.217 101.99 153.065 101.258 152.759C100.537 152.454 99.9659 151.996 99.5444 151.386C99.123 150.775 98.9123 150.028 98.9123 149.145C98.9123 147.761 99.3115 146.704 100.11 145.973C100.909 145.243 102.057 144.878 103.554 144.878C105.018 144.878 106.127 145.237 106.881 145.957C107.646 146.665 108.029 147.652 108.029 148.917C108.029 149.462 107.785 149.734 107.297 149.734H102.073C102.073 150.203 102.251 150.563 102.606 150.813C102.972 151.064 103.521 151.189 104.253 151.189C104.707 151.189 105.084 151.151 105.384 151.075C105.694 150.988 106.005 150.862 106.315 150.699C106.449 150.644 106.537 150.617 106.582 150.617C106.681 150.617 106.765 150.683 106.831 150.813L107.397 151.86C107.452 151.969 107.48 152.051 107.48 152.105C107.48 152.203 107.413 152.296 107.28 152.383C106.826 152.678 106.31 152.89 105.733 153.021C105.156 153.152 104.497 153.217 103.753 153.217ZM105.034 148.115C105.034 147.701 104.912 147.379 104.668 147.15C104.424 146.922 104.058 146.807 103.57 146.807C103.082 146.807 102.711 146.927 102.456 147.167C102.201 147.396 102.073 147.712 102.073 148.115H105.034ZM114.729 153.217C113.687 153.217 112.849 152.89 112.217 152.236C111.596 151.571 111.285 150.639 111.285 149.44C111.285 148.524 111.496 147.723 111.918 147.036C112.35 146.349 112.955 145.821 113.731 145.45C114.518 145.068 115.422 144.878 116.443 144.878C117.286 144.878 118.029 144.97 118.672 145.156C119.326 145.33 119.925 145.586 120.469 145.924V152.465C120.469 152.672 120.43 152.808 120.352 152.874C120.275 152.939 120.119 152.972 119.886 152.972H118.189C118.067 152.972 117.973 152.955 117.907 152.923C117.84 152.879 117.785 152.814 117.74 152.727L117.524 152.236C117.202 152.574 116.814 152.819 116.359 152.972C115.916 153.135 115.372 153.217 114.729 153.217ZM115.977 150.993C116.409 150.993 116.748 150.89 116.992 150.683C117.236 150.475 117.358 150.181 117.358 149.8V147.249C117.147 147.15 116.881 147.101 116.559 147.101C115.971 147.101 115.5 147.303 115.145 147.706C114.801 148.11 114.629 148.677 114.629 149.407C114.629 150.465 115.078 150.993 115.977 150.993ZM125.279 152.972C124.957 152.972 124.73 152.906 124.597 152.776C124.464 152.645 124.397 152.438 124.397 152.154V145.63C124.397 145.434 124.431 145.303 124.497 145.237C124.575 145.161 124.73 145.123 124.963 145.123H126.676C126.81 145.123 126.909 145.145 126.976 145.188C127.054 145.221 127.098 145.286 127.109 145.384L127.192 145.875C127.503 145.57 127.908 145.33 128.407 145.156C128.917 144.97 129.483 144.878 130.104 144.878C131.002 144.878 131.728 145.128 132.283 145.63C132.837 146.12 133.115 146.851 133.115 147.821V152.154C133.115 152.438 133.048 152.645 132.915 152.776C132.793 152.906 132.571 152.972 132.25 152.972H130.636C130.314 152.972 130.081 152.906 129.937 152.776C129.804 152.645 129.738 152.438 129.738 152.154V148.034C129.738 147.706 129.666 147.472 129.521 147.33C129.377 147.189 129.15 147.118 128.839 147.118C128.507 147.118 128.24 147.205 128.041 147.379C127.852 147.554 127.758 147.794 127.758 148.099V152.154C127.758 152.438 127.691 152.645 127.558 152.776C127.436 152.906 127.214 152.972 126.893 152.972H125.279ZM138.13 144.289C137.753 144.289 137.465 144.191 137.265 143.995C137.066 143.787 136.966 143.548 136.966 143.275V142.883C136.966 142.599 137.066 142.359 137.265 142.163C137.465 141.956 137.753 141.852 138.13 141.852H139.328C139.716 141.852 140.01 141.956 140.21 142.163C140.41 142.359 140.509 142.599 140.509 142.883V143.275C140.509 143.548 140.41 143.787 140.21 143.995C140.01 144.191 139.716 144.289 139.328 144.289H138.13ZM137.931 152.972C137.609 152.972 137.382 152.906 137.249 152.776C137.116 152.645 137.049 152.438 137.049 152.154V145.957C137.049 145.673 137.116 145.466 137.249 145.335C137.382 145.194 137.609 145.123 137.931 145.123H139.528C139.849 145.123 140.077 145.194 140.21 145.335C140.354 145.466 140.426 145.673 140.426 145.957V152.154C140.426 152.438 140.354 152.645 140.21 152.776C140.077 152.906 139.849 152.972 139.528 152.972H137.931ZM145.314 152.972C144.993 152.972 144.765 152.906 144.632 152.776C144.499 152.645 144.432 152.438 144.432 152.154V145.63C144.432 145.434 144.466 145.303 144.532 145.237C144.61 145.161 144.765 145.123 144.998 145.123H146.712C146.845 145.123 146.945 145.145 147.011 145.188C147.089 145.221 147.133 145.286 147.144 145.384L147.227 145.875C147.538 145.57 147.943 145.33 148.442 145.156C148.952 144.97 149.518 144.878 150.139 144.878C151.037 144.878 151.764 145.128 152.318 145.63C152.873 146.12 153.15 146.851 153.15 147.821V152.154C153.15 152.438 153.083 152.645 152.95 152.776C152.828 152.906 152.606 152.972 152.285 152.972H150.671C150.349 152.972 150.117 152.906 149.972 152.776C149.839 152.645 149.773 152.438 149.773 152.154V148.034C149.773 147.706 149.701 147.472 149.556 147.33C149.412 147.189 149.185 147.118 148.874 147.118C148.542 147.118 148.275 147.205 148.076 147.379C147.887 147.554 147.793 147.794 147.793 148.099V152.154C147.793 152.438 147.726 152.645 147.593 152.776C147.471 152.906 147.25 152.972 146.928 152.972H145.314ZM161.376 155.752C160.711 155.752 160.029 155.675 159.33 155.523C158.642 155.381 158.132 155.196 157.799 154.967C157.722 154.901 157.683 154.831 157.683 154.754C157.683 154.7 157.7 154.645 157.733 154.591L158.448 153.299C158.482 153.244 158.515 153.195 158.548 153.152C158.592 153.119 158.637 153.103 158.681 153.103C158.703 153.103 158.77 153.124 158.881 153.168C159.402 153.43 160.123 153.561 161.044 153.561C161.565 153.561 161.959 153.452 162.225 153.233C162.491 153.015 162.624 152.661 162.624 152.171C162.402 152.323 162.125 152.449 161.792 152.547C161.459 152.634 161.105 152.678 160.727 152.678C159.408 152.678 158.398 152.356 157.7 151.713C157.012 151.07 156.668 150.137 156.668 148.917C156.668 147.587 157.09 146.584 157.933 145.908C158.775 145.221 160.023 144.878 161.676 144.878C162.508 144.878 163.301 144.992 164.055 145.221C164.809 145.45 165.436 145.739 165.935 146.088V151.304C165.935 152.634 165.546 153.708 164.77 154.525C163.994 155.343 162.862 155.752 161.376 155.752ZM161.459 150.372C162.258 150.372 162.657 149.996 162.657 149.244V147.265C162.424 147.167 162.036 147.118 161.493 147.118C161.005 147.118 160.633 147.238 160.378 147.478C160.134 147.717 160.012 148.148 160.012 148.769C160.012 149.325 160.129 149.734 160.361 149.996C160.594 150.246 160.96 150.372 161.459 150.372ZM182.456 153.217C181.525 153.217 180.643 153.124 179.811 152.939C178.979 152.743 178.308 152.47 177.798 152.122C177.61 152.002 177.515 151.876 177.515 151.745C177.515 151.658 177.549 151.566 177.615 151.467L178.43 150.192C178.519 150.061 178.608 149.996 178.697 149.996C178.752 149.996 178.846 150.034 178.979 150.11C179.39 150.339 179.856 150.524 180.377 150.666C180.898 150.808 181.414 150.879 181.924 150.879C182.445 150.879 182.828 150.802 183.072 150.65C183.327 150.497 183.455 150.252 183.455 149.914C183.455 149.587 183.316 149.331 183.039 149.145C182.772 148.96 182.268 148.726 181.525 148.442C180.405 148.028 179.528 147.565 178.896 147.052C178.275 146.529 177.965 145.821 177.965 144.927C177.965 143.847 178.358 143.024 179.146 142.457C179.933 141.891 180.981 141.607 182.29 141.607C183.199 141.607 183.976 141.689 184.619 141.852C185.273 142.005 185.828 142.245 186.283 142.572C186.471 142.714 186.566 142.844 186.566 142.964C186.566 143.041 186.532 143.128 186.466 143.226L185.651 144.501C185.551 144.632 185.462 144.698 185.384 144.698C185.329 144.698 185.235 144.66 185.102 144.583C184.458 144.169 183.693 143.962 182.806 143.962C182.329 143.962 181.963 144.038 181.708 144.191C181.453 144.343 181.325 144.594 181.325 144.943C181.325 145.183 181.392 145.379 181.525 145.532C181.658 145.684 181.835 145.821 182.057 145.94C182.29 146.049 182.645 146.191 183.122 146.366L183.438 146.48C184.259 146.796 184.902 147.101 185.368 147.396C185.845 147.679 186.205 148.034 186.449 148.459C186.693 148.873 186.815 149.396 186.815 150.028C186.815 150.999 186.444 151.773 185.7 152.35C184.968 152.928 183.887 153.217 182.456 153.217ZM194.925 153.217C193.993 153.217 193.162 153.065 192.43 152.759C191.709 152.454 191.137 151.996 190.716 151.386C190.295 150.775 190.084 150.028 190.084 149.145C190.084 147.761 190.483 146.704 191.282 145.973C192.08 145.243 193.228 144.878 194.725 144.878C196.189 144.878 197.298 145.237 198.053 145.957C198.818 146.665 199.201 147.652 199.201 148.917C199.201 149.462 198.957 149.734 198.469 149.734H193.245C193.245 150.203 193.422 150.563 193.777 150.813C194.143 151.064 194.692 151.189 195.424 151.189C195.879 151.189 196.256 151.151 196.555 151.075C196.866 150.988 197.176 150.862 197.487 150.699C197.62 150.644 197.709 150.617 197.753 150.617C197.853 150.617 197.936 150.683 198.003 150.813L198.568 151.86C198.624 151.969 198.652 152.051 198.652 152.105C198.652 152.203 198.585 152.296 198.452 152.383C197.997 152.678 197.481 152.89 196.905 153.021C196.328 153.152 195.668 153.217 194.925 153.217ZM196.206 148.115C196.206 147.701 196.084 147.379 195.84 147.15C195.596 146.922 195.23 146.807 194.742 146.807C194.254 146.807 193.882 146.927 193.627 147.167C193.372 147.396 193.245 147.712 193.245 148.115H196.206ZM203.671 152.972C203.35 152.972 203.122 152.906 202.989 152.776C202.856 152.645 202.79 152.438 202.79 152.154V145.63C202.79 145.434 202.823 145.303 202.89 145.237C202.967 145.161 203.122 145.123 203.355 145.123H205.069C205.202 145.123 205.302 145.145 205.368 145.188C205.446 145.221 205.49 145.286 205.501 145.384L205.585 145.859C206.25 145.205 207.054 144.878 207.997 144.878C208.363 144.878 208.662 144.91 208.895 144.976C209.128 145.03 209.339 145.123 209.527 145.254C209.638 145.33 209.694 145.417 209.694 145.515C209.694 145.548 209.683 145.608 209.661 145.695L209.128 147.183C209.084 147.336 209.001 147.412 208.879 147.412C208.823 147.412 208.757 147.39 208.679 147.347C208.38 147.183 208.019 147.101 207.598 147.101C207.176 147.101 206.827 147.216 206.55 147.445C206.283 147.674 206.15 147.979 206.15 148.361V152.154C206.15 152.438 206.084 152.645 205.951 152.776C205.829 152.906 205.607 152.972 205.285 152.972H203.671ZM216.696 152.972C216.486 152.972 216.325 152.934 216.214 152.857C216.114 152.781 216.014 152.639 215.915 152.432L212.704 145.744C212.648 145.635 212.621 145.537 212.621 145.45C212.621 145.352 212.648 145.275 212.704 145.221C212.77 145.156 212.859 145.123 212.97 145.123H215.399C215.565 145.123 215.693 145.156 215.781 145.221C215.87 145.286 215.942 145.39 215.998 145.532L217.428 149.26L218.859 145.532C218.915 145.39 218.987 145.286 219.075 145.221C219.164 145.156 219.292 145.123 219.458 145.123H221.904C222.015 145.123 222.098 145.156 222.153 145.221C222.22 145.275 222.253 145.352 222.253 145.45C222.253 145.537 222.225 145.635 222.17 145.744L218.959 152.432C218.859 152.639 218.754 152.781 218.643 152.857C218.543 152.934 218.388 152.972 218.177 152.972H216.696ZM227.011 144.289C226.634 144.289 226.346 144.191 226.146 143.995C225.946 143.787 225.846 143.548 225.846 143.275V142.883C225.846 142.599 225.946 142.359 226.146 142.163C226.346 141.956 226.634 141.852 227.011 141.852H228.209C228.597 141.852 228.891 141.956 229.091 142.163C229.29 142.359 229.39 142.599 229.39 142.883V143.275C229.39 143.548 229.29 143.787 229.091 143.995C228.891 144.191 228.597 144.289 228.209 144.289H227.011ZM226.811 152.972C226.49 152.972 226.262 152.906 226.129 152.776C225.996 152.645 225.93 152.438 225.93 152.154V145.957C225.93 145.673 225.996 145.466 226.129 145.335C226.262 145.194 226.49 145.123 226.811 145.123H228.408C228.73 145.123 228.957 145.194 229.091 145.335C229.235 145.466 229.307 145.673 229.307 145.957V152.154C229.307 152.438 229.235 152.645 229.091 152.776C228.957 152.906 228.73 152.972 228.408 152.972H226.811ZM237.839 153.217C236.286 153.217 235.088 152.863 234.245 152.154C233.402 151.446 232.981 150.415 232.981 149.064C232.981 148.235 233.175 147.505 233.563 146.873C233.951 146.24 234.512 145.75 235.244 145.401C235.987 145.052 236.863 144.878 237.872 144.878C238.637 144.878 239.281 144.948 239.802 145.09C240.334 145.232 240.806 145.45 241.216 145.744C241.338 145.821 241.399 145.919 241.399 146.039C241.399 146.126 241.355 146.24 241.266 146.382L240.584 147.543C240.506 147.696 240.412 147.772 240.301 147.772C240.234 147.772 240.129 147.728 239.985 147.641C239.685 147.456 239.403 147.319 239.136 147.232C238.881 147.145 238.56 147.101 238.172 147.101C237.617 147.101 237.168 147.276 236.824 147.625C236.491 147.974 236.325 148.453 236.325 149.064C236.325 149.685 236.497 150.165 236.841 150.503C237.184 150.83 237.656 150.993 238.255 150.993C238.61 150.993 238.931 150.944 239.22 150.846C239.508 150.748 239.802 150.612 240.101 150.437C240.257 150.35 240.368 150.306 240.434 150.306C240.534 150.306 240.623 150.383 240.7 150.535L241.449 151.794C241.504 151.904 241.532 151.991 241.532 152.056C241.532 152.154 241.466 152.247 241.332 152.334C240.867 152.628 240.356 152.846 239.802 152.988C239.258 153.141 238.604 153.217 237.839 153.217ZM249.643 153.217C248.712 153.217 247.88 153.065 247.148 152.759C246.427 152.454 245.856 151.996 245.434 151.386C245.013 150.775 244.802 150.028 244.802 149.145C244.802 147.761 245.201 146.704 246 145.973C246.798 145.243 247.946 144.878 249.444 144.878C250.908 144.878 252.017 145.237 252.771 145.957C253.536 146.665 253.919 147.652 253.919 148.917C253.919 149.462 253.675 149.734 253.187 149.734H247.963C247.963 150.203 248.14 150.563 248.495 150.813C248.861 151.064 249.41 151.189 250.142 151.189C250.597 151.189 250.974 151.151 251.274 151.075C251.584 150.988 251.895 150.862 252.205 150.699C252.338 150.644 252.427 150.617 252.471 150.617C252.571 150.617 252.654 150.683 252.721 150.813L253.287 151.86C253.342 151.969 253.37 152.051 253.37 152.105C253.37 152.203 253.303 152.296 253.17 152.383C252.715 152.678 252.2 152.89 251.623 153.021C251.046 153.152 250.386 153.217 249.643 153.217ZM250.924 148.115C250.924 147.701 250.802 147.379 250.558 147.15C250.314 146.922 249.948 146.807 249.46 146.807C248.972 146.807 248.601 146.927 248.346 147.167C248.091 147.396 247.963 147.712 247.963 148.115H250.924ZM261.368 153.217C259.804 153.217 258.512 152.934 257.491 152.367C257.281 152.236 257.175 152.122 257.175 152.023C257.175 151.969 257.203 151.887 257.258 151.778L257.957 150.552C258.024 150.421 258.107 150.356 258.207 150.356C258.273 150.356 258.368 150.388 258.49 150.454C258.8 150.617 259.194 150.77 259.671 150.911C260.159 151.042 260.591 151.108 260.968 151.108C261.323 151.108 261.578 151.075 261.734 151.01C261.889 150.933 261.967 150.813 261.967 150.65C261.967 150.497 261.856 150.372 261.634 150.274C261.423 150.165 261.035 150.028 260.469 149.865L260.103 149.767C259.183 149.494 258.517 149.184 258.107 148.835C257.696 148.486 257.491 147.99 257.491 147.347C257.491 146.551 257.841 145.94 258.539 145.515C259.238 145.09 260.175 144.878 261.351 144.878C262.083 144.878 262.721 144.943 263.264 145.074C263.808 145.205 264.329 145.401 264.828 145.662C265.028 145.771 265.127 145.891 265.127 146.022C265.127 146.099 265.094 146.197 265.028 146.317L264.345 147.379C264.268 147.499 264.19 147.559 264.113 147.559C264.046 147.559 263.957 147.527 263.846 147.461C263.58 147.319 263.27 147.205 262.915 147.118C262.56 147.031 262.216 146.987 261.883 146.987C261.118 146.987 260.735 147.15 260.735 147.478C260.735 147.63 260.857 147.761 261.101 147.87C261.356 147.968 261.745 148.077 262.266 148.197C262.388 148.23 262.554 148.273 262.765 148.328C262.987 148.382 263.17 148.437 263.314 148.491C263.846 148.677 264.257 148.867 264.545 149.064C264.834 149.249 265.039 149.472 265.161 149.734C265.283 149.985 265.344 150.306 265.344 150.699C265.344 151.168 265.199 151.593 264.911 151.974C264.623 152.345 264.179 152.645 263.58 152.874C262.981 153.103 262.244 153.217 261.368 153.217Z" fill="#7C4032"/>
<path d="M38.2938 148.25H35.257V143.743H51.875V148.25H48.8366C48.6848 148.25 48.5392 148.309 48.4318 148.415C48.3244 148.52 48.2641 148.663 48.2641 148.812C48.2641 148.961 48.3244 149.104 48.4318 149.209C48.5392 149.314 48.6848 149.374 48.8366 149.374H51.896C52.1936 149.373 52.4788 149.257 52.6891 149.051C52.8996 148.844 53.0179 148.564 53.0184 148.272V143.725C53.0179 143.433 52.8996 143.153 52.6891 142.947C52.4788 142.74 52.1936 142.624 51.896 142.624H35.2352C34.9376 142.624 34.6522 142.74 34.4418 142.946C34.2313 143.153 34.113 143.433 34.1129 143.725V148.272C34.1133 148.564 34.2316 148.844 34.4421 149.051C34.6524 149.257 34.9376 149.373 35.2352 149.374H38.2938C38.4456 149.374 38.5912 149.314 38.6986 149.209C38.806 149.104 38.8663 148.961 38.8663 148.812C38.8663 148.663 38.806 148.52 38.6986 148.415C38.5912 148.309 38.4456 148.25 38.2938 148.25Z" fill="#7C4032"/>
<path d="M51.3639 144.934C51.3639 144.897 51.3565 144.86 51.3421 144.826C51.3277 144.792 51.3066 144.761 51.28 144.735C51.2533 144.709 51.2217 144.688 51.1869 144.674C51.1522 144.66 51.1149 144.653 51.0773 144.653H36.0588C35.983 144.653 35.9103 144.683 35.8567 144.735C35.8031 144.788 35.7729 144.859 35.7729 144.934C35.7729 145.008 35.8031 145.08 35.8567 145.132C35.9103 145.185 35.983 145.214 36.0588 145.214H51.0773C51.1149 145.214 51.1522 145.207 51.1869 145.193C51.2217 145.179 51.2533 145.158 51.28 145.132C51.3066 145.106 51.3277 145.075 51.3421 145.041C51.3565 145.007 51.3639 144.971 51.3639 144.934Z" fill="#7C4032"/>
<path d="M31.9846 140.533C31.9097 140.54 31.837 140.561 31.7705 140.595C31.7041 140.63 31.6452 140.677 31.5973 140.734C31.5494 140.79 31.5133 140.856 31.4913 140.926C31.4691 140.997 31.4614 141.071 31.4686 141.144L32.0936 147.676C32.107 147.815 32.1727 147.944 32.278 148.038C32.3833 148.132 32.5204 148.184 32.6628 148.184H32.7169C32.868 148.17 33.0071 148.098 33.1039 147.983C33.2006 147.869 33.247 147.721 33.2328 147.573L32.6079 141.041C32.601 140.967 32.5794 140.896 32.5443 140.83C32.5093 140.765 32.4614 140.707 32.4035 140.66C32.3456 140.613 32.2788 140.577 32.2069 140.555C32.135 140.534 32.0594 140.526 31.9846 140.533Z" fill="#7C4032"/>
<path d="M30.851 132.772C30.7974 132.83 30.7567 132.898 30.7316 132.972C30.7065 133.046 30.6973 133.125 30.7049 133.203L31.1166 137.492C31.1393 137.633 31.216 137.761 31.3311 137.848C31.4461 137.936 31.5909 137.977 31.7359 137.964C31.881 137.95 32.0153 137.883 32.1116 137.776C32.208 137.669 32.259 137.53 32.2543 137.387L31.9014 133.711H55.2286L53.8939 147.57C53.8797 147.719 53.9261 147.866 54.0228 147.981C54.1196 148.096 54.2587 148.168 54.4098 148.182C54.4276 148.182 54.4462 148.182 54.4639 148.182C54.6056 148.181 54.7418 148.128 54.8461 148.034C54.9506 147.94 55.0158 147.812 55.0291 147.673L56.4196 133.2C56.427 133.123 56.4177 133.044 56.3925 132.97C56.3672 132.896 56.3264 132.828 56.2727 132.77C56.2191 132.712 56.1537 132.666 56.0809 132.634C56.008 132.603 55.9292 132.586 55.8495 132.586H31.2741C31.1943 132.587 31.1155 132.603 31.0426 132.635C30.9697 132.667 30.9045 132.714 30.851 132.772Z" fill="#7C4032"/>
<path d="M34.7805 136.921C34.7131 136.949 34.6593 137.002 34.6304 137.068C34.6014 137.135 34.5995 137.209 34.625 137.277C34.6505 137.344 34.7014 137.4 34.7673 137.432C34.8332 137.463 34.9091 137.469 34.9792 137.448C35.2203 137.359 35.4285 137.2 35.5763 136.993C35.7242 136.786 35.8048 136.54 35.8076 136.287C35.8088 136.123 35.777 135.961 35.7143 135.809C35.6515 135.657 35.5589 135.519 35.4417 135.403C35.3245 135.286 35.185 135.193 35.0312 135.13C34.8775 135.066 34.7125 135.032 34.5456 135.031H34.5367C34.2012 135.032 33.8795 135.162 33.6413 135.394C33.4032 135.626 33.268 135.94 33.265 136.27C33.2648 136.344 33.2945 136.415 33.3477 136.468C33.4009 136.521 33.4734 136.552 33.5492 136.552C33.6247 136.552 33.697 136.523 33.7505 136.471C33.804 136.418 33.8344 136.348 33.835 136.274C33.8368 136.093 33.9111 135.92 34.0421 135.792C34.173 135.665 34.3499 135.593 34.5342 135.593H34.5391C34.7245 135.594 34.9017 135.668 35.0319 135.797C35.1621 135.926 35.2346 136.101 35.2335 136.283C35.2321 136.422 35.1881 136.557 35.1073 136.671C35.0265 136.784 34.9126 136.872 34.7805 136.921Z" fill="#7C4032"/>
<path d="M31.4222 131.119C31.3842 131.263 31.406 131.416 31.4829 131.545C31.5598 131.673 31.6855 131.766 31.8324 131.804C31.8797 131.816 31.9282 131.822 31.977 131.822C32.1036 131.822 32.2266 131.78 32.3266 131.704C32.4267 131.628 32.4982 131.522 32.53 131.401C32.6448 130.969 32.8573 130.568 33.1516 130.228C33.4458 129.888 33.8144 129.617 34.23 129.435C34.6455 129.254 35.0973 129.167 35.552 129.18C36.0067 129.193 36.4525 129.306 36.8563 129.512C36.9546 129.569 37.0679 129.595 37.1817 129.589C37.2955 129.582 37.4047 129.542 37.4952 129.474C37.5857 129.405 37.6533 129.312 37.6894 129.206C37.7255 129.1 37.7283 128.986 37.6977 128.878C37.6295 128.596 37.6273 128.303 37.6912 128.02C37.7551 127.737 37.8835 127.472 38.0667 127.245C38.25 127.018 38.4833 126.835 38.7491 126.709C39.0149 126.583 39.3064 126.517 39.6017 126.518C39.9078 126.516 40.2099 126.587 40.4831 126.722C40.7563 126.858 40.9928 127.055 41.1729 127.298C41.2379 127.383 41.326 127.448 41.4271 127.485C41.5281 127.523 41.6379 127.532 41.7439 127.511C41.8498 127.49 41.9474 127.44 42.0256 127.366C42.1038 127.293 42.1592 127.2 42.1855 127.097C42.2537 126.816 42.3955 126.557 42.5969 126.345C42.7982 126.134 43.0522 125.978 43.3337 125.893C43.6152 125.807 43.9146 125.795 44.2023 125.858C44.49 125.921 44.7562 126.056 44.9744 126.25C45.0384 126.307 45.1145 126.348 45.1971 126.372C45.2798 126.396 45.367 126.401 45.4519 126.387C45.5369 126.373 45.6176 126.341 45.688 126.292C45.7584 126.243 45.8167 126.18 45.8585 126.106C46.2779 125.367 46.9747 124.818 47.8005 124.576C48.6262 124.334 49.5157 124.418 50.2794 124.81C51.0431 125.201 51.6207 125.87 51.8891 126.674C52.1576 127.478 52.0957 128.352 51.7166 129.112C51.6736 129.197 51.6536 129.292 51.6585 129.388C51.6633 129.483 51.6929 129.576 51.7444 129.657C51.7959 129.738 51.8676 129.805 51.9527 129.851C52.0378 129.897 52.1336 129.921 52.2309 129.921C52.28 129.921 52.3288 129.915 52.3762 129.902C52.5384 129.861 52.7053 129.84 52.8728 129.84C53.3231 129.84 53.7594 129.993 54.1079 130.273C54.4564 130.553 54.6958 130.942 54.7857 131.375C54.8156 131.521 54.9035 131.649 55.0298 131.732C55.1562 131.814 55.3108 131.844 55.4595 131.814C55.6082 131.785 55.7389 131.699 55.8229 131.575C55.9068 131.451 55.9372 131.299 55.9072 131.153C55.7713 130.5 55.4202 129.908 54.908 129.469C54.3958 129.03 53.7508 128.769 53.0722 128.725C53.3191 127.749 53.215 126.719 52.7775 125.81C52.3401 124.9 51.596 124.167 50.6711 123.733C49.7463 123.299 48.6972 123.192 47.7012 123.43C46.7052 123.668 45.8233 124.235 45.2045 125.037C44.5706 124.696 43.8282 124.605 43.128 124.781C42.4279 124.958 41.8224 125.389 41.4345 125.988C40.9911 125.665 40.4677 125.465 39.9185 125.407C39.3695 125.35 38.8148 125.438 38.3121 125.662C37.8095 125.887 37.3772 126.239 37.0601 126.682C36.743 127.126 36.5528 127.645 36.5091 128.185C36.1662 128.098 35.8136 128.054 35.4594 128.053C34.5355 128.053 33.6378 128.355 32.9071 128.91C32.1764 129.464 31.6542 130.242 31.4222 131.119Z" fill="#7C4032"/>
<path d="M35.8995 125.979C35.8995 125.678 35.8084 125.383 35.638 125.133C35.4674 124.883 35.2251 124.687 34.9414 124.572C34.6579 124.457 34.3459 124.427 34.0448 124.486C33.7437 124.544 33.4673 124.689 33.2502 124.902C33.0332 125.115 32.8854 125.387 32.8255 125.682C32.7656 125.977 32.7963 126.283 32.9138 126.562C33.0313 126.84 33.2302 127.078 33.4854 127.245C33.7406 127.412 34.0406 127.502 34.3476 127.502C34.5517 127.503 34.7541 127.464 34.943 127.388C35.1318 127.312 35.3034 127.2 35.4478 127.059C35.5922 126.917 35.7065 126.749 35.784 126.563C35.8615 126.378 35.9007 126.179 35.8995 125.979ZM33.3689 125.979C33.3686 125.789 33.4258 125.603 33.5333 125.445C33.6407 125.286 33.7937 125.163 33.9726 125.09C34.1516 125.017 34.3486 124.998 34.5388 125.035C34.7289 125.072 34.9035 125.163 35.0406 125.298C35.1777 125.432 35.2711 125.603 35.309 125.79C35.3468 125.976 35.3274 126.17 35.2532 126.345C35.179 126.521 35.0533 126.671 34.8921 126.777C34.7309 126.882 34.5414 126.939 34.3476 126.938C34.0884 126.938 33.8399 126.837 33.6566 126.657C33.4732 126.477 33.3698 126.233 33.3689 125.979Z" fill="#7C4032"/>
<path d="M42.7319 120.876C42.425 120.876 42.1251 120.966 41.8701 121.133C41.6151 121.301 41.4164 121.539 41.2992 121.817C41.182 122.096 41.1516 122.402 41.2117 122.697C41.2719 122.992 41.4199 123.264 41.6371 123.476C41.8542 123.689 42.1308 123.834 42.4319 123.892C42.7329 123.951 43.0449 123.921 43.3284 123.805C43.6119 123.69 43.8541 123.494 44.0244 123.244C44.1947 122.994 44.2856 122.699 44.2854 122.398C44.2848 121.994 44.1209 121.607 43.8296 121.322C43.5383 121.036 43.1435 120.876 42.7319 120.876ZM42.7319 123.359C42.5382 123.359 42.3489 123.303 42.1878 123.197C42.0267 123.091 41.9012 122.941 41.827 122.766C41.7529 122.59 41.7336 122.397 41.7713 122.21C41.8091 122.024 41.9024 121.853 42.0394 121.718C42.1763 121.584 42.3509 121.493 42.5408 121.455C42.7309 121.418 42.9278 121.437 43.1067 121.51C43.2857 121.583 43.4387 121.706 43.5463 121.864C43.6539 122.022 43.7114 122.208 43.7114 122.398C43.7121 122.524 43.6873 122.65 43.6384 122.767C43.5894 122.884 43.5173 122.99 43.4262 123.079C43.3351 123.169 43.2268 123.239 43.1077 123.287C42.9885 123.335 42.8608 123.36 42.7319 123.359Z" fill="#7C4032"/>
<path d="M37.0187 125.058C37.2592 125.057 37.4896 124.962 37.6595 124.795C37.8292 124.628 37.9246 124.402 37.9246 124.166C37.9244 123.989 37.8709 123.817 37.7709 123.67C37.6709 123.524 37.5288 123.41 37.3627 123.342C37.1965 123.275 37.0138 123.258 36.8376 123.292C36.6614 123.327 36.4996 123.412 36.3727 123.537C36.2459 123.662 36.1597 123.821 36.1249 123.994C36.0902 124.167 36.1086 124.346 36.1778 124.509C36.2469 124.672 36.3637 124.811 36.5134 124.909C36.6631 125.006 36.8389 125.058 37.0187 125.058ZM36.6803 124.166C36.6803 124.078 36.7157 123.994 36.7787 123.932C36.8417 123.871 36.9272 123.836 37.0162 123.836C37.1051 123.836 37.1903 123.871 37.2532 123.932C37.3161 123.994 37.3517 124.078 37.3521 124.165C37.3519 124.252 37.3164 124.336 37.2534 124.397C37.1904 124.459 37.1052 124.494 37.0162 124.494C36.9721 124.494 36.9284 124.485 36.8877 124.469C36.847 124.452 36.81 124.428 36.7787 124.397C36.7475 124.367 36.7228 124.331 36.7059 124.291C36.689 124.251 36.6803 124.208 36.6803 124.165V124.166Z" fill="#7C4032"/>
<path d="M44.986 120.306C45.1055 120.306 45.2237 120.283 45.334 120.238C45.4442 120.193 45.5444 120.127 45.6287 120.044C45.713 119.961 45.7797 119.862 45.8252 119.754C45.8706 119.645 45.8938 119.529 45.8935 119.412C45.8929 119.176 45.797 118.951 45.6268 118.784C45.4567 118.618 45.2262 118.524 44.986 118.525C44.8645 118.521 44.7435 118.542 44.6302 118.585C44.5168 118.628 44.4135 118.693 44.3263 118.776C44.239 118.859 44.1696 118.959 44.1223 119.068C44.0749 119.178 44.0505 119.296 44.0505 119.416C44.0505 119.535 44.0749 119.653 44.1223 119.763C44.1696 119.873 44.239 119.972 44.3263 120.055C44.4135 120.138 44.5168 120.203 44.6302 120.246C44.7435 120.29 44.8645 120.31 44.986 120.306ZM44.986 119.086C45.0745 119.086 45.1593 119.12 45.2222 119.181C45.285 119.242 45.3208 119.325 45.3219 119.412C45.3219 119.499 45.2865 119.583 45.2235 119.645C45.1605 119.707 45.0751 119.742 44.986 119.742C44.897 119.741 44.8117 119.707 44.7487 119.645C44.6857 119.583 44.6503 119.499 44.6501 119.412C44.6512 119.325 44.687 119.242 44.7498 119.181C44.8127 119.12 44.8975 119.086 44.986 119.086Z" fill="#7C4032"/>
<path d="M46.7965 122.127C46.9255 122.127 47.0504 122.083 47.1499 122.002C47.2494 121.922 47.3174 121.81 47.3423 121.686C47.3671 121.562 47.3472 121.433 47.2862 121.321C47.2251 121.21 47.1265 121.123 47.0072 121.075C46.8879 121.027 46.7553 121.021 46.632 121.058C46.5088 121.095 46.4024 121.173 46.3311 121.278C46.2599 121.384 46.2282 121.51 46.2413 121.636C46.2545 121.762 46.3117 121.88 46.4033 121.969C46.5079 122.07 46.6493 122.127 46.7965 122.127ZM46.7804 121.581C46.7804 121.577 46.782 121.573 46.7851 121.57C46.7881 121.567 46.7922 121.565 46.7965 121.565C46.8007 121.566 46.8047 121.567 46.8078 121.57C46.8104 121.573 46.8122 121.577 46.8127 121.581C46.8127 121.599 46.7804 121.599 46.7804 121.581Z" fill="#7C4032"/>
<path d="M53.5459 123.744C53.5459 123.599 53.4874 123.461 53.3832 123.359C53.279 123.256 53.1377 123.199 52.9904 123.199C52.8803 123.199 52.7727 123.231 52.6812 123.291C52.5897 123.351 52.5184 123.436 52.4763 123.536C52.4342 123.636 52.4233 123.746 52.4448 123.852C52.4663 123.958 52.5194 124.055 52.5973 124.131C52.6752 124.207 52.7744 124.259 52.8823 124.28C52.9903 124.301 53.1022 124.29 53.2038 124.249C53.3055 124.207 53.3923 124.137 53.4533 124.047C53.5144 123.958 53.5468 123.852 53.5467 123.744H53.5459ZM52.9734 123.744C52.9734 123.742 52.9738 123.74 52.9747 123.738C52.9755 123.736 52.9766 123.734 52.9782 123.733C52.9797 123.732 52.9815 123.731 52.9834 123.73C52.9854 123.729 52.9875 123.729 52.9895 123.729C52.9936 123.729 52.9974 123.731 53.0003 123.734C53.0033 123.736 53.0052 123.74 53.0057 123.744C53.0057 123.748 53.004 123.752 53.001 123.755C52.998 123.758 52.9938 123.76 52.9895 123.76C52.9854 123.759 52.9815 123.758 52.9786 123.755C52.9756 123.752 52.9738 123.748 52.9734 123.744Z" fill="#7C4032"/>
<path d="M55.435 125.642C55.4348 125.405 55.339 125.179 55.1687 125.012C54.9983 124.845 54.7674 124.751 54.5267 124.751C54.3469 124.751 54.1713 124.803 54.0219 124.901C53.8725 124.999 53.7561 125.138 53.6873 125.301C53.6186 125.464 53.6007 125.644 53.6358 125.816C53.6709 125.989 53.7575 126.148 53.8846 126.273C54.0117 126.397 54.1737 126.482 54.3499 126.517C54.5262 126.551 54.7089 126.533 54.8749 126.466C55.0408 126.398 55.1826 126.284 55.2823 126.137C55.382 125.99 55.4352 125.818 55.435 125.642ZM54.1907 125.642C54.191 125.554 54.2265 125.471 54.2894 125.409C54.3524 125.347 54.4377 125.313 54.5267 125.313C54.5931 125.313 54.6581 125.332 54.7134 125.368C54.7686 125.405 54.8116 125.456 54.8371 125.516C54.8625 125.577 54.8691 125.643 54.856 125.707C54.843 125.771 54.811 125.83 54.7639 125.876C54.7168 125.922 54.6569 125.953 54.5917 125.966C54.5265 125.978 54.4589 125.972 54.3975 125.947C54.3362 125.921 54.2838 125.879 54.247 125.825C54.2101 125.771 54.1906 125.707 54.1907 125.642Z" fill="#7C4032"/>
<path d="M58.8205 121.015C56.5423 118.782 53.7832 117.077 50.7457 116.027C47.7083 114.976 44.4697 114.607 41.2676 114.945C38.0656 115.283 34.9814 116.321 32.2414 117.982C29.5015 119.642 27.1753 121.884 25.4338 124.542C23.6923 127.2 22.5796 130.207 22.1774 133.343C21.7752 136.478 22.0937 139.662 23.1095 142.66C24.1254 145.659 25.8127 148.396 28.0478 150.672C30.2828 152.947 33.0088 154.702 36.0255 155.808C36.0896 155.831 36.1574 155.843 36.2258 155.844C36.3598 155.844 36.4897 155.797 36.5926 155.713C36.6954 155.629 36.7648 155.511 36.7887 155.382C36.8125 155.252 36.7892 155.119 36.723 155.004C36.6567 154.89 36.5516 154.802 36.426 154.756C28.4823 151.847 23.1451 144.298 23.1451 135.98C23.1451 124.931 32.3064 115.942 43.5671 115.942C54.8277 115.942 63.9881 124.929 63.9881 135.978C63.991 139.286 63.1578 142.544 61.5631 145.459C59.9684 148.374 57.662 150.855 54.8503 152.681C54.8147 152.704 54.7009 152.781 54.6742 152.795C51.0747 154.755 47.3475 155.41 45.4 154.432C44.8307 154.146 44.4488 153.725 44.2574 153.179H44.4697C45.0497 153.179 45.6057 152.952 46.0158 152.55C46.4258 152.148 46.6565 151.602 46.6571 151.033V150.935C46.8613 150.851 47.0356 150.71 47.1582 150.529C47.2809 150.348 47.3465 150.136 47.3467 149.919V147.542C47.3496 147.466 47.3369 147.391 47.3095 147.32C47.282 147.25 47.2404 147.185 47.187 147.131C47.1335 147.077 47.0695 147.033 46.9987 147.004C46.9278 146.974 46.8516 146.959 46.7746 146.959C46.6977 146.959 46.6214 146.974 46.5506 147.004C46.4797 147.033 46.4157 147.077 46.3623 147.131C46.3089 147.185 46.2672 147.25 46.2398 147.32C46.2123 147.391 46.1997 147.466 46.2026 147.542V149.895H40.9308V147.543C40.9337 147.468 40.921 147.393 40.8935 147.322C40.8661 147.251 40.8244 147.187 40.771 147.133C40.7176 147.078 40.6536 147.035 40.5827 147.005C40.5118 146.976 40.4357 146.961 40.3587 146.961C40.2817 146.961 40.2055 146.976 40.1346 147.005C40.0638 147.035 39.9997 147.078 39.9463 147.133C39.8929 147.187 39.8512 147.251 39.8238 147.322C39.7963 147.393 39.7837 147.468 39.7866 147.543V149.92C39.7868 150.137 39.8524 150.35 39.975 150.53C40.0977 150.711 40.272 150.853 40.4762 150.937V151.035C40.4768 151.604 40.7075 152.149 41.1175 152.552C41.5276 152.954 42.0836 153.18 42.6635 153.181H43.0672C43.2958 154.175 43.9143 154.949 44.8743 155.433C45.6357 155.816 46.5869 156.002 47.6641 156.002C49.853 156.002 52.5588 155.231 55.2274 153.778C55.2782 153.751 55.443 153.643 55.4809 153.62C58.1451 151.888 60.3837 149.596 62.0347 146.911C63.6858 144.226 64.7081 141.215 65.0277 138.094C65.3473 134.974 64.9562 131.823 63.8827 128.87C62.8092 125.916 61.0801 123.233 58.8205 121.015ZM41.6219 151.033V151.024H45.5138V151.037C45.5114 151.307 45.4005 151.566 45.205 151.756C45.0094 151.947 44.7452 152.053 44.4697 152.054H42.6635C42.3877 152.053 42.1234 151.945 41.9283 151.754C41.7331 151.563 41.623 151.304 41.6219 151.033Z" fill="#7C4032"/>
<path d="M34.6937 136.044C34.6621 136.024 34.6267 136.01 34.5897 136.004C34.5527 135.997 34.5147 135.998 34.4779 136.006C34.4412 136.013 34.4063 136.028 34.3755 136.05C34.3446 136.071 34.3183 136.097 34.298 136.129C32.9012 138.261 31.2863 139.362 29.2337 140.755L28.8422 141.022C28.7923 141.056 28.7548 141.104 28.7351 141.161C28.7154 141.217 28.7145 141.278 28.7325 141.335C28.7504 141.392 28.7864 141.442 28.8351 141.478C28.8839 141.513 28.9428 141.533 29.0036 141.533C29.0615 141.533 29.1178 141.515 29.1651 141.483L29.5559 141.217C31.5745 139.844 33.3186 138.659 34.776 136.432C34.8174 136.37 34.8319 136.294 34.8165 136.221C34.801 136.149 34.7569 136.085 34.6937 136.044Z" fill="#7C4032"/>
</g>
<defs>
<clipPath id="clip0_304_6">
<rect width="244" height="43" fill="white" transform="translate(22 113)"/>
</clipPath>
</defs>
</svg>
